<ttFont>
    <TTGlyph name=".notdef" xMin="233" yMin="0" xMax="1649" yMax="1416">
      <contour>
        <pt x="1649" y="1416" on="1"/>
        <pt x="1649" y="0" on="1"/>
        <pt x="233" y="0" on="1"/>
        <pt x="233" y="1416" on="1"/>
      </contour>
      <contour>
        <pt x="1300" y="219" on="1"/>
        <pt x="1422" y="341" on="1"/>
        <pt x="1059" y="709" on="1"/>
        <pt x="1422" y="1067" on="1"/>
        <pt x="1294" y="1191" on="1"/>
        <pt x="942" y="825" on="1"/>
        <pt x="585" y="1193" on="1"/>
        <pt x="462" y="1068" on="1"/>
        <pt x="821" y="705" on="1"/>
        <pt x="463" y="363" on="1"/>
        <pt x="591" y="219" on="1"/>
        <pt x="938" y="587" on="1"/>
      </contour>
    </TTGlyph>
    <TTGlyph name="A" xMin="-15" yMin="0" xMax="1436" yMax="1538">
      <contour>
        <pt x="987" y="322" on="1"/>
        <pt x="428" y="322" on="1"/>
        <pt x="327" y="0" on="1"/>
        <pt x="-15" y="0" on="1"/>
        <pt x="547" y="1538" on="1"/>
        <pt x="869" y="1538" on="1"/>
        <pt x="1436" y="0" on="1"/>
        <pt x="1089" y="0" on="1"/>
      </contour>
      <contour>
        <pt x="914" y="551" on="1"/>
        <pt x="749" y="1073" on="1"/>
        <pt x="706" y="1230" on="1"/>
        <pt x="662" y="1073" on="1"/>
        <pt x="499" y="551" on="1"/>
      </contour>
    </TTGlyph>
    <TTGlyph name="AE" xMin="-111" yMin="0" xMax="1853" yMax="1522">
      <contour>
        <pt x="1853" y="251" on="1"/>
        <pt x="1853" y="0" on="1"/>
        <pt x="860" y="0" on="1"/>
        <pt x="860" y="376" on="1"/>
        <pt x="412" y="376" on="1"/>
        <pt x="234" y="0" on="1"/>
        <pt x="-111" y="0" on="1"/>
        <pt x="655" y="1522" on="1"/>
        <pt x="1788" y="1522" on="1"/>
        <pt x="1788" y="1278" on="1"/>
        <pt x="1178" y="1278" on="1"/>
        <pt x="1178" y="904" on="1"/>
        <pt x="1646" y="904" on="1"/>
        <pt x="1646" y="663" on="1"/>
        <pt x="1178" y="663" on="1"/>
        <pt x="1178" y="251" on="1"/>
      </contour>
      <contour>
        <pt x="860" y="598" on="1"/>
        <pt x="860" y="1324" on="1"/>
        <pt x="517" y="598" on="1"/>
      </contour>
    </TTGlyph>
    <TTGlyph name="AEacute" xMin="-111" yMin="0" xMax="1853" yMax="1980">
      <component glyphName="acute.cap" x="820" y="0" flags="0x0"/>
      <component glyphName="AE" x="0" y="0" flags="0x0"/>
    </TTGlyph>
    <TTGlyph name="Aacute" xMin="-15" yMin="0" xMax="1436" yMax="1980">
      <component glyphName="A" x="0" y="0" flags="0x0"/>
      <component glyphName="acute.cap" x="484" y="0" flags="0x0"/>
    </TTGlyph>
    <TTGlyph name="Abreve" xMin="-15" yMin="0" xMax="1436" yMax="1959">
      <component glyphName="A" x="0" y="0" flags="0x0"/>
      <component glyphName="breve.cap" x="302" y="-1" flags="0x4"/>
    </TTGlyph>
    <TTGlyph name="Acircumflex" xMin="-15" yMin="0" xMax="1436" yMax="1959">
      <component glyphName="A" x="0" y="0" flags="0x0"/>
      <component glyphName="circumflex.cap" x="278" y="-1" flags="0x4"/>
    </TTGlyph>
    <TTGlyph name="Adieresis" xMin="-15" yMin="0" xMax="1436" yMax="1960">
      <component glyphName="A" x="0" y="0" flags="0x0"/>
      <component glyphName="dieresis.cap" x="217" y="0" flags="0x0"/>
    </TTGlyph>
    <TTGlyph name="Agrave" xMin="-15" yMin="0" xMax="1436" yMax="1980">
      <component glyphName="A" x="0" y="0" flags="0x0"/>
      <component glyphName="grave.cap" x="286" y="0" flags="0x0"/>
    </TTGlyph>
    <TTGlyph name="Amacron" xMin="-15" yMin="0" xMax="1436" yMax="1892">
      <component glyphName="A" x="0" y="0" flags="0x0"/>
      <component glyphName="macron.cap" x="364" y="-1" flags="0x4"/>
    </TTGlyph>
    <TTGlyph name="Aogonek" xMin="-15" yMin="-516" xMax="1436" yMax="1538">
      <contour>
        <pt x="1187" y="-311" on="0"/>
        <pt x="1308" y="-311" on="1"/>
        <pt x="1363" y="-311" on="0"/>
        <pt x="1433" y="-291" on="1"/>
        <pt x="1433" y="-448" on="1"/>
        <pt x="1390" y="-480" on="0"/>
        <pt x="1267" y="-516" on="0"/>
        <pt x="1203" y="-516" on="1"/>
        <pt x="1139" y="-516" on="0"/>
        <pt x="1021" y="-468" on="0"/>
        <pt x="945" y="-377" on="0"/>
        <pt x="942" y="-316" on="1"/>
        <pt x="936" y="-214" on="0"/>
        <pt x="1064" y="-52" on="0"/>
        <pt x="1158" y="0" on="1"/>
        <pt x="1089" y="0" on="1"/>
        <pt x="987" y="322" on="1"/>
        <pt x="428" y="322" on="1"/>
        <pt x="327" y="0" on="1"/>
        <pt x="-15" y="0" on="1"/>
        <pt x="547" y="1538" on="1"/>
        <pt x="869" y="1538" on="1"/>
        <pt x="1436" y="0" on="1"/>
        <pt x="1366" y="0" on="1"/>
        <pt x="1278" y="-57" on="0"/>
        <pt x="1187" y="-152" on="0"/>
        <pt x="1187" y="-212" on="1"/>
      </contour>
      <contour>
        <pt x="914" y="551" on="1"/>
        <pt x="749" y="1073" on="1"/>
        <pt x="706" y="1230" on="1"/>
        <pt x="662" y="1073" on="1"/>
        <pt x="499" y="551" on="1"/>
      </contour>
    </TTGlyph>
    <TTGlyph name="Aring" xMin="-15" yMin="0" xMax="1436" yMax="1969">
      <contour>
        <pt x="987" y="322" on="1"/>
        <pt x="428" y="322" on="1"/>
        <pt x="327" y="0" on="1"/>
        <pt x="-15" y="0" on="1"/>
        <pt x="515" y="1451" on="1"/>
        <pt x="443" y="1484" on="0"/>
        <pt x="367" y="1607" on="0"/>
        <pt x="367" y="1693" on="1"/>
        <pt x="367" y="1791" on="0"/>
        <pt x="466" y="1915" on="0"/>
        <pt x="622" y="1969" on="0"/>
        <pt x="714" y="1969" on="1"/>
        <pt x="873" y="1969" on="0"/>
        <pt x="1050" y="1831" on="0"/>
        <pt x="1050" y="1697" on="1"/>
        <pt x="1050" y="1608" on="0"/>
        <pt x="970" y="1486" on="0"/>
        <pt x="900" y="1454" on="1"/>
        <pt x="1436" y="0" on="1"/>
        <pt x="1089" y="0" on="1"/>
      </contour>
      <contour>
        <pt x="633" y="1823" on="0"/>
        <pt x="551" y="1768" on="0"/>
        <pt x="551" y="1698" on="1"/>
        <pt x="551" y="1636" on="0"/>
        <pt x="637" y="1567" on="0"/>
        <pt x="708" y="1567" on="1"/>
        <pt x="787" y="1566" on="0"/>
        <pt x="867" y="1618" on="0"/>
        <pt x="867" y="1691" on="1"/>
        <pt x="867" y="1757" on="0"/>
        <pt x="777" y="1823" on="0"/>
        <pt x="703" y="1823" on="1"/>
      </contour>
      <contour>
        <pt x="914" y="551" on="1"/>
        <pt x="749" y="1073" on="1"/>
        <pt x="706" y="1230" on="1"/>
        <pt x="662" y="1073" on="1"/>
        <pt x="499" y="551" on="1"/>
      </contour>
    </TTGlyph>
    <TTGlyph name="Atilde" xMin="-15" yMin="0" xMax="1436" yMax="1957">
      <component glyphName="A" x="0" y="0" flags="0x0"/>
      <component glyphName="tilde.cap" x="245" y="-1" flags="0x4"/>
    </TTGlyph>
    <TTGlyph name="B" xMin="188" yMin="-14" xMax="1338" yMax="1537">
      <contour>
        <pt x="342" y="1522" on="1"/>
        <pt x="383" y="1522" on="0"/>
        <pt x="485" y="1528" on="1"/>
        <pt x="624" y="1537" on="0"/>
        <pt x="700" y="1537" on="1"/>
        <pt x="888" y="1537" on="0"/>
        <pt x="1137" y="1441" on="0"/>
        <pt x="1257" y="1268" on="0"/>
        <pt x="1257" y="1152" on="1"/>
        <pt x="1257" y="1069" on="0"/>
        <pt x="1203" y="927" on="0"/>
        <pt x="1100" y="828" on="0"/>
        <pt x="1029" y="809" on="1"/>
        <pt x="1119" y="799" on="0"/>
        <pt x="1259" y="708" on="0"/>
        <pt x="1338" y="557" on="0"/>
        <pt x="1338" y="461" on="1"/>
        <pt x="1338" y="236" on="0"/>
        <pt x="1054" y="-14" on="0"/>
        <pt x="715" y="-14" on="1"/>
        <pt x="570" y="-14" on="0"/>
        <pt x="349" y="0" on="1"/>
        <pt x="188" y="0" on="1"/>
        <pt x="188" y="1523" on="1"/>
      </contour>
      <contour>
        <pt x="832" y="884" on="0"/>
        <pt x="954" y="996" on="0"/>
        <pt x="954" y="1125" on="1"/>
        <pt x="954" y="1218" on="0"/>
        <pt x="807" y="1304" on="0"/>
        <pt x="666" y="1304" on="1"/>
        <pt x="626" y="1304" on="0"/>
        <pt x="518" y="1298" on="0"/>
        <pt x="503" y="1291" on="1"/>
        <pt x="503" y="893" on="1"/>
        <pt x="530" y="888" on="0"/>
        <pt x="650" y="884" on="0"/>
        <pt x="694" y="884" on="1"/>
      </contour>
      <contour>
        <pt x="873" y="206" on="0"/>
        <pt x="1016" y="316" on="0"/>
        <pt x="1016" y="447" on="1"/>
        <pt x="1016" y="564" on="0"/>
        <pt x="875" y="671" on="0"/>
        <pt x="723" y="671" on="1"/>
        <pt x="665" y="671" on="0"/>
        <pt x="523" y="667" on="0"/>
        <pt x="503" y="664" on="1"/>
        <pt x="503" y="232" on="1"/>
        <pt x="522" y="217" on="0"/>
        <pt x="653" y="206" on="0"/>
        <pt x="724" y="206" on="1"/>
      </contour>
    </TTGlyph>
    <TTGlyph name="C" xMin="100" yMin="-16" xMax="1260" yMax="1538">
      <contour>
        <pt x="957" y="1538" on="0"/>
        <pt x="1104" y="1516" on="0"/>
        <pt x="1188" y="1495" on="1"/>
        <pt x="1249" y="1481" on="0"/>
        <pt x="1260" y="1479" on="1"/>
        <pt x="1214" y="1199" on="1"/>
        <pt x="1208" y="1202" on="0"/>
        <pt x="1116" y="1253" on="0"/>
        <pt x="960" y="1286" on="0"/>
        <pt x="866" y="1286" on="1"/>
        <pt x="742" y="1286" on="0"/>
        <pt x="543" y="1164" on="0"/>
        <pt x="428" y="933" on="0"/>
        <pt x="428" y="777" on="1"/>
        <pt x="428" y="619" on="0"/>
        <pt x="539" y="370" on="0"/>
        <pt x="748" y="230" on="0"/>
        <pt x="890" y="230" on="1"/>
        <pt x="955" y="230" on="0"/>
        <pt x="1098" y="261" on="0"/>
        <pt x="1215" y="306" on="0"/>
        <pt x="1243" y="326" on="1"/>
        <pt x="1244" y="64" on="1"/>
        <pt x="1181" y="39" on="0"/>
        <pt x="1084" y="7" on="0"/>
        <pt x="946" y="-16" on="0"/>
        <pt x="860" y="-16" on="1"/>
        <pt x="629" y="-16" on="0"/>
        <pt x="285" y="177" on="0"/>
        <pt x="100" y="527" on="0"/>
        <pt x="100" y="757" on="1"/>
        <pt x="100" y="1002" on="0"/>
        <pt x="297" y="1355" on="0"/>
        <pt x="636" y="1538" on="0"/>
        <pt x="846" y="1538" on="1"/>
      </contour>
    </TTGlyph>
    <TTGlyph name="Cacute" xMin="100" yMin="-16" xMax="1260" yMax="1980">
      <component glyphName="C" x="0" y="0" flags="0x0"/>
      <component glyphName="acute.cap" x="605" y="0" flags="0x0"/>
    </TTGlyph>
    <TTGlyph name="Ccaron" xMin="100" yMin="-16" xMax="1260" yMax="1960">
      <component glyphName="C" x="0" y="0" flags="0x0"/>
      <component glyphName="caron.cap" x="407" y="0" flags="0x0"/>
    </TTGlyph>
    <TTGlyph name="Ccedilla" xMin="100" yMin="-464" xMax="1260" yMax="1538">
      <contour>
        <pt x="1244" y="64" on="1"/>
        <pt x="1164" y="32" on="0"/>
        <pt x="1030" y="-6" on="0"/>
        <pt x="938" y="-13" on="1"/>
        <pt x="956" y="-53" on="0"/>
        <pt x="973" y="-164" on="0"/>
        <pt x="971" y="-221" on="1"/>
        <pt x="967" y="-343" on="0"/>
        <pt x="824" y="-464" on="0"/>
        <pt x="716" y="-464" on="1"/>
        <pt x="669" y="-464" on="0"/>
        <pt x="554" y="-447" on="0"/>
        <pt x="536" y="-436" on="1"/>
        <pt x="556" y="-271" on="1"/>
        <pt x="578" y="-285" on="0"/>
        <pt x="633" y="-285" on="1"/>
        <pt x="684" y="-285" on="0"/>
        <pt x="751" y="-209" on="0"/>
        <pt x="754" y="-135" on="1"/>
        <pt x="755" y="-123" on="0"/>
        <pt x="755" y="-101" on="1"/>
        <pt x="755" y="-46" on="0"/>
        <pt x="741" y="-9" on="1"/>
        <pt x="543" y="15" on="0"/>
        <pt x="254" y="218" on="0"/>
        <pt x="100" y="548" on="0"/>
        <pt x="100" y="757" on="1"/>
        <pt x="100" y="1002" on="0"/>
        <pt x="297" y="1355" on="0"/>
        <pt x="636" y="1538" on="0"/>
        <pt x="846" y="1538" on="1"/>
        <pt x="957" y="1538" on="0"/>
        <pt x="1104" y="1516" on="0"/>
        <pt x="1188" y="1495" on="1"/>
        <pt x="1249" y="1481" on="0"/>
        <pt x="1260" y="1479" on="1"/>
        <pt x="1214" y="1199" on="1"/>
        <pt x="1208" y="1202" on="0"/>
        <pt x="1116" y="1253" on="0"/>
        <pt x="960" y="1286" on="0"/>
        <pt x="866" y="1286" on="1"/>
        <pt x="742" y="1286" on="0"/>
        <pt x="543" y="1164" on="0"/>
        <pt x="428" y="933" on="0"/>
        <pt x="428" y="777" on="1"/>
        <pt x="428" y="619" on="0"/>
        <pt x="539" y="370" on="0"/>
        <pt x="748" y="230" on="0"/>
        <pt x="890" y="230" on="1"/>
        <pt x="955" y="230" on="0"/>
        <pt x="1098" y="261" on="0"/>
        <pt x="1215" y="306" on="0"/>
        <pt x="1243" y="326" on="1"/>
      </contour>
    </TTGlyph>
    <TTGlyph name="Ccircumflex" xMin="100" yMin="-16" xMax="1260" yMax="1959">
      <component glyphName="C" x="0" y="0" flags="0x0"/>
      <component glyphName="circumflex.cap" x="399" y="-1" flags="0x4"/>
    </TTGlyph>
    <TTGlyph name="Cdotaccent" xMin="100" yMin="-16" xMax="1260" yMax="1958">
      <component glyphName="dotaccent.cap" x="593" y="-1" flags="0x4"/>
      <component glyphName="C" x="0" y="0" flags="0x0"/>
    </TTGlyph>
    <TTGlyph name="D" xMin="188" yMin="-16" xMax="1454" yMax="1538">
      <contour>
        <pt x="339" y="1522" on="1"/>
        <pt x="371" y="1522" on="0"/>
        <pt x="467" y="1528" on="1"/>
        <pt x="601" y="1538" on="0"/>
        <pt x="708" y="1538" on="1"/>
        <pt x="1083" y="1538" on="0"/>
        <pt x="1454" y="1158" on="0"/>
        <pt x="1454" y="801" on="1"/>
        <pt x="1454" y="546" on="0"/>
        <pt x="1268" y="178" on="0"/>
        <pt x="925" y="-16" on="0"/>
        <pt x="693" y="-16" on="1"/>
        <pt x="621" y="-16" on="0"/>
        <pt x="479" y="-7" on="1"/>
        <pt x="392" y="0" on="0"/>
        <pt x="342" y="0" on="1"/>
        <pt x="188" y="0" on="1"/>
        <pt x="188" y="1522" on="1"/>
      </contour>
      <contour>
        <pt x="903" y="230" on="0"/>
        <pt x="1118" y="493" on="0"/>
        <pt x="1118" y="767" on="1"/>
        <pt x="1118" y="963" on="0"/>
        <pt x="1023" y="1196" on="0"/>
        <pt x="831" y="1298" on="0"/>
        <pt x="678" y="1298" on="1"/>
        <pt x="625" y="1298" on="0"/>
        <pt x="549" y="1288" on="1"/>
        <pt x="509" y="1284" on="1"/>
        <pt x="509" y="246" on="1"/>
        <pt x="577" y="228" on="0"/>
        <pt x="713" y="228" on="1"/>
      </contour>
    </TTGlyph>
    <TTGlyph name="Dcaron" xMin="188" yMin="-16" xMax="1454" yMax="1960">
      <component glyphName="caron.cap" x="341" y="0" flags="0x0"/>
      <component glyphName="D" x="0" y="0" flags="0x0"/>
    </TTGlyph>
    <TTGlyph name="Dcroat" xMin="69" yMin="-16" xMax="1454" yMax="1538">
      <contour>
        <pt x="1083" y="1538" on="0"/>
        <pt x="1454" y="1158" on="0"/>
        <pt x="1454" y="801" on="1"/>
        <pt x="1454" y="546" on="0"/>
        <pt x="1268" y="178" on="0"/>
        <pt x="925" y="-16" on="0"/>
        <pt x="693" y="-16" on="1"/>
        <pt x="621" y="-16" on="0"/>
        <pt x="479" y="-7" on="1"/>
        <pt x="392" y="0" on="0"/>
        <pt x="342" y="0" on="1"/>
        <pt x="188" y="0" on="1"/>
        <pt x="188" y="694" on="1"/>
        <pt x="69" y="694" on="1"/>
        <pt x="69" y="895" on="1"/>
        <pt x="188" y="895" on="1"/>
        <pt x="188" y="1522" on="1"/>
        <pt x="339" y="1522" on="1"/>
        <pt x="371" y="1522" on="0"/>
        <pt x="467" y="1528" on="1"/>
        <pt x="601" y="1538" on="0"/>
        <pt x="708" y="1538" on="1"/>
      </contour>
      <contour>
        <pt x="903" y="230" on="0"/>
        <pt x="1118" y="493" on="0"/>
        <pt x="1118" y="767" on="1"/>
        <pt x="1118" y="963" on="0"/>
        <pt x="1023" y="1196" on="0"/>
        <pt x="831" y="1298" on="0"/>
        <pt x="678" y="1298" on="1"/>
        <pt x="625" y="1298" on="0"/>
        <pt x="549" y="1288" on="1"/>
        <pt x="509" y="1284" on="1"/>
        <pt x="509" y="895" on="1"/>
        <pt x="846" y="895" on="1"/>
        <pt x="846" y="694" on="1"/>
        <pt x="509" y="694" on="1"/>
        <pt x="509" y="246" on="1"/>
        <pt x="577" y="228" on="0"/>
        <pt x="713" y="228" on="1"/>
      </contour>
    </TTGlyph>
    <TTGlyph name="E" xMin="188" yMin="0" xMax="1181" yMax="1522">
      <contour>
        <pt x="1116" y="1522" on="1"/>
        <pt x="1116" y="1278" on="1"/>
        <pt x="506" y="1278" on="1"/>
        <pt x="506" y="900" on="1"/>
        <pt x="974" y="900" on="1"/>
        <pt x="974" y="659" on="1"/>
        <pt x="506" y="659" on="1"/>
        <pt x="506" y="251" on="1"/>
        <pt x="1181" y="251" on="1"/>
        <pt x="1181" y="0" on="1"/>
        <pt x="188" y="0" on="1"/>
        <pt x="188" y="1522" on="1"/>
      </contour>
    </TTGlyph>
    <TTGlyph name="Eacute" xMin="188" yMin="0" xMax="1181" yMax="1980">
      <component glyphName="acute.cap" x="473" y="0" flags="0x0"/>
      <component glyphName="E" x="0" y="0" flags="0x0"/>
    </TTGlyph>
    <TTGlyph name="Ebreve" xMin="188" yMin="0" xMax="1181" yMax="1959">
      <component glyphName="breve.cap" x="291" y="-1" flags="0x4"/>
      <component glyphName="E" x="0" y="0" flags="0x0"/>
    </TTGlyph>
    <TTGlyph name="Ecaron" xMin="188" yMin="0" xMax="1181" yMax="1960">
      <component glyphName="caron.cap" x="275" y="0" flags="0x0"/>
      <component glyphName="E" x="0" y="0" flags="0x0"/>
    </TTGlyph>
    <TTGlyph name="Ecircumflex" xMin="188" yMin="0" xMax="1181" yMax="1959">
      <component glyphName="E" x="0" y="0" flags="0x0"/>
      <component glyphName="circumflex.cap" x="267" y="-1" flags="0x4"/>
    </TTGlyph>
    <TTGlyph name="Edieresis" xMin="188" yMin="0" xMax="1181" yMax="1960">
      <component glyphName="dieresis.cap" x="206" y="0" flags="0x0"/>
      <component glyphName="E" x="0" y="0" flags="0x0"/>
    </TTGlyph>
    <TTGlyph name="Edotaccent" xMin="188" yMin="0" xMax="1181" yMax="1958">
      <component glyphName="dotaccent.cap" x="461" y="-1" flags="0x4"/>
      <component glyphName="E" x="0" y="0" flags="0x0"/>
    </TTGlyph>
    <TTGlyph name="Egrave" xMin="188" yMin="0" xMax="1181" yMax="1980">
      <component glyphName="grave.cap" x="275" y="0" flags="0x0"/>
      <component glyphName="E" x="0" y="0" flags="0x0"/>
    </TTGlyph>
    <TTGlyph name="Emacron" xMin="188" yMin="0" xMax="1181" yMax="1892">
      <component glyphName="macron.cap" x="353" y="-1" flags="0x4"/>
      <component glyphName="E" x="0" y="0" flags="0x0"/>
    </TTGlyph>
    <TTGlyph name="Eng" xMin="187" yMin="-441" xMax="1432" yMax="1522">
      <contour>
        <pt x="1432" y="270" on="1"/>
        <pt x="1432" y="171" on="0"/>
        <pt x="1419" y="31" on="0"/>
        <pt x="1400" y="-37" on="1"/>
        <pt x="1369" y="-149" on="0"/>
        <pt x="1193" y="-329" on="0"/>
        <pt x="945" y="-435" on="0"/>
        <pt x="811" y="-441" on="1"/>
        <pt x="741" y="-316" on="1"/>
        <pt x="828" y="-291" on="0"/>
        <pt x="997" y="-184" on="0"/>
        <pt x="1105" y="-48" on="0"/>
        <pt x="1105" y="19" on="1"/>
        <pt x="579" y="861" on="1"/>
        <pt x="464" y="1092" on="1"/>
        <pt x="502" y="741" on="1"/>
        <pt x="502" y="0" on="1"/>
        <pt x="188" y="0" on="1"/>
        <pt x="187" y="1522" on="1"/>
        <pt x="495" y="1522" on="1"/>
        <pt x="1039" y="627" on="1"/>
        <pt x="1151" y="405" on="1"/>
        <pt x="1116" y="765" on="1"/>
        <pt x="1116" y="1522" on="1"/>
        <pt x="1431" y="1522" on="1"/>
        <pt x="1431" y="409" on="1"/>
      </contour>
    </TTGlyph>
    <TTGlyph name="Eogonek" xMin="188" yMin="-516" xMax="1187" yMax="1522">
      <contour>
        <pt x="1117" y="-311" on="0"/>
        <pt x="1187" y="-291" on="1"/>
        <pt x="1187" y="-448" on="1"/>
        <pt x="1144" y="-480" on="0"/>
        <pt x="1021" y="-516" on="0"/>
        <pt x="957" y="-516" on="1"/>
        <pt x="893" y="-516" on="0"/>
        <pt x="775" y="-468" on="0"/>
        <pt x="699" y="-377" on="0"/>
        <pt x="696" y="-316" on="1"/>
        <pt x="690" y="-214" on="0"/>
        <pt x="818" y="-52" on="0"/>
        <pt x="912" y="0" on="1"/>
        <pt x="188" y="0" on="1"/>
        <pt x="188" y="1522" on="1"/>
        <pt x="1116" y="1522" on="1"/>
        <pt x="1116" y="1278" on="1"/>
        <pt x="506" y="1278" on="1"/>
        <pt x="506" y="900" on="1"/>
        <pt x="974" y="900" on="1"/>
        <pt x="974" y="659" on="1"/>
        <pt x="506" y="659" on="1"/>
        <pt x="506" y="251" on="1"/>
        <pt x="1181" y="251" on="1"/>
        <pt x="1181" y="0" on="1"/>
        <pt x="1120" y="0" on="1"/>
        <pt x="1032" y="-57" on="0"/>
        <pt x="941" y="-152" on="0"/>
        <pt x="941" y="-212" on="1"/>
        <pt x="941" y="-311" on="0"/>
        <pt x="1062" y="-311" on="1"/>
      </contour>
    </TTGlyph>
    <TTGlyph name="Eth" xMin="69" yMin="-16" xMax="1454" yMax="1538">
      <contour>
        <pt x="1083" y="1538" on="0"/>
        <pt x="1454" y="1158" on="0"/>
        <pt x="1454" y="801" on="1"/>
        <pt x="1454" y="546" on="0"/>
        <pt x="1268" y="178" on="0"/>
        <pt x="925" y="-16" on="0"/>
        <pt x="693" y="-16" on="1"/>
        <pt x="621" y="-16" on="0"/>
        <pt x="479" y="-7" on="1"/>
        <pt x="392" y="0" on="0"/>
        <pt x="342" y="0" on="1"/>
        <pt x="188" y="0" on="1"/>
        <pt x="188" y="694" on="1"/>
        <pt x="69" y="694" on="1"/>
        <pt x="69" y="895" on="1"/>
        <pt x="188" y="895" on="1"/>
        <pt x="188" y="1522" on="1"/>
        <pt x="339" y="1522" on="1"/>
        <pt x="371" y="1522" on="0"/>
        <pt x="467" y="1528" on="1"/>
        <pt x="601" y="1538" on="0"/>
        <pt x="708" y="1538" on="1"/>
      </contour>
      <contour>
        <pt x="903" y="230" on="0"/>
        <pt x="1118" y="493" on="0"/>
        <pt x="1118" y="767" on="1"/>
        <pt x="1118" y="963" on="0"/>
        <pt x="1023" y="1196" on="0"/>
        <pt x="831" y="1298" on="0"/>
        <pt x="678" y="1298" on="1"/>
        <pt x="625" y="1298" on="0"/>
        <pt x="549" y="1288" on="1"/>
        <pt x="509" y="1284" on="1"/>
        <pt x="509" y="895" on="1"/>
        <pt x="846" y="895" on="1"/>
        <pt x="846" y="694" on="1"/>
        <pt x="509" y="694" on="1"/>
        <pt x="509" y="246" on="1"/>
        <pt x="577" y="228" on="0"/>
        <pt x="713" y="228" on="1"/>
      </contour>
    </TTGlyph>
    <TTGlyph name="Euro" xMin="92" yMin="-28" xMax="1380" yMax="1539">
      <contour>
        <pt x="1380" y="50" on="1"/>
        <pt x="1354" y="46" on="0"/>
        <pt x="1302" y="28" on="1"/>
        <pt x="1233" y="2" on="0"/>
        <pt x="1079" y="-28" on="0"/>
        <pt x="948" y="-28" on="1"/>
        <pt x="684" y="-28" on="0"/>
        <pt x="358" y="232" on="0"/>
        <pt x="305" y="472" on="1"/>
        <pt x="92" y="472" on="1"/>
        <pt x="92" y="664" on="1"/>
        <pt x="281" y="664" on="1"/>
        <pt x="280" y="682" on="0"/>
        <pt x="280" y="720" on="1"/>
        <pt x="280" y="795" on="0"/>
        <pt x="287" y="857" on="1"/>
        <pt x="129" y="857" on="1"/>
        <pt x="129" y="1049" on="1"/>
        <pt x="323" y="1049" on="1"/>
        <pt x="391" y="1281" on="0"/>
        <pt x="726" y="1530" on="0"/>
        <pt x="969" y="1538" on="1"/>
        <pt x="985" y="1539" on="0"/>
        <pt x="1015" y="1539" on="1"/>
        <pt x="1107" y="1539" on="0"/>
        <pt x="1227" y="1516" on="0"/>
        <pt x="1292" y="1495" on="1"/>
        <pt x="1329" y="1483" on="0"/>
        <pt x="1354" y="1477" on="1"/>
        <pt x="1301" y="1234" on="1"/>
        <pt x="1239" y="1270" on="0"/>
        <pt x="1112" y="1302" on="0"/>
        <pt x="995" y="1302" on="1"/>
        <pt x="872" y="1302" on="0"/>
        <pt x="694" y="1176" on="0"/>
        <pt x="650" y="1049" on="1"/>
        <pt x="1146" y="1049" on="1"/>
        <pt x="1146" y="857" on="1"/>
        <pt x="614" y="857" on="1"/>
        <pt x="612" y="813" on="0"/>
        <pt x="612" y="789" on="1"/>
        <pt x="612" y="717" on="0"/>
        <pt x="616" y="664" on="1"/>
        <pt x="1097" y="664" on="1"/>
        <pt x="1097" y="472" on="1"/>
        <pt x="645" y="472" on="1"/>
        <pt x="681" y="340" on="0"/>
        <pt x="849" y="201" on="0"/>
        <pt x="995" y="201" on="1"/>
        <pt x="1091" y="201" on="0"/>
        <pt x="1268" y="248" on="0"/>
        <pt x="1320" y="284" on="1"/>
      </contour>
    </TTGlyph>
    <TTGlyph name="F" xMin="188" yMin="0" xMax="1111" yMax="1522">
      <contour>
        <pt x="1111" y="1522" on="1"/>
        <pt x="1111" y="1278" on="1"/>
        <pt x="510" y="1278" on="1"/>
        <pt x="510" y="879" on="1"/>
        <pt x="952" y="879" on="1"/>
        <pt x="952" y="634" on="1"/>
        <pt x="510" y="634" on="1"/>
        <pt x="510" y="0" on="1"/>
        <pt x="188" y="0" on="1"/>
        <pt x="188" y="1522" on="1"/>
      </contour>
    </TTGlyph>
    <TTGlyph name="G" xMin="100" yMin="-16" xMax="1372" yMax="1538">
      <contour>
        <pt x="1372" y="820" on="1"/>
        <pt x="1372" y="90" on="1"/>
        <pt x="1352" y="89" on="0"/>
        <pt x="1306" y="75" on="0"/>
        <pt x="1265" y="61" on="1"/>
        <pt x="1164" y="26" on="0"/>
        <pt x="971" y="-16" on="0"/>
        <pt x="827" y="-16" on="1"/>
        <pt x="599" y="-16" on="0"/>
        <pt x="271" y="173" on="0"/>
        <pt x="100" y="520" on="0"/>
        <pt x="100" y="753" on="1"/>
        <pt x="100" y="1017" on="0"/>
        <pt x="297" y="1369" on="0"/>
        <pt x="639" y="1538" on="0"/>
        <pt x="859" y="1538" on="1"/>
        <pt x="975" y="1538" on="0"/>
        <pt x="1115" y="1518" on="0"/>
        <pt x="1198" y="1498" on="1"/>
        <pt x="1249" y="1485" on="0"/>
        <pt x="1289" y="1478" on="1"/>
        <pt x="1279" y="1205" on="1"/>
        <pt x="1195" y="1245" on="0"/>
        <pt x="1013" y="1286" on="0"/>
        <pt x="860" y="1286" on="1"/>
        <pt x="728" y="1286" on="0"/>
        <pt x="535" y="1165" on="0"/>
        <pt x="431" y="938" on="0"/>
        <pt x="431" y="780" on="1"/>
        <pt x="431" y="622" on="0"/>
        <pt x="515" y="373" on="0"/>
        <pt x="687" y="228" on="0"/>
        <pt x="815" y="228" on="1"/>
        <pt x="968" y="228" on="0"/>
        <pt x="1070" y="266" on="1"/>
        <pt x="1070" y="571" on="1"/>
        <pt x="837" y="583" on="1"/>
        <pt x="837" y="820" on="1"/>
      </contour>
    </TTGlyph>
    <TTGlyph name="Gbreve" xMin="100" yMin="-16" xMax="1372" yMax="1960">
      <component glyphName="breve.cap" x="432" y="0" flags="0x0"/>
      <component glyphName="G" x="0" y="0" flags="0x0"/>
    </TTGlyph>
    <TTGlyph name="Gcaron" xMin="100" yMin="-16" xMax="1372" yMax="1961">
      <component glyphName="G" x="0" y="0" flags="0x0"/>
      <component glyphName="caron.cap" x="416" y="1" flags="0x4"/>
    </TTGlyph>
    <TTGlyph name="Gcircumflex" xMin="100" yMin="-16" xMax="1372" yMax="1960">
      <component glyphName="G" x="0" y="0" flags="0x0"/>
      <component glyphName="circumflex.cap" x="408" y="0" flags="0x0"/>
    </TTGlyph>
    <TTGlyph name="Gcommaaccent" xMin="100" yMin="-560" xMax="1372" yMax="1538">
      <component glyphName="uni0326" x="1055" y="0" flags="0x0"/>
      <component glyphName="G" x="0" y="0" flags="0x0"/>
    </TTGlyph>
    <TTGlyph name="Gdotaccent" xMin="100" yMin="-16" xMax="1372" yMax="1959">
      <component glyphName="dotaccent.cap" x="602" y="0" flags="0x0"/>
      <component glyphName="G" x="0" y="0" flags="0x0"/>
    </TTGlyph>
    <TTGlyph name="Gtilde" xMin="100" yMin="-16" xMax="1372" yMax="1958">
      <component glyphName="G" x="0" y="0" flags="0x0"/>
      <component glyphName="tilde.cap" x="375" y="0" flags="0x0"/>
    </TTGlyph>
    <TTGlyph name="H" xMin="188" yMin="0" xMax="1413" yMax="1522">
      <contour>
        <pt x="506" y="1522" on="1"/>
        <pt x="506" y="890" on="1"/>
        <pt x="1099" y="890" on="1"/>
        <pt x="1099" y="1522" on="1"/>
        <pt x="1413" y="1522" on="1"/>
        <pt x="1413" y="0" on="1"/>
        <pt x="1099" y="0" on="1"/>
        <pt x="1099" y="651" on="1"/>
        <pt x="506" y="651" on="1"/>
        <pt x="506" y="0" on="1"/>
        <pt x="188" y="0" on="1"/>
        <pt x="188" y="1522" on="1"/>
      </contour>
    </TTGlyph>
    <TTGlyph name="Hbar" xMin="24" yMin="0" xMax="1599" yMax="1522">
      <contour>
        <pt x="1599" y="1045" on="1"/>
        <pt x="1433" y="1045" on="1"/>
        <pt x="1433" y="0" on="1"/>
        <pt x="1111" y="0" on="1"/>
        <pt x="1111" y="621" on="1"/>
        <pt x="510" y="621" on="1"/>
        <pt x="510" y="0" on="1"/>
        <pt x="188" y="0" on="1"/>
        <pt x="188" y="1045" on="1"/>
        <pt x="24" y="1045" on="1"/>
        <pt x="24" y="1237" on="1"/>
        <pt x="188" y="1237" on="1"/>
        <pt x="188" y="1522" on="1"/>
        <pt x="510" y="1522" on="1"/>
        <pt x="510" y="1237" on="1"/>
        <pt x="1111" y="1237" on="1"/>
        <pt x="1111" y="1522" on="1"/>
        <pt x="1433" y="1522" on="1"/>
        <pt x="1433" y="1237" on="1"/>
        <pt x="1599" y="1237" on="1"/>
      </contour>
      <contour>
        <pt x="1111" y="1045" on="1"/>
        <pt x="510" y="1045" on="1"/>
        <pt x="510" y="854" on="1"/>
        <pt x="1111" y="854" on="1"/>
      </contour>
    </TTGlyph>
    <TTGlyph name="Hcircumflex" xMin="188" yMin="0" xMax="1413" yMax="1959">
      <component glyphName="H" x="0" y="0" flags="0x0"/>
      <component glyphName="circumflex.cap" x="367" y="-1" flags="0x4"/>
    </TTGlyph>
    <TTGlyph name="I" xMin="201" yMin="0" xMax="521" yMax="1522">
      <contour>
        <pt x="521" y="1522" on="1"/>
        <pt x="521" y="0" on="1"/>
        <pt x="201" y="0" on="1"/>
        <pt x="201" y="1522" on="1"/>
      </contour>
    </TTGlyph>
    <TTGlyph name="I.uc" xMin="186" yMin="0" xMax="547" yMax="1958">
      <component glyphName="I" x="0" y="0" flags="0x0"/>
      <component glyphName="dotaccent.cap" x="122" y="-1" flags="0x4"/>
    </TTGlyph>
    <TTGlyph name="IJ" xMin="201" yMin="-332" xMax="1322" yMax="1522">
      <component glyphName="I" x="0" y="0" flags="0x0"/>
      <component glyphName="J" x="722" y="0" flags="0x0"/>
    </TTGlyph>
    <TTGlyph name="IJ_acutecomb" xMin="201" yMin="-332" xMax="1479" yMax="2000">
      <contour>
        <pt x="1038" y="1754" on="0"/>
        <pt x="1251" y="1968" on="0"/>
        <pt x="1262" y="2000" on="1"/>
        <pt x="1479" y="1869" on="1"/>
        <pt x="1435" y="1812" on="0"/>
        <pt x="1299" y="1681" on="0"/>
        <pt x="1160" y="1579" on="0"/>
        <pt x="1113" y="1563" on="1"/>
        <pt x="967" y="1688" on="1"/>
      </contour>
      <contour>
        <pt x="290" y="1753" on="0"/>
        <pt x="503" y="1967" on="0"/>
        <pt x="514" y="1999" on="1"/>
        <pt x="731" y="1868" on="1"/>
        <pt x="687" y="1811" on="0"/>
        <pt x="551" y="1680" on="0"/>
        <pt x="412" y="1578" on="0"/>
        <pt x="365" y="1562" on="1"/>
        <pt x="219" y="1687" on="1"/>
      </contour>
      <contour>
        <pt x="521" y="1522" on="1"/>
        <pt x="521" y="0" on="1"/>
        <pt x="201" y="0" on="1"/>
        <pt x="201" y="1522" on="1"/>
      </contour>
      <contour>
        <pt x="803" y="-130" on="0"/>
        <pt x="943" y="6" on="0"/>
        <pt x="969" y="117" on="1"/>
        <pt x="988" y="196" on="0"/>
        <pt x="1001" y="429" on="0"/>
        <pt x="1001" y="608" on="1"/>
        <pt x="1001" y="1522" on="1"/>
        <pt x="1321" y="1522" on="1"/>
        <pt x="1321" y="613" on="1"/>
        <pt x="1322" y="390" on="1"/>
        <pt x="1322" y="295" on="0"/>
        <pt x="1314" y="152" on="0"/>
        <pt x="1302" y="91" on="1"/>
        <pt x="1277" y="-40" on="0"/>
        <pt x="1103" y="-230" on="0"/>
        <pt x="882" y="-329" on="0"/>
        <pt x="789" y="-332" on="1"/>
        <pt x="712" y="-164" on="1"/>
      </contour>
    </TTGlyph>
    <TTGlyph name="Iacute" xMin="201" yMin="0" xMax="731" yMax="1980">
      <component glyphName="I" x="0" y="0" flags="0x0"/>
      <component glyphName="acute.cap" x="134" y="0" flags="0x0"/>
    </TTGlyph>
    <TTGlyph name="Ibreve" xMin="-8" yMin="0" xMax="727" yMax="1959">
      <component glyphName="I" x="0" y="0" flags="0x0"/>
      <component glyphName="breve.cap" x="-48" y="-1" flags="0x4"/>
    </TTGlyph>
    <TTGlyph name="Icircumflex" xMin="-23" yMin="0" xMax="747" yMax="1959">
      <component glyphName="I" x="0" y="0" flags="0x0"/>
      <component glyphName="circumflex.cap" x="-72" y="-1" flags="0x4"/>
    </TTGlyph>
    <TTGlyph name="Idieresis" xMin="-78" yMin="0" xMax="800" yMax="1960">
      <component glyphName="I" x="0" y="0" flags="0x0"/>
      <component glyphName="dieresis.cap" x="-133" y="0" flags="0x0"/>
    </TTGlyph>
    <TTGlyph name="Idotaccent" xMin="186" yMin="0" xMax="547" yMax="1958">
      <component glyphName="I" x="0" y="0" flags="0x0"/>
      <component glyphName="dotaccent.cap" x="122" y="-1" flags="0x4"/>
    </TTGlyph>
    <TTGlyph name="Igrave" xMin="-7" yMin="0" xMax="521" yMax="1980">
      <component glyphName="I" x="0" y="0" flags="0x0"/>
      <component glyphName="grave.cap" x="-64" y="0" flags="0x0"/>
    </TTGlyph>
    <TTGlyph name="Imacron" xMin="69" yMin="0" xMax="660" yMax="1892">
      <component glyphName="I" x="0" y="0" flags="0x0"/>
      <component glyphName="macron.cap" x="14" y="-1" flags="0x4"/>
    </TTGlyph>
    <TTGlyph name="Iogonek" xMin="35" yMin="-516" xMax="532" yMax="1522">
      <contour>
        <pt x="462" y="-311" on="0"/>
        <pt x="532" y="-291" on="1"/>
        <pt x="532" y="-448" on="1"/>
        <pt x="489" y="-480" on="0"/>
        <pt x="366" y="-516" on="0"/>
        <pt x="302" y="-516" on="1"/>
        <pt x="238" y="-516" on="0"/>
        <pt x="120" y="-468" on="0"/>
        <pt x="44" y="-377" on="0"/>
        <pt x="41" y="-316" on="1"/>
        <pt x="35" y="-214" on="0"/>
        <pt x="163" y="-52" on="0"/>
        <pt x="257" y="0" on="1"/>
        <pt x="201" y="0" on="1"/>
        <pt x="201" y="1522" on="1"/>
        <pt x="521" y="1522" on="1"/>
        <pt x="521" y="0" on="1"/>
        <pt x="465" y="0" on="1"/>
        <pt x="377" y="-57" on="0"/>
        <pt x="286" y="-152" on="0"/>
        <pt x="286" y="-212" on="1"/>
        <pt x="286" y="-311" on="0"/>
        <pt x="407" y="-311" on="1"/>
      </contour>
    </TTGlyph>
    <TTGlyph name="Itilde" xMin="-73" yMin="0" xMax="803" yMax="1957">
      <component glyphName="I" x="0" y="0" flags="0x0"/>
      <component glyphName="tilde.cap" x="-105" y="-1" flags="0x4"/>
    </TTGlyph>
    <TTGlyph name="J" xMin="-10" yMin="-332" xMax="600" yMax="1522">
      <contour>
        <pt x="81" y="-130" on="0"/>
        <pt x="221" y="6" on="0"/>
        <pt x="247" y="117" on="1"/>
        <pt x="266" y="196" on="0"/>
        <pt x="279" y="429" on="0"/>
        <pt x="279" y="608" on="1"/>
        <pt x="279" y="1522" on="1"/>
        <pt x="599" y="1522" on="1"/>
        <pt x="599" y="613" on="1"/>
        <pt x="600" y="390" on="1"/>
        <pt x="600" y="295" on="0"/>
        <pt x="592" y="152" on="0"/>
        <pt x="580" y="91" on="1"/>
        <pt x="555" y="-40" on="0"/>
        <pt x="381" y="-230" on="0"/>
        <pt x="160" y="-329" on="0"/>
        <pt x="67" y="-332" on="1"/>
        <pt x="-10" y="-164" on="1"/>
      </contour>
    </TTGlyph>
    <TTGlyph name="Jcircumflex" xMin="-10" yMin="-332" xMax="818" yMax="1960">
      <component glyphName="J" x="0" y="0" flags="0x0"/>
      <component glyphName="circumflex.cap" x="-1" y="0" flags="0x0"/>
    </TTGlyph>
    <TTGlyph name="K" xMin="188" yMin="0" xMax="1411" yMax="1522">
      <contour>
        <pt x="1411" y="0" on="1"/>
        <pt x="1057" y="0" on="1"/>
        <pt x="1046" y="16" on="0"/>
        <pt x="1028" y="51" on="1"/>
        <pt x="1023" y="61" on="0"/>
        <pt x="1007" y="91" on="0"/>
        <pt x="994" y="113" on="1"/>
        <pt x="919" y="248" on="0"/>
        <pt x="742" y="532" on="0"/>
        <pt x="663" y="646" on="1"/>
        <pt x="506" y="469" on="1"/>
        <pt x="506" y="0" on="1"/>
        <pt x="188" y="0" on="1"/>
        <pt x="188" y="1522" on="1"/>
        <pt x="506" y="1522" on="1"/>
        <pt x="506" y="848" on="1"/>
        <pt x="1041" y="1522" on="1"/>
        <pt x="1391" y="1522" on="1"/>
        <pt x="877" y="878" on="1"/>
        <pt x="943" y="780" on="0"/>
        <pt x="1247" y="281" on="0"/>
        <pt x="1346" y="110" on="1"/>
      </contour>
    </TTGlyph>
    <TTGlyph name="Kcommaaccent" xMin="188" yMin="-560" xMax="1411" yMax="1522">
      <component glyphName="uni0326" x="982" y="0" flags="0x0"/>
      <component glyphName="K" x="0" y="0" flags="0x0"/>
    </TTGlyph>
    <TTGlyph name="L" xMin="188" yMin="0" xMax="1054" yMax="1522">
      <contour>
        <pt x="506" y="1522" on="1"/>
        <pt x="506" y="242" on="1"/>
        <pt x="1054" y="242" on="1"/>
        <pt x="1054" y="0" on="1"/>
        <pt x="188" y="0" on="1"/>
        <pt x="188" y="1522" on="1"/>
      </contour>
    </TTGlyph>
    <TTGlyph name="Lacute" xMin="188" yMin="0" xMax="1054" yMax="1980">
      <component glyphName="acute.cap" x="122" y="0" flags="0x0"/>
      <component glyphName="L" x="0" y="0" flags="0x0"/>
    </TTGlyph>
    <TTGlyph name="Lcaron" xMin="188" yMin="0" xMax="1099" yMax="1708">
      <component glyphName="L" x="0" y="0" flags="0x0"/>
      <component glyphName="caronvertical" x="736" y="0" flags="0x0"/>
    </TTGlyph>
    <TTGlyph name="Lcommaaccent" xMin="188" yMin="-560" xMax="1054" yMax="1522">
      <component glyphName="uni0326" x="848" y="0" flags="0x0"/>
      <component glyphName="L" x="0" y="0" flags="0x0"/>
    </TTGlyph>
    <TTGlyph name="Ldot" xMin="188" yMin="0" xMax="1272" yMax="1522">
      <component glyphName="period" x="757" y="674" flags="0x4"/>
      <component glyphName="L" x="0" y="0" flags="0x0"/>
    </TTGlyph>
    <TTGlyph name="Lslash" xMin="25" yMin="0" xMax="1054" yMax="1522">
      <contour>
        <pt x="1054" y="242" on="1"/>
        <pt x="1054" y="0" on="1"/>
        <pt x="188" y="0" on="1"/>
        <pt x="188" y="604" on="1"/>
        <pt x="90" y="568" on="1"/>
        <pt x="25" y="738" on="1"/>
        <pt x="188" y="798" on="1"/>
        <pt x="188" y="1522" on="1"/>
        <pt x="506" y="1522" on="1"/>
        <pt x="506" y="915" on="1"/>
        <pt x="819" y="1031" on="1"/>
        <pt x="884" y="859" on="1"/>
        <pt x="506" y="720" on="1"/>
        <pt x="506" y="242" on="1"/>
      </contour>
    </TTGlyph>
    <TTGlyph name="M" xMin="70" yMin="-15" xMax="1816" yMax="1522">
      <contour>
        <pt x="679" y="1522" on="1"/>
        <pt x="882" y="722" on="1"/>
        <pt x="959" y="386" on="1"/>
        <pt x="1017" y="722" on="1"/>
        <pt x="1200" y="1522" on="1"/>
        <pt x="1634" y="1522" on="1"/>
        <pt x="1816" y="0" on="1"/>
        <pt x="1504" y="0" on="1"/>
        <pt x="1429" y="816" on="1"/>
        <pt x="1402" y="1282" on="1"/>
        <pt x="1290" y="816" on="1"/>
        <pt x="1072" y="-15" on="1"/>
        <pt x="820" y="-15" on="1"/>
        <pt x="579" y="816" on="1"/>
        <pt x="466" y="1282" on="1"/>
        <pt x="430" y="816" on="1"/>
        <pt x="365" y="0" on="1"/>
        <pt x="70" y="-1" on="1"/>
        <pt x="232" y="1522" on="1"/>
      </contour>
    </TTGlyph>
    <TTGlyph name="N" xMin="188" yMin="0" xMax="1432" yMax="1522">
      <contour>
        <pt x="1432" y="1522" on="1"/>
        <pt x="1432" y="0" on="1"/>
        <pt x="1113" y="0" on="1"/>
        <pt x="570" y="861" on="1"/>
        <pt x="450" y="1104" on="1"/>
        <pt x="484" y="741" on="1"/>
        <pt x="484" y="0" on="1"/>
        <pt x="188" y="0" on="1"/>
        <pt x="188" y="1522" on="1"/>
        <pt x="483" y="1522" on="1"/>
        <pt x="1050" y="627" on="1"/>
        <pt x="1165" y="399" on="1"/>
        <pt x="1136" y="765" on="1"/>
        <pt x="1136" y="1522" on="1"/>
      </contour>
    </TTGlyph>
    <TTGlyph name="Nacute" xMin="188" yMin="0" xMax="1432" yMax="1980">
      <component glyphName="acute.cap" x="583" y="0" flags="0x0"/>
      <component glyphName="N" x="0" y="0" flags="0x0"/>
    </TTGlyph>
    <TTGlyph name="Ncaron" xMin="188" yMin="0" xMax="1432" yMax="1960">
      <component glyphName="caron.cap" x="385" y="0" flags="0x0"/>
      <component glyphName="N" x="0" y="0" flags="0x0"/>
    </TTGlyph>
    <TTGlyph name="Ncommaaccent" xMin="188" yMin="-560" xMax="1432" yMax="1522">
      <component glyphName="uni0326" x="1013" y="0" flags="0x0"/>
      <component glyphName="N" x="0" y="0" flags="0x0"/>
    </TTGlyph>
    <TTGlyph name="Ntilde" xMin="188" yMin="0" xMax="1432" yMax="1957">
      <component glyphName="tilde.cap" x="344" y="-1" flags="0x4"/>
      <component glyphName="N" x="0" y="0" flags="0x0"/>
    </TTGlyph>
    <TTGlyph name="O" xMin="94" yMin="-16" xMax="1501" yMax="1544">
      <contour>
        <pt x="103" y="1025" on="0"/>
        <pt x="288" y="1364" on="0"/>
        <pt x="609" y="1532" on="0"/>
        <pt x="821" y="1538" on="1"/>
        <pt x="1028" y="1544" on="0"/>
        <pt x="1338" y="1352" on="0"/>
        <pt x="1501" y="996" on="0"/>
        <pt x="1497" y="763" on="1"/>
        <pt x="1492" y="503" on="0"/>
        <pt x="1308" y="154" on="0"/>
        <pt x="986" y="-16" on="0"/>
        <pt x="773" y="-16" on="1"/>
        <pt x="563" y="-16" on="0"/>
        <pt x="254" y="183" on="0"/>
        <pt x="94" y="539" on="0"/>
        <pt x="98" y="769" on="1"/>
      </contour>
      <contour>
        <pt x="1168" y="926" on="0"/>
        <pt x="1089" y="1162" on="0"/>
        <pt x="930" y="1296" on="0"/>
        <pt x="814" y="1296" on="1"/>
        <pt x="703" y="1296" on="0"/>
        <pt x="529" y="1186" on="0"/>
        <pt x="427" y="946" on="0"/>
        <pt x="427" y="758" on="1"/>
        <pt x="427" y="605" on="0"/>
        <pt x="510" y="361" on="0"/>
        <pt x="677" y="221" on="0"/>
        <pt x="798" y="221" on="1"/>
        <pt x="973" y="221" on="0"/>
        <pt x="1168" y="495" on="0"/>
        <pt x="1168" y="773" on="1"/>
      </contour>
    </TTGlyph>
    <TTGlyph name="OE" xMin="106" yMin="-16" xMax="2047" yMax="1538">
      <contour>
        <pt x="2047" y="251" on="1"/>
        <pt x="2047" y="0" on="1"/>
        <pt x="1054" y="0" on="1"/>
        <pt x="1054" y="42" on="1"/>
        <pt x="950" y="-16" on="0"/>
        <pt x="784" y="-16" on="1"/>
        <pt x="576" y="-16" on="0"/>
        <pt x="269" y="179" on="0"/>
        <pt x="106" y="525" on="0"/>
        <pt x="106" y="746" on="1"/>
        <pt x="106" y="999" on="0"/>
        <pt x="293" y="1356" on="0"/>
        <pt x="620" y="1538" on="0"/>
        <pt x="828" y="1538" on="1"/>
        <pt x="963" y="1538" on="0"/>
        <pt x="1054" y="1492" on="1"/>
        <pt x="1054" y="1522" on="1"/>
        <pt x="1982" y="1522" on="1"/>
        <pt x="1982" y="1278" on="1"/>
        <pt x="1372" y="1278" on="1"/>
        <pt x="1372" y="904" on="1"/>
        <pt x="1822" y="904" on="1"/>
        <pt x="1822" y="663" on="1"/>
        <pt x="1372" y="663" on="1"/>
        <pt x="1372" y="251" on="1"/>
      </contour>
      <contour>
        <pt x="889" y="221" on="0"/>
        <pt x="1011" y="266" on="0"/>
        <pt x="1054" y="319" on="1"/>
        <pt x="1054" y="1190" on="1"/>
        <pt x="961" y="1296" on="0"/>
        <pt x="820" y="1296" on="1"/>
        <pt x="715" y="1296" on="0"/>
        <pt x="541" y="1198" on="0"/>
        <pt x="431" y="958" on="0"/>
        <pt x="431" y="758" on="1"/>
        <pt x="431" y="597" on="0"/>
        <pt x="518" y="354" on="0"/>
        <pt x="686" y="221" on="0"/>
        <pt x="804" y="221" on="1"/>
      </contour>
    </TTGlyph>
    <TTGlyph name="Oacute" xMin="94" yMin="-16" xMax="1501" yMax="2016">
      <component glyphName="acute.cap" x="596" y="36" flags="0x4"/>
      <component glyphName="O" x="0" y="0" flags="0x0"/>
    </TTGlyph>
    <TTGlyph name="Obreve" xMin="94" yMin="-16" xMax="1501" yMax="1959">
      <component glyphName="breve.cap" x="414" y="-1" flags="0x4"/>
      <component glyphName="O" x="0" y="0" flags="0x0"/>
    </TTGlyph>
    <TTGlyph name="Ocircumflex" xMin="94" yMin="-16" xMax="1501" yMax="1959">
      <component glyphName="O" x="0" y="0" flags="0x0"/>
      <component glyphName="circumflex.cap" x="390" y="-1" flags="0x4"/>
    </TTGlyph>
    <TTGlyph name="Odieresis" xMin="94" yMin="-16" xMax="1501" yMax="1960">
      <component glyphName="dieresis.cap" x="329" y="0" flags="0x0"/>
      <component glyphName="O" x="0" y="0" flags="0x0"/>
    </TTGlyph>
    <TTGlyph name="Ograve" xMin="94" yMin="-16" xMax="1501" yMax="1980">
      <component glyphName="grave.cap" x="398" y="0" flags="0x0"/>
      <component glyphName="O" x="0" y="0" flags="0x0"/>
    </TTGlyph>
    <TTGlyph name="Ohungarumlaut" xMin="94" yMin="-16" xMax="1501" yMax="1959">
      <component glyphName="O" x="0" y="0" flags="0x0"/>
      <component glyphName="hungarumlaut.cap" x="403" y="-1" flags="0x4"/>
    </TTGlyph>
    <TTGlyph name="Omacron" xMin="94" yMin="-16" xMax="1501" yMax="1892">
      <component glyphName="macron.cap" x="476" y="-1" flags="0x4"/>
      <component glyphName="O" x="0" y="0" flags="0x0"/>
    </TTGlyph>
    <TTGlyph name="Oslash" xMin="95" yMin="-220" xMax="1497" yMax="1781">
      <contour>
        <pt x="1239" y="1428" on="0"/>
        <pt x="1408" y="1228" on="0"/>
        <pt x="1497" y="952" on="0"/>
        <pt x="1497" y="787" on="1"/>
        <pt x="1497" y="519" on="0"/>
        <pt x="1314" y="160" on="0"/>
        <pt x="987" y="-16" on="0"/>
        <pt x="771" y="-16" on="1"/>
        <pt x="673" y="-16" on="0"/>
        <pt x="584" y="7" on="1"/>
        <pt x="501" y="-220" on="1"/>
        <pt x="376" y="-188" on="1"/>
        <pt x="464" y="52" on="1"/>
        <pt x="346" y="111" on="0"/>
        <pt x="179" y="320" on="0"/>
        <pt x="95" y="602" on="0"/>
        <pt x="98" y="769" on="1"/>
        <pt x="103" y="1025" on="0"/>
        <pt x="288" y="1364" on="0"/>
        <pt x="609" y="1532" on="0"/>
        <pt x="821" y="1538" on="1"/>
        <pt x="911" y="1541" on="0"/>
        <pt x="999" y="1522" on="1"/>
        <pt x="1093" y="1781" on="1"/>
        <pt x="1218" y="1749" on="1"/>
        <pt x="1121" y="1481" on="1"/>
      </contour>
      <contour>
        <pt x="427" y="620" on="0"/>
        <pt x="496" y="394" on="0"/>
        <pt x="562" y="322" on="1"/>
        <pt x="911" y="1282" on="1"/>
        <pt x="864" y="1296" on="0"/>
        <pt x="814" y="1296" on="1"/>
        <pt x="703" y="1296" on="0"/>
        <pt x="529" y="1186" on="0"/>
        <pt x="427" y="946" on="0"/>
        <pt x="427" y="758" on="1"/>
      </contour>
      <contour>
        <pt x="973" y="221" on="0"/>
        <pt x="1168" y="495" on="0"/>
        <pt x="1168" y="773" on="1"/>
        <pt x="1168" y="919" on="0"/>
        <pt x="1095" y="1149" on="0"/>
        <pt x="1024" y="1216" on="1"/>
        <pt x="670" y="245" on="1"/>
        <pt x="727" y="221" on="0"/>
        <pt x="798" y="221" on="1"/>
      </contour>
    </TTGlyph>
    <TTGlyph name="Oslashacute" xMin="95" yMin="-220" xMax="1497" yMax="2016">
      <component glyphName="acute.cap" x="514" y="36" flags="0x4"/>
      <component glyphName="Oslash" x="0" y="0" flags="0x0"/>
    </TTGlyph>
    <TTGlyph name="Otilde" xMin="94" yMin="-16" xMax="1501" yMax="1957">
      <component glyphName="tilde.cap" x="357" y="-1" flags="0x4"/>
      <component glyphName="O" x="0" y="0" flags="0x0"/>
    </TTGlyph>
    <TTGlyph name="P" xMin="188" yMin="0" xMax="1289" yMax="1538">
      <contour>
        <pt x="284" y="1522" on="1"/>
        <pt x="375" y="1522" on="0"/>
        <pt x="525" y="1530" on="1"/>
        <pt x="665" y="1538" on="0"/>
        <pt x="733" y="1538" on="1"/>
        <pt x="1004" y="1538" on="0"/>
        <pt x="1289" y="1286" on="0"/>
        <pt x="1289" y="1013" on="1"/>
        <pt x="1289" y="839" on="0"/>
        <pt x="1148" y="591" on="0"/>
        <pt x="875" y="461" on="0"/>
        <pt x="680" y="461" on="1"/>
        <pt x="576" y="461" on="0"/>
        <pt x="506" y="463" on="1"/>
        <pt x="506" y="0" on="1"/>
        <pt x="188" y="0" on="1"/>
        <pt x="188" y="1522" on="1"/>
      </contour>
      <contour>
        <pt x="806" y="702" on="0"/>
        <pt x="973" y="844" on="0"/>
        <pt x="973" y="1017" on="1"/>
        <pt x="973" y="1162" on="0"/>
        <pt x="817" y="1313" on="0"/>
        <pt x="669" y="1307" on="1"/>
        <pt x="611" y="1305" on="0"/>
        <pt x="538" y="1300" on="0"/>
        <pt x="506" y="1293" on="1"/>
        <pt x="506" y="710" on="1"/>
        <pt x="571" y="702" on="0"/>
        <pt x="672" y="702" on="1"/>
      </contour>
    </TTGlyph>
    <TTGlyph name="Q" xMin="94" yMin="-326" xMax="1550" yMax="1544">
      <contour>
        <pt x="1392" y="-81" on="0"/>
        <pt x="1518" y="-67" on="0"/>
        <pt x="1550" y="-56" on="1"/>
        <pt x="1550" y="-275" on="1"/>
        <pt x="1526" y="-292" on="0"/>
        <pt x="1377" y="-326" on="0"/>
        <pt x="1310" y="-326" on="1"/>
        <pt x="1070" y="-326" on="0"/>
        <pt x="770" y="-185" on="0"/>
        <pt x="715" y="-14" on="1"/>
        <pt x="522" y="0" on="0"/>
        <pt x="240" y="205" on="0"/>
        <pt x="94" y="550" on="0"/>
        <pt x="98" y="769" on="1"/>
        <pt x="103" y="1025" on="0"/>
        <pt x="288" y="1364" on="0"/>
        <pt x="609" y="1532" on="0"/>
        <pt x="821" y="1538" on="1"/>
        <pt x="1025" y="1544" on="0"/>
        <pt x="1331" y="1358" on="0"/>
        <pt x="1497" y="1013" on="0"/>
        <pt x="1497" y="786" on="1"/>
        <pt x="1497" y="566" on="0"/>
        <pt x="1371" y="244" on="0"/>
        <pt x="1143" y="47" on="0"/>
        <pt x="987" y="9" on="1"/>
        <pt x="1017" y="-30" on="0"/>
        <pt x="1120" y="-69" on="0"/>
        <pt x="1250" y="-81" on="0"/>
        <pt x="1348" y="-81" on="1"/>
      </contour>
      <contour>
        <pt x="427" y="605" on="0"/>
        <pt x="510" y="361" on="0"/>
        <pt x="677" y="221" on="0"/>
        <pt x="798" y="221" on="1"/>
        <pt x="973" y="221" on="0"/>
        <pt x="1168" y="495" on="0"/>
        <pt x="1168" y="773" on="1"/>
        <pt x="1168" y="926" on="0"/>
        <pt x="1089" y="1162" on="0"/>
        <pt x="930" y="1296" on="0"/>
        <pt x="814" y="1296" on="1"/>
        <pt x="703" y="1296" on="0"/>
        <pt x="529" y="1186" on="0"/>
        <pt x="427" y="946" on="0"/>
        <pt x="427" y="758" on="1"/>
      </contour>
    </TTGlyph>
    <TTGlyph name="R" xMin="188" yMin="0" xMax="1381" yMax="1538">
      <contour>
        <pt x="1381" y="0" on="1"/>
        <pt x="1027" y="0" on="1"/>
        <pt x="1017" y="14" on="0"/>
        <pt x="997" y="53" on="0"/>
        <pt x="985" y="80" on="1"/>
        <pt x="971" y="110" on="1"/>
        <pt x="954" y="146" on="0"/>
        <pt x="925" y="225" on="0"/>
        <pt x="903" y="291" on="1"/>
        <pt x="872" y="386" on="0"/>
        <pt x="825" y="501" on="0"/>
        <pt x="755" y="579" on="0"/>
        <pt x="707" y="579" on="1"/>
        <pt x="605" y="575" on="0"/>
        <pt x="506" y="575" on="1"/>
        <pt x="506" y="0" on="1"/>
        <pt x="188" y="0" on="1"/>
        <pt x="188" y="1522" on="1"/>
        <pt x="335" y="1522" on="1"/>
        <pt x="386" y="1522" on="0"/>
        <pt x="452" y="1528" on="1"/>
        <pt x="507" y="1532" on="0"/>
        <pt x="653" y="1538" on="0"/>
        <pt x="739" y="1538" on="1"/>
        <pt x="982" y="1538" on="0"/>
        <pt x="1287" y="1327" on="0"/>
        <pt x="1287" y="1078" on="1"/>
        <pt x="1287" y="899" on="0"/>
        <pt x="1158" y="685" on="0"/>
        <pt x="1034" y="636" on="1"/>
        <pt x="1087" y="591" on="0"/>
        <pt x="1166" y="445" on="0"/>
        <pt x="1220" y="319" on="1"/>
        <pt x="1278" y="179" on="0"/>
        <pt x="1318" y="110" on="1"/>
      </contour>
      <contour>
        <pt x="506" y="804" on="1"/>
        <pt x="556" y="798" on="0"/>
        <pt x="715" y="798" on="1"/>
        <pt x="850" y="798" on="0"/>
        <pt x="978" y="952" on="0"/>
        <pt x="978" y="1069" on="1"/>
        <pt x="978" y="1137" on="0"/>
        <pt x="935" y="1238" on="0"/>
        <pt x="813" y="1301" on="0"/>
        <pt x="701" y="1301" on="1"/>
        <pt x="582" y="1301" on="0"/>
        <pt x="506" y="1283" on="1"/>
      </contour>
    </TTGlyph>
    <TTGlyph name="Racute" xMin="188" yMin="0" xMax="1381" yMax="1980">
      <component glyphName="R" x="0" y="0" flags="0x0"/>
      <component glyphName="acute.cap" x="528" y="0" flags="0x0"/>
    </TTGlyph>
    <TTGlyph name="Rcaron" xMin="188" yMin="0" xMax="1381" yMax="1960">
      <component glyphName="caron.cap" x="330" y="0" flags="0x0"/>
      <component glyphName="R" x="0" y="0" flags="0x0"/>
    </TTGlyph>
    <TTGlyph name="Rcommaaccent" xMin="188" yMin="-560" xMax="1381" yMax="1538">
      <component glyphName="uni0326" x="971" y="0" flags="0x0"/>
      <component glyphName="R" x="0" y="0" flags="0x0"/>
    </TTGlyph>
    <TTGlyph name="S" xMin="139" yMin="-16" xMax="1132" yMax="1538">
      <contour>
        <pt x="197" y="329" on="1"/>
        <pt x="270" y="289" on="0"/>
        <pt x="476" y="233" on="0"/>
        <pt x="589" y="233" on="1"/>
        <pt x="712" y="233" on="0"/>
        <pt x="812" y="308" on="0"/>
        <pt x="812" y="388" on="1"/>
        <pt x="812" y="442" on="0"/>
        <pt x="762" y="517" on="0"/>
        <pt x="643" y="593" on="0"/>
        <pt x="517" y="655" on="1"/>
        <pt x="349" y="738" on="0"/>
        <pt x="139" y="960" on="0"/>
        <pt x="139" y="1128" on="1"/>
        <pt x="139" y="1272" on="0"/>
        <pt x="280" y="1455" on="0"/>
        <pt x="519" y="1538" on="0"/>
        <pt x="670" y="1538" on="1"/>
        <pt x="800" y="1538" on="0"/>
        <pt x="1013" y="1482" on="0"/>
        <pt x="1063" y="1450" on="1"/>
        <pt x="1011" y="1203" on="1"/>
        <pt x="943" y="1246" on="0"/>
        <pt x="782" y="1300" on="0"/>
        <pt x="679" y="1300" on="1"/>
        <pt x="558" y="1300" on="0"/>
        <pt x="451" y="1219" on="0"/>
        <pt x="451" y="1144" on="1"/>
        <pt x="451" y="1091" on="0"/>
        <pt x="504" y="1015" on="0"/>
        <pt x="608" y="946" on="0"/>
        <pt x="714" y="890" on="1"/>
        <pt x="858" y="814" on="0"/>
        <pt x="1029" y="693" on="0"/>
        <pt x="1132" y="525" on="0"/>
        <pt x="1132" y="408" on="1"/>
        <pt x="1132" y="274" on="0"/>
        <pt x="1002" y="83" on="0"/>
        <pt x="765" y="-16" on="0"/>
        <pt x="609" y="-16" on="1"/>
        <pt x="516" y="-16" on="0"/>
        <pt x="327" y="13" on="0"/>
        <pt x="182" y="55" on="0"/>
        <pt x="152" y="74" on="1"/>
      </contour>
    </TTGlyph>
    <TTGlyph name="Sacute" xMin="139" yMin="-16" xMax="1132" yMax="1980">
      <component glyphName="S" x="0" y="0" flags="0x0"/>
      <component glyphName="acute.cap" x="422" y="0" flags="0x0"/>
    </TTGlyph>
    <TTGlyph name="Scaron" xMin="139" yMin="-16" xMax="1132" yMax="1960">
      <component glyphName="S" x="0" y="0" flags="0x0"/>
      <component glyphName="caron.cap" x="224" y="0" flags="0x0"/>
    </TTGlyph>
    <TTGlyph name="Scedilla" xMin="139" yMin="-464" xMax="1132" yMax="1538">
      <contour>
        <pt x="1132" y="231" on="0"/>
        <pt x="911" y="16" on="0"/>
        <pt x="720" y="-9" on="1"/>
        <pt x="740" y="-48" on="0"/>
        <pt x="757" y="-162" on="0"/>
        <pt x="755" y="-221" on="1"/>
        <pt x="751" y="-343" on="0"/>
        <pt x="608" y="-464" on="0"/>
        <pt x="500" y="-464" on="1"/>
        <pt x="453" y="-464" on="0"/>
        <pt x="338" y="-447" on="0"/>
        <pt x="320" y="-436" on="1"/>
        <pt x="340" y="-271" on="1"/>
        <pt x="362" y="-285" on="0"/>
        <pt x="417" y="-285" on="1"/>
        <pt x="468" y="-285" on="0"/>
        <pt x="535" y="-209" on="0"/>
        <pt x="538" y="-135" on="1"/>
        <pt x="539" y="-123" on="0"/>
        <pt x="539" y="-102" on="1"/>
        <pt x="539" y="-52" on="0"/>
        <pt x="527" y="-13" on="1"/>
        <pt x="408" y="-5" on="0"/>
        <pt x="193" y="49" on="0"/>
        <pt x="152" y="74" on="1"/>
        <pt x="197" y="329" on="1"/>
        <pt x="270" y="289" on="0"/>
        <pt x="476" y="233" on="0"/>
        <pt x="589" y="233" on="1"/>
        <pt x="712" y="233" on="0"/>
        <pt x="812" y="308" on="0"/>
        <pt x="812" y="388" on="1"/>
        <pt x="812" y="442" on="0"/>
        <pt x="762" y="517" on="0"/>
        <pt x="643" y="593" on="0"/>
        <pt x="517" y="655" on="1"/>
        <pt x="349" y="738" on="0"/>
        <pt x="139" y="960" on="0"/>
        <pt x="139" y="1128" on="1"/>
        <pt x="139" y="1272" on="0"/>
        <pt x="280" y="1455" on="0"/>
        <pt x="519" y="1538" on="0"/>
        <pt x="670" y="1538" on="1"/>
        <pt x="800" y="1538" on="0"/>
        <pt x="1013" y="1482" on="0"/>
        <pt x="1063" y="1450" on="1"/>
        <pt x="1011" y="1203" on="1"/>
        <pt x="943" y="1246" on="0"/>
        <pt x="782" y="1300" on="0"/>
        <pt x="679" y="1300" on="1"/>
        <pt x="558" y="1300" on="0"/>
        <pt x="451" y="1219" on="0"/>
        <pt x="451" y="1144" on="1"/>
        <pt x="451" y="1091" on="0"/>
        <pt x="504" y="1015" on="0"/>
        <pt x="608" y="946" on="0"/>
        <pt x="714" y="890" on="1"/>
        <pt x="858" y="814" on="0"/>
        <pt x="1029" y="693" on="0"/>
        <pt x="1132" y="525" on="0"/>
        <pt x="1132" y="408" on="1"/>
      </contour>
    </TTGlyph>
    <TTGlyph name="Scircumflex" xMin="139" yMin="-16" xMax="1132" yMax="1959">
      <component glyphName="S" x="0" y="0" flags="0x0"/>
      <component glyphName="circumflex.cap" x="216" y="-1" flags="0x4"/>
    </TTGlyph>
    <TTGlyph name="Scommaaccent" xMin="139" yMin="-560" xMax="1132" yMax="1538">
      <component glyphName="uni0326" x="842" y="0" flags="0x0"/>
      <component glyphName="S" x="0" y="0" flags="0x0"/>
    </TTGlyph>
    <TTGlyph name="T" xMin="30" yMin="0" xMax="1220" yMax="1522">
      <contour>
        <pt x="30" y="1278" on="1"/>
        <pt x="30" y="1522" on="1"/>
        <pt x="1220" y="1522" on="1"/>
        <pt x="1220" y="1278" on="1"/>
        <pt x="786" y="1278" on="1"/>
        <pt x="786" y="0" on="1"/>
        <pt x="466" y="0" on="1"/>
        <pt x="466" y="1278" on="1"/>
      </contour>
    </TTGlyph>
    <TTGlyph name="Tbar" xMin="30" yMin="0" xMax="1220" yMax="1522">
      <contour>
        <pt x="786" y="1278" on="1"/>
        <pt x="786" y="796" on="1"/>
        <pt x="1075" y="796" on="1"/>
        <pt x="1075" y="597" on="1"/>
        <pt x="786" y="597" on="1"/>
        <pt x="786" y="0" on="1"/>
        <pt x="466" y="0" on="1"/>
        <pt x="466" y="597" on="1"/>
        <pt x="193" y="597" on="1"/>
        <pt x="193" y="796" on="1"/>
        <pt x="466" y="796" on="1"/>
        <pt x="466" y="1278" on="1"/>
        <pt x="30" y="1278" on="1"/>
        <pt x="30" y="1522" on="1"/>
        <pt x="1220" y="1522" on="1"/>
        <pt x="1220" y="1278" on="1"/>
      </contour>
    </TTGlyph>
    <TTGlyph name="Tcaron" xMin="30" yMin="0" xMax="1220" yMax="1960">
      <component glyphName="caron.cap" x="196" y="0" flags="0x0"/>
      <component glyphName="T" x="0" y="0" flags="0x0"/>
    </TTGlyph>
    <TTGlyph name="Thorn" xMin="188" yMin="0" xMax="1282" yMax="1522">
      <contour>
        <pt x="1001" y="1287" on="0"/>
        <pt x="1282" y="1047" on="0"/>
        <pt x="1282" y="805" on="1"/>
        <pt x="1282" y="633" on="0"/>
        <pt x="1148" y="387" on="0"/>
        <pt x="888" y="257" on="0"/>
        <pt x="702" y="257" on="1"/>
        <pt x="620" y="257" on="0"/>
        <pt x="514" y="265" on="0"/>
        <pt x="506" y="266" on="1"/>
        <pt x="506" y="0" on="1"/>
        <pt x="188" y="0" on="1"/>
        <pt x="188" y="1522" on="1"/>
        <pt x="506" y="1522" on="1"/>
        <pt x="506" y="1275" on="1"/>
        <pt x="571" y="1279" on="1"/>
        <pt x="683" y="1287" on="0"/>
        <pt x="749" y="1287" on="1"/>
      </contour>
      <contour>
        <pt x="755" y="500" on="0"/>
        <pt x="887" y="547" on="0"/>
        <pt x="967" y="680" on="0"/>
        <pt x="967" y="802" on="1"/>
        <pt x="967" y="921" on="0"/>
        <pt x="822" y="1047" on="0"/>
        <pt x="684" y="1047" on="1"/>
        <pt x="582" y="1047" on="0"/>
        <pt x="506" y="1028" on="1"/>
        <pt x="506" y="510" on="1"/>
        <pt x="542" y="503" on="0"/>
        <pt x="614" y="500" on="0"/>
        <pt x="662" y="500" on="1"/>
      </contour>
    </TTGlyph>
    <TTGlyph name="U" xMin="149" yMin="-16" xMax="1376" yMax="1522">
      <contour>
        <pt x="152" y="1522" on="1"/>
        <pt x="467" y="1522" on="1"/>
        <pt x="465" y="670" on="1"/>
        <pt x="465" y="497" on="0"/>
        <pt x="532" y="309" on="0"/>
        <pt x="662" y="238" on="0"/>
        <pt x="767" y="238" on="1"/>
        <pt x="868" y="238" on="0"/>
        <pt x="996" y="315" on="0"/>
        <pt x="1063" y="504" on="0"/>
        <pt x="1063" y="670" on="1"/>
        <pt x="1063" y="1522" on="1"/>
        <pt x="1376" y="1522" on="1"/>
        <pt x="1376" y="640" on="1"/>
        <pt x="1376" y="319" on="0"/>
        <pt x="1064" y="-16" on="0"/>
        <pt x="758" y="-16" on="1"/>
        <pt x="432" y="-16" on="0"/>
        <pt x="149" y="331" on="0"/>
        <pt x="150" y="653" on="1"/>
      </contour>
    </TTGlyph>
    <TTGlyph name="Uacute" xMin="149" yMin="-16" xMax="1376" yMax="1980">
      <component glyphName="acute.cap" x="541" y="0" flags="0x0"/>
      <component glyphName="U" x="0" y="0" flags="0x0"/>
    </TTGlyph>
    <TTGlyph name="Ubreve" xMin="149" yMin="-16" xMax="1376" yMax="1959">
      <component glyphName="breve.cap" x="359" y="-1" flags="0x4"/>
      <component glyphName="U" x="0" y="0" flags="0x0"/>
    </TTGlyph>
    <TTGlyph name="Ucircumflex" xMin="149" yMin="-16" xMax="1376" yMax="1959">
      <component glyphName="U" x="0" y="0" flags="0x0"/>
      <component glyphName="circumflex.cap" x="335" y="-1" flags="0x4"/>
    </TTGlyph>
    <TTGlyph name="Udieresis" xMin="149" yMin="-16" xMax="1376" yMax="1960">
      <component glyphName="dieresis.cap" x="274" y="0" flags="0x0"/>
      <component glyphName="U" x="0" y="0" flags="0x0"/>
    </TTGlyph>
    <TTGlyph name="Ugrave" xMin="149" yMin="-16" xMax="1376" yMax="1980">
      <component glyphName="grave.cap" x="343" y="0" flags="0x0"/>
      <component glyphName="U" x="0" y="0" flags="0x0"/>
    </TTGlyph>
    <TTGlyph name="Uhungarumlaut" xMin="149" yMin="-16" xMax="1376" yMax="1959">
      <component glyphName="U" x="0" y="0" flags="0x0"/>
      <component glyphName="hungarumlaut.cap" x="348" y="-1" flags="0x4"/>
    </TTGlyph>
    <TTGlyph name="Umacron" xMin="149" yMin="-16" xMax="1376" yMax="1892">
      <component glyphName="macron.cap" x="421" y="-1" flags="0x4"/>
      <component glyphName="U" x="0" y="0" flags="0x0"/>
    </TTGlyph>
    <TTGlyph name="Uogonek" xMin="149" yMin="-516" xMax="1376" yMax="1522">
      <contour>
        <pt x="1376" y="1522" on="1"/>
        <pt x="1376" y="640" on="1"/>
        <pt x="1376" y="388" on="0"/>
        <pt x="1184" y="73" on="0"/>
        <pt x="994" y="15" on="1"/>
        <pt x="866" y="-103" on="0"/>
        <pt x="866" y="-223" on="1"/>
        <pt x="868" y="-269" on="0"/>
        <pt x="933" y="-311" on="0"/>
        <pt x="987" y="-311" on="1"/>
        <pt x="1042" y="-311" on="0"/>
        <pt x="1112" y="-291" on="1"/>
        <pt x="1112" y="-448" on="1"/>
        <pt x="1069" y="-480" on="0"/>
        <pt x="946" y="-516" on="0"/>
        <pt x="882" y="-516" on="1"/>
        <pt x="819" y="-516" on="0"/>
        <pt x="700" y="-458" on="0"/>
        <pt x="624" y="-357" on="0"/>
        <pt x="621" y="-296" on="1"/>
        <pt x="615" y="-205" on="0"/>
        <pt x="702" y="-67" on="0"/>
        <pt x="776" y="-16" on="1"/>
        <pt x="758" y="-16" on="1"/>
        <pt x="432" y="-16" on="0"/>
        <pt x="149" y="331" on="0"/>
        <pt x="150" y="653" on="1"/>
        <pt x="152" y="1522" on="1"/>
        <pt x="467" y="1522" on="1"/>
        <pt x="465" y="670" on="1"/>
        <pt x="465" y="497" on="0"/>
        <pt x="532" y="309" on="0"/>
        <pt x="662" y="238" on="0"/>
        <pt x="767" y="238" on="1"/>
        <pt x="868" y="238" on="0"/>
        <pt x="996" y="315" on="0"/>
        <pt x="1063" y="504" on="0"/>
        <pt x="1063" y="670" on="1"/>
        <pt x="1063" y="1522" on="1"/>
      </contour>
    </TTGlyph>
    <TTGlyph name="Uring" xMin="149" yMin="-16" xMax="1376" yMax="2070">
      <component glyphName="U" x="0" y="0" flags="0x0"/>
      <component glyphName="ring.cap" x="382" y="100" flags="0x4"/>
    </TTGlyph>
    <TTGlyph name="Utilde" xMin="149" yMin="-16" xMax="1376" yMax="1957">
      <component glyphName="tilde.cap" x="302" y="-1" flags="0x4"/>
      <component glyphName="U" x="0" y="0" flags="0x0"/>
    </TTGlyph>
    <TTGlyph name="V" xMin="-5" yMin="-6" xMax="1391" yMax="1522">
      <contour>
        <pt x="336" y="1522" on="1"/>
        <pt x="620" y="691" on="1"/>
        <pt x="701" y="401" on="1"/>
        <pt x="783" y="691" on="1"/>
        <pt x="1052" y="1522" on="1"/>
        <pt x="1391" y="1522" on="1"/>
        <pt x="831" y="-6" on="1"/>
        <pt x="561" y="-6" on="1"/>
        <pt x="-5" y="1522" on="1"/>
      </contour>
    </TTGlyph>
    <TTGlyph name="W" xMin="5" yMin="-16" xMax="1968" yMax="1522">
      <contour>
        <pt x="1968" y="1522" on="1"/>
        <pt x="1570" y="-16" on="1"/>
        <pt x="1244" y="-16" on="1"/>
        <pt x="1030" y="834" on="1"/>
        <pt x="981" y="1162" on="1"/>
        <pt x="936" y="833" on="1"/>
        <pt x="717" y="-16" on="1"/>
        <pt x="413" y="-16" on="1"/>
        <pt x="5" y="1522" on="1"/>
        <pt x="324" y="1522" on="1"/>
        <pt x="512" y="628" on="1"/>
        <pt x="565" y="258" on="1"/>
        <pt x="626" y="628" on="1"/>
        <pt x="846" y="1522" on="1"/>
        <pt x="1130" y="1522" on="1"/>
        <pt x="1364" y="628" on="1"/>
        <pt x="1426" y="274" on="1"/>
        <pt x="1477" y="628" on="1"/>
        <pt x="1650" y="1522" on="1"/>
      </contour>
    </TTGlyph>
    <TTGlyph name="Wacute" xMin="5" yMin="-16" xMax="1968" yMax="1980">
      <component glyphName="acute.cap" x="739" y="0" flags="0x0"/>
      <component glyphName="W" x="0" y="0" flags="0x0"/>
    </TTGlyph>
    <TTGlyph name="Wcircumflex" xMin="5" yMin="-16" xMax="1968" yMax="1959">
      <component glyphName="W" x="0" y="0" flags="0x0"/>
      <component glyphName="circumflex.cap" x="533" y="-1" flags="0x4"/>
    </TTGlyph>
    <TTGlyph name="Wdieresis" xMin="5" yMin="-16" xMax="1968" yMax="1960">
      <component glyphName="dieresis.cap" x="472" y="0" flags="0x0"/>
      <component glyphName="W" x="0" y="0" flags="0x0"/>
    </TTGlyph>
    <TTGlyph name="Wgrave" xMin="5" yMin="-16" xMax="1968" yMax="1980">
      <component glyphName="grave.cap" x="541" y="0" flags="0x0"/>
      <component glyphName="W" x="0" y="0" flags="0x0"/>
    </TTGlyph>
    <TTGlyph name="X" xMin="32" yMin="0" xMax="1344" yMax="1523">
      <contour>
        <pt x="1344" y="0" on="1"/>
        <pt x="991" y="0" on="1"/>
        <pt x="747" y="425" on="1"/>
        <pt x="673" y="556" on="1"/>
        <pt x="364" y="0" on="1"/>
        <pt x="32" y="0" on="1"/>
        <pt x="491" y="786" on="1"/>
        <pt x="43" y="1522" on="1"/>
        <pt x="391" y="1523" on="1"/>
        <pt x="704" y="984" on="1"/>
        <pt x="778" y="1120" on="1"/>
        <pt x="998" y="1522" on="1"/>
        <pt x="1334" y="1522" on="1"/>
        <pt x="880" y="752" on="1"/>
      </contour>
    </TTGlyph>
    <TTGlyph name="Y" xMin="-50" yMin="0" xMax="1291" yMax="1522">
      <contour>
        <pt x="780" y="533" on="1"/>
        <pt x="780" y="0" on="1"/>
        <pt x="461" y="0" on="1"/>
        <pt x="461" y="535" on="1"/>
        <pt x="-50" y="1522" on="1"/>
        <pt x="300" y="1522" on="1"/>
        <pt x="580" y="932" on="1"/>
        <pt x="624" y="819" on="1"/>
        <pt x="662" y="932" on="1"/>
        <pt x="950" y="1522" on="1"/>
        <pt x="1291" y="1522" on="1"/>
      </contour>
    </TTGlyph>
    <TTGlyph name="Yacute" xMin="-50" yMin="0" xMax="1291" yMax="1980">
      <component glyphName="Y" x="0" y="0" flags="0x0"/>
      <component glyphName="acute.cap" x="412" y="0" flags="0x0"/>
    </TTGlyph>
    <TTGlyph name="Ycircumflex" xMin="-50" yMin="0" xMax="1291" yMax="1959">
      <component glyphName="Y" x="0" y="0" flags="0x0"/>
      <component glyphName="circumflex.cap" x="206" y="-1" flags="0x4"/>
    </TTGlyph>
    <TTGlyph name="Ydieresis" xMin="-50" yMin="0" xMax="1291" yMax="1960">
      <component glyphName="Y" x="0" y="0" flags="0x0"/>
      <component glyphName="dieresis.cap" x="145" y="0" flags="0x0"/>
    </TTGlyph>
    <TTGlyph name="Ygrave" xMin="-50" yMin="0" xMax="1291" yMax="1980">
      <component glyphName="Y" x="0" y="0" flags="0x0"/>
      <component glyphName="grave.cap" x="214" y="0" flags="0x0"/>
    </TTGlyph>
    <TTGlyph name="Z" xMin="54" yMin="0" xMax="1235" yMax="1522">
      <contour>
        <pt x="740" y="1210" on="1"/>
        <pt x="798" y="1291" on="1"/>
        <pt x="130" y="1291" on="1"/>
        <pt x="130" y="1522" on="1"/>
        <pt x="1197" y="1522" on="1"/>
        <pt x="1235" y="1441" on="1"/>
        <pt x="563" y="335" on="1"/>
        <pt x="490" y="242" on="1"/>
        <pt x="1196" y="242" on="1"/>
        <pt x="1196" y="0" on="1"/>
        <pt x="94" y="0" on="1"/>
        <pt x="54" y="84" on="1"/>
      </contour>
    </TTGlyph>
    <TTGlyph name="Zacute" xMin="54" yMin="0" xMax="1235" yMax="1980">
      <component glyphName="Z" x="0" y="0" flags="0x0"/>
      <component glyphName="acute.cap" x="449" y="0" flags="0x0"/>
    </TTGlyph>
    <TTGlyph name="Zcaron" xMin="54" yMin="0" xMax="1235" yMax="1960">
      <component glyphName="caron.cap" x="251" y="0" flags="0x0"/>
      <component glyphName="Z" x="0" y="0" flags="0x0"/>
    </TTGlyph>
    <TTGlyph name="Zdotaccent" xMin="54" yMin="0" xMax="1235" yMax="1958">
      <component glyphName="dotaccent.cap" x="437" y="-1" flags="0x4"/>
      <component glyphName="Z" x="0" y="0" flags="0x0"/>
    </TTGlyph>
    <TTGlyph name="a" xMin="102" yMin="-16" xMax="1070" yMax="1162">
      <contour>
        <pt x="773" y="1162" on="0"/>
        <pt x="972" y="1089" on="0"/>
        <pt x="1070" y="908" on="0"/>
        <pt x="1070" y="745" on="1"/>
        <pt x="1070" y="-16" on="1"/>
        <pt x="888" y="-16" on="1"/>
        <pt x="843" y="-16" on="0"/>
        <pt x="797" y="-4" on="0"/>
        <pt x="771" y="40" on="0"/>
        <pt x="771" y="88" on="1"/>
        <pt x="771" y="96" on="1"/>
        <pt x="719" y="48" on="0"/>
        <pt x="567" y="-16" on="0"/>
        <pt x="474" y="-16" on="1"/>
        <pt x="364" y="-16" on="0"/>
        <pt x="195" y="79" on="0"/>
        <pt x="102" y="248" on="0"/>
        <pt x="102" y="355" on="1"/>
        <pt x="102" y="455" on="0"/>
        <pt x="205" y="597" on="0"/>
        <pt x="301" y="640" on="1"/>
        <pt x="450" y="706" on="0"/>
        <pt x="758" y="706" on="1"/>
        <pt x="758" y="778" on="1"/>
        <pt x="758" y="842" on="0"/>
        <pt x="725" y="902" on="0"/>
        <pt x="632" y="924" on="0"/>
        <pt x="532" y="924" on="1"/>
        <pt x="484" y="924" on="0"/>
        <pt x="288" y="875" on="0"/>
        <pt x="218" y="843" on="1"/>
        <pt x="149" y="1043" on="1"/>
        <pt x="189" y="1067" on="0"/>
        <pt x="341" y="1123" on="0"/>
        <pt x="523" y="1162" on="0"/>
        <pt x="607" y="1162" on="1"/>
      </contour>
      <contour>
        <pt x="631" y="195" on="0"/>
        <pt x="741" y="236" on="0"/>
        <pt x="758" y="258" on="1"/>
        <pt x="758" y="530" on="1"/>
        <pt x="701" y="530" on="0"/>
        <pt x="558" y="505" on="0"/>
        <pt x="523" y="489" on="1"/>
        <pt x="478" y="472" on="0"/>
        <pt x="424" y="414" on="0"/>
        <pt x="424" y="357" on="1"/>
        <pt x="424" y="277" on="0"/>
        <pt x="511" y="195" on="0"/>
        <pt x="581" y="195" on="1"/>
      </contour>
    </TTGlyph>
    <TTGlyph name="aacute" xMin="102" yMin="-16" xMax="1070" yMax="1807">
      <component glyphName="a" x="0" y="0" flags="0x0"/>
      <component glyphName="acute" x="438" y="-1" flags="0x4"/>
    </TTGlyph>
    <TTGlyph name="abreve" xMin="102" yMin="-16" xMax="1070" yMax="1684">
      <component glyphName="a" x="0" y="0" flags="0x0"/>
      <component glyphName="breve" x="219" y="-1" flags="0x4"/>
    </TTGlyph>
    <TTGlyph name="acircumflex" xMin="102" yMin="-16" xMax="1070" yMax="1698">
      <component glyphName="a" x="0" y="0" flags="0x0"/>
      <component glyphName="circumflex" x="188" y="-1" flags="0x4"/>
    </TTGlyph>
    <TTGlyph name="acute" xMin="55" yMin="1252" xMax="610" yMax="1808">
      <contour>
        <pt x="145" y="1473" on="0"/>
        <pt x="323" y="1689" on="0"/>
        <pt x="396" y="1808" on="1"/>
        <pt x="610" y="1634" on="1"/>
        <pt x="583" y="1571" on="0"/>
        <pt x="424" y="1407" on="0"/>
        <pt x="247" y="1271" on="0"/>
        <pt x="204" y="1252" on="1"/>
        <pt x="55" y="1389" on="1"/>
      </contour>
    </TTGlyph>
    <TTGlyph name="acute.cap" xMin="85" yMin="1543" xMax="597" yMax="1980">
      <contour>
        <pt x="156" y="1734" on="0"/>
        <pt x="369" y="1948" on="0"/>
        <pt x="380" y="1980" on="1"/>
        <pt x="597" y="1849" on="1"/>
        <pt x="553" y="1792" on="0"/>
        <pt x="417" y="1661" on="0"/>
        <pt x="278" y="1559" on="0"/>
        <pt x="231" y="1543" on="1"/>
        <pt x="85" y="1668" on="1"/>
      </contour>
    </TTGlyph>
    <TTGlyph name="adieresis" xMin="102" yMin="-16" xMax="1070" yMax="1662">
      <component glyphName="a" x="0" y="0" flags="0x0"/>
      <component glyphName="dieresis" x="139" y="-1" flags="0x4"/>
    </TTGlyph>
    <TTGlyph name="ae" xMin="102" yMin="-16" xMax="1754" yMax="1162">
      <contour>
        <pt x="1754" y="565" on="0"/>
        <pt x="1743" y="495" on="1"/>
        <pt x="1069" y="495" on="1"/>
        <pt x="1078" y="354" on="0"/>
        <pt x="1237" y="216" on="0"/>
        <pt x="1373" y="216" on="1"/>
        <pt x="1438" y="216" on="0"/>
        <pt x="1623" y="251" on="0"/>
        <pt x="1666" y="275" on="1"/>
        <pt x="1717" y="98" on="1"/>
        <pt x="1658" y="50" on="0"/>
        <pt x="1422" y="-16" on="0"/>
        <pt x="1294" y="-16" on="1"/>
        <pt x="1157" y="-16" on="0"/>
        <pt x="947" y="74" on="0"/>
        <pt x="879" y="159" on="1"/>
        <pt x="797" y="65" on="0"/>
        <pt x="593" y="-16" on="0"/>
        <pt x="475" y="-16" on="1"/>
        <pt x="371" y="-16" on="0"/>
        <pt x="201" y="63" on="0"/>
        <pt x="102" y="219" on="0"/>
        <pt x="102" y="330" on="1"/>
        <pt x="102" y="434" on="0"/>
        <pt x="216" y="593" on="0"/>
        <pt x="315" y="637" on="1"/>
        <pt x="396" y="673" on="0"/>
        <pt x="636" y="706" on="0"/>
        <pt x="751" y="706" on="1"/>
        <pt x="751" y="767" on="1"/>
        <pt x="751" y="826" on="0"/>
        <pt x="712" y="894" on="0"/>
        <pt x="627" y="924" on="0"/>
        <pt x="554" y="924" on="1"/>
        <pt x="499" y="924" on="0"/>
        <pt x="369" y="898" on="0"/>
        <pt x="256" y="860" on="0"/>
        <pt x="228" y="843" on="1"/>
        <pt x="159" y="1043" on="1"/>
        <pt x="194" y="1063" on="0"/>
        <pt x="329" y="1117" on="0"/>
        <pt x="523" y="1162" on="0"/>
        <pt x="627" y="1162" on="1"/>
        <pt x="752" y="1162" on="0"/>
        <pt x="914" y="1110" on="0"/>
        <pt x="960" y="1048" on="1"/>
        <pt x="1099" y="1156" on="0"/>
        <pt x="1307" y="1156" on="1"/>
        <pt x="1431" y="1156" on="0"/>
        <pt x="1631" y="1066" on="0"/>
        <pt x="1752" y="866" on="0"/>
        <pt x="1754" y="709" on="1"/>
      </contour>
      <contour>
        <pt x="1465" y="683" on="0"/>
        <pt x="1465" y="712" on="1"/>
        <pt x="1465" y="821" on="0"/>
        <pt x="1383" y="934" on="0"/>
        <pt x="1291" y="934" on="1"/>
        <pt x="1199" y="934" on="0"/>
        <pt x="1090" y="813" on="0"/>
        <pt x="1074" y="668" on="1"/>
        <pt x="1464" y="668" on="1"/>
      </contour>
      <contour>
        <pt x="644" y="195" on="0"/>
        <pt x="769" y="258" on="0"/>
        <pt x="801" y="298" on="1"/>
        <pt x="763" y="397" on="0"/>
        <pt x="757" y="530" on="1"/>
        <pt x="689" y="531" on="0"/>
        <pt x="568" y="507" on="0"/>
        <pt x="528" y="489" on="1"/>
        <pt x="495" y="475" on="0"/>
        <pt x="453" y="447" on="0"/>
        <pt x="422" y="392" on="0"/>
        <pt x="422" y="347" on="1"/>
        <pt x="422" y="272" on="0"/>
        <pt x="510" y="195" on="0"/>
        <pt x="581" y="195" on="1"/>
      </contour>
    </TTGlyph>
    <TTGlyph name="aeacute" xMin="102" yMin="-16" xMax="1754" yMax="1807">
      <component glyphName="acute" x="752" y="-1" flags="0x4"/>
      <component glyphName="ae" x="0" y="0" flags="0x0"/>
    </TTGlyph>
    <TTGlyph name="agrave" xMin="102" yMin="-16" xMax="1070" yMax="1807">
      <component glyphName="a" x="0" y="0" flags="0x0"/>
      <component glyphName="grave" x="136" y="-1" flags="0x4"/>
    </TTGlyph>
    <TTGlyph name="amacron" xMin="102" yMin="-16" xMax="1070" yMax="1625">
      <component glyphName="a" x="0" y="0" flags="0x0"/>
      <component glyphName="macron" x="276" y="-1" flags="0x4"/>
    </TTGlyph>
    <TTGlyph name="ampersand" xMin="88" yMin="-16" xMax="1466" yMax="1546">
      <contour>
        <pt x="1308" y="189" on="0"/>
        <pt x="1400" y="168" on="0"/>
        <pt x="1466" y="166" on="1"/>
        <pt x="1466" y="-1" on="1"/>
        <pt x="1406" y="-16" on="0"/>
        <pt x="1323" y="-16" on="1"/>
        <pt x="1236" y="-16" on="0"/>
        <pt x="1102" y="21" on="0"/>
        <pt x="1044" y="57" on="1"/>
        <pt x="969" y="24" on="0"/>
        <pt x="810" y="-16" on="0"/>
        <pt x="735" y="-16" on="1"/>
        <pt x="415" y="-16" on="0"/>
        <pt x="88" y="198" on="0"/>
        <pt x="88" y="399" on="1"/>
        <pt x="88" y="527" on="0"/>
        <pt x="256" y="722" on="0"/>
        <pt x="399" y="789" on="1"/>
        <pt x="331" y="881" on="0"/>
        <pt x="256" y="1053" on="0"/>
        <pt x="256" y="1168" on="1"/>
        <pt x="256" y="1285" on="0"/>
        <pt x="365" y="1456" on="0"/>
        <pt x="565" y="1546" on="0"/>
        <pt x="699" y="1546" on="1"/>
        <pt x="823" y="1546" on="0"/>
        <pt x="1012" y="1448" on="0"/>
        <pt x="1113" y="1282" on="0"/>
        <pt x="1113" y="1182" on="1"/>
        <pt x="1113" y="1061" on="0"/>
        <pt x="1036" y="889" on="0"/>
        <pt x="898" y="769" on="0"/>
        <pt x="792" y="714" on="1"/>
        <pt x="850" y="639" on="0"/>
        <pt x="1010" y="449" on="0"/>
        <pt x="1078" y="377" on="1"/>
        <pt x="1113" y="416" on="0"/>
        <pt x="1150" y="520" on="0"/>
        <pt x="1150" y="577" on="1"/>
        <pt x="1150" y="625" on="0"/>
        <pt x="1140" y="695" on="0"/>
        <pt x="1131" y="736" on="1"/>
        <pt x="1126" y="757" on="1"/>
        <pt x="1384" y="757" on="1"/>
        <pt x="1404" y="674" on="0"/>
        <pt x="1404" y="576" on="1"/>
        <pt x="1404" y="348" on="0"/>
        <pt x="1267" y="213" on="1"/>
      </contour>
      <contour>
        <pt x="625" y="1337" on="0"/>
        <pt x="535" y="1248" on="0"/>
        <pt x="535" y="1173" on="1"/>
        <pt x="535" y="1120" on="0"/>
        <pt x="561" y="1040" on="0"/>
        <pt x="606" y="968" on="0"/>
        <pt x="662" y="891" on="1"/>
        <pt x="757" y="940" on="0"/>
        <pt x="855" y="1077" on="0"/>
        <pt x="855" y="1179" on="1"/>
        <pt x="855" y="1215" on="0"/>
        <pt x="823" y="1288" on="0"/>
        <pt x="753" y="1337" on="0"/>
        <pt x="700" y="1337" on="1"/>
      </contour>
      <contour>
        <pt x="778" y="217" on="0"/>
        <pt x="845" y="233" on="1"/>
        <pt x="767" y="318" on="0"/>
        <pt x="594" y="525" on="0"/>
        <pt x="529" y="610" on="1"/>
        <pt x="457" y="572" on="0"/>
        <pt x="383" y="477" on="0"/>
        <pt x="383" y="416" on="1"/>
        <pt x="383" y="320" on="0"/>
        <pt x="526" y="217" on="0"/>
        <pt x="688" y="217" on="1"/>
      </contour>
    </TTGlyph>
    <TTGlyph name="aogonek" xMin="102" yMin="-516" xMax="1083" yMax="1162">
      <contour>
        <pt x="1013" y="-311" on="0"/>
        <pt x="1083" y="-291" on="1"/>
        <pt x="1083" y="-448" on="1"/>
        <pt x="1040" y="-480" on="0"/>
        <pt x="917" y="-516" on="0"/>
        <pt x="853" y="-516" on="1"/>
        <pt x="789" y="-516" on="0"/>
        <pt x="671" y="-468" on="0"/>
        <pt x="595" y="-377" on="0"/>
        <pt x="592" y="-316" on="1"/>
        <pt x="586" y="-215" on="0"/>
        <pt x="710" y="-56" on="0"/>
        <pt x="803" y="-3" on="1"/>
        <pt x="771" y="17" on="0"/>
        <pt x="771" y="88" on="1"/>
        <pt x="771" y="96" on="1"/>
        <pt x="719" y="48" on="0"/>
        <pt x="567" y="-16" on="0"/>
        <pt x="474" y="-16" on="1"/>
        <pt x="364" y="-16" on="0"/>
        <pt x="195" y="79" on="0"/>
        <pt x="102" y="248" on="0"/>
        <pt x="102" y="355" on="1"/>
        <pt x="102" y="455" on="0"/>
        <pt x="205" y="597" on="0"/>
        <pt x="301" y="640" on="1"/>
        <pt x="450" y="706" on="0"/>
        <pt x="758" y="706" on="1"/>
        <pt x="758" y="778" on="1"/>
        <pt x="758" y="842" on="0"/>
        <pt x="725" y="902" on="0"/>
        <pt x="632" y="924" on="0"/>
        <pt x="532" y="924" on="1"/>
        <pt x="484" y="924" on="0"/>
        <pt x="288" y="875" on="0"/>
        <pt x="218" y="843" on="1"/>
        <pt x="149" y="1043" on="1"/>
        <pt x="189" y="1067" on="0"/>
        <pt x="341" y="1123" on="0"/>
        <pt x="523" y="1162" on="0"/>
        <pt x="607" y="1162" on="1"/>
        <pt x="773" y="1162" on="0"/>
        <pt x="972" y="1089" on="0"/>
        <pt x="1070" y="908" on="0"/>
        <pt x="1070" y="745" on="1"/>
        <pt x="1070" y="-16" on="1"/>
        <pt x="992" y="-16" on="1"/>
        <pt x="916" y="-68" on="0"/>
        <pt x="837" y="-158" on="0"/>
        <pt x="837" y="-213" on="1"/>
        <pt x="837" y="-311" on="0"/>
        <pt x="958" y="-311" on="1"/>
      </contour>
      <contour>
        <pt x="631" y="195" on="0"/>
        <pt x="741" y="236" on="0"/>
        <pt x="758" y="258" on="1"/>
        <pt x="758" y="530" on="1"/>
        <pt x="701" y="530" on="0"/>
        <pt x="558" y="505" on="0"/>
        <pt x="523" y="489" on="1"/>
        <pt x="478" y="472" on="0"/>
        <pt x="424" y="414" on="0"/>
        <pt x="424" y="357" on="1"/>
        <pt x="424" y="277" on="0"/>
        <pt x="511" y="195" on="0"/>
        <pt x="581" y="195" on="1"/>
      </contour>
    </TTGlyph>
    <TTGlyph name="approxequal" xMin="206" yMin="221" xMax="1242" yMax="1115">
      <component glyphName="asciitilde" x="3" y="-428" flags="0x4"/>
      <component glyphName="asciitilde" x="-2" y="65" flags="0x4"/>
    </TTGlyph>
    <TTGlyph name="aring" xMin="102" yMin="-16" xMax="1070" yMax="1887">
      <component glyphName="a" x="0" y="0" flags="0x0"/>
      <component glyphName="ring" x="242" y="-1" flags="0x4"/>
    </TTGlyph>
    <TTGlyph name="asciicircum" xMin="153" yMin="490" xMax="1220" yMax="1531">
      <contour>
        <pt x="939" y="490" on="1"/>
        <pt x="687" y="1164" on="1"/>
        <pt x="434" y="490" on="1"/>
        <pt x="153" y="490" on="1"/>
        <pt x="573" y="1531" on="1"/>
        <pt x="800" y="1531" on="1"/>
        <pt x="1220" y="490" on="1"/>
      </contour>
    </TTGlyph>
    <TTGlyph name="asciitilde" xMin="208" yMin="649" xMax="1239" yMax="1050">
      <contour>
        <pt x="221" y="873" on="0"/>
        <pt x="317" y="977" on="0"/>
        <pt x="457" y="1050" on="0"/>
        <pt x="533" y="1050" on="1"/>
        <pt x="586" y="1050" on="0"/>
        <pt x="668" y="1025" on="0"/>
        <pt x="727" y="989" on="0"/>
        <pt x="764" y="961" on="1"/>
        <pt x="811" y="926" on="0"/>
        <pt x="877" y="893" on="0"/>
        <pt x="922" y="893" on="1"/>
        <pt x="986" y="893" on="0"/>
        <pt x="1081" y="952" on="0"/>
        <pt x="1123" y="998" on="1"/>
        <pt x="1239" y="860" on="1"/>
        <pt x="1224" y="812" on="0"/>
        <pt x="1129" y="713" on="0"/>
        <pt x="988" y="649" on="0"/>
        <pt x="908" y="649" on="1"/>
        <pt x="857" y="649" on="0"/>
        <pt x="779" y="673" on="0"/>
        <pt x="726" y="709" on="0"/>
        <pt x="693" y="737" on="1"/>
        <pt x="648" y="773" on="0"/>
        <pt x="583" y="808" on="0"/>
        <pt x="534" y="808" on="1"/>
        <pt x="471" y="808" on="0"/>
        <pt x="383" y="751" on="0"/>
        <pt x="338" y="702" on="1"/>
        <pt x="208" y="830" on="1"/>
      </contour>
    </TTGlyph>
    <TTGlyph name="asterisk" xMin="130" yMin="602" xMax="1218" yMax="1736">
      <contour>
        <pt x="623" y="1080" on="1"/>
        <pt x="488" y="942" on="1"/>
        <pt x="253" y="776" on="1"/>
        <pt x="136" y="983" on="1"/>
        <pt x="388" y="1118" on="1"/>
        <pt x="569" y="1171" on="1"/>
        <pt x="563" y="1174" on="0"/>
        <pt x="490" y="1192" on="1"/>
        <pt x="405" y="1212" on="0"/>
        <pt x="387" y="1219" on="1"/>
        <pt x="130" y="1347" on="1"/>
        <pt x="240" y="1555" on="1"/>
        <pt x="483" y="1391" on="1"/>
        <pt x="620" y="1261" on="1"/>
        <pt x="619" y="1268" on="0"/>
        <pt x="605" y="1320" on="0"/>
        <pt x="601" y="1335" on="1"/>
        <pt x="576" y="1424" on="0"/>
        <pt x="574" y="1443" on="1"/>
        <pt x="548" y="1736" on="1"/>
        <pt x="784" y="1736" on="1"/>
        <pt x="767" y="1448" on="1"/>
        <pt x="724" y="1264" on="1"/>
        <pt x="731" y="1270" on="0"/>
        <pt x="779" y="1320" on="1"/>
        <pt x="843" y="1387" on="0"/>
        <pt x="857" y="1398" on="1"/>
        <pt x="1099" y="1564" on="1"/>
        <pt x="1211" y="1358" on="1"/>
        <pt x="958" y="1227" on="1"/>
        <pt x="777" y="1172" on="1"/>
        <pt x="960" y="1123" on="1"/>
        <pt x="1218" y="1000" on="1"/>
        <pt x="1099" y="786" on="1"/>
        <pt x="866" y="948" on="1"/>
        <pt x="725" y="1078" on="1"/>
        <pt x="727" y="1069" on="0"/>
        <pt x="744" y="1006" on="1"/>
        <pt x="768" y="920" on="0"/>
        <pt x="772" y="896" on="1"/>
        <pt x="799" y="603" on="1"/>
        <pt x="563" y="602" on="1"/>
        <pt x="580" y="895" on="1"/>
      </contour>
    </TTGlyph>
    <TTGlyph name="at" xMin="171" yMin="-468" xMax="2056" yMax="1543">
      <contour>
        <pt x="1266" y="225" on="0"/>
        <pt x="1267" y="258" on="1"/>
        <pt x="1196" y="137" on="0"/>
        <pt x="1015" y="-5" on="0"/>
        <pt x="904" y="-5" on="1"/>
        <pt x="835" y="-5" on="0"/>
        <pt x="703" y="93" on="0"/>
        <pt x="617" y="287" on="0"/>
        <pt x="617" y="424" on="1"/>
        <pt x="617" y="575" on="0"/>
        <pt x="746" y="878" on="0"/>
        <pt x="1013" y="1080" on="0"/>
        <pt x="1209" y="1080" on="1"/>
        <pt x="1278" y="1080" on="0"/>
        <pt x="1401" y="1053" on="0"/>
        <pt x="1441" y="1025" on="1"/>
        <pt x="1626" y="1056" on="1"/>
        <pt x="1601" y="948" on="0"/>
        <pt x="1524" y="570" on="0"/>
        <pt x="1498" y="428" on="1"/>
        <pt x="1481" y="333" on="0"/>
        <pt x="1481" y="277" on="1"/>
        <pt x="1481" y="233" on="0"/>
        <pt x="1504" y="196" on="0"/>
        <pt x="1529" y="196" on="1"/>
        <pt x="1604" y="196" on="0"/>
        <pt x="1752" y="343" on="0"/>
        <pt x="1847" y="608" on="0"/>
        <pt x="1847" y="775" on="1"/>
        <pt x="1847" y="1105" on="0"/>
        <pt x="1509" y="1366" on="0"/>
        <pt x="1236" y="1366" on="1"/>
        <pt x="1008" y="1366" on="0"/>
        <pt x="616" y="1141" on="0"/>
        <pt x="382" y="724" on="0"/>
        <pt x="382" y="448" on="1"/>
        <pt x="382" y="184" on="0"/>
        <pt x="579" y="-147" on="0"/>
        <pt x="891" y="-291" on="0"/>
        <pt x="1073" y="-291" on="1"/>
        <pt x="1191" y="-291" on="0"/>
        <pt x="1361" y="-258" on="0"/>
        <pt x="1461" y="-216" on="0"/>
        <pt x="1522" y="-183" on="1"/>
        <pt x="1565" y="-342" on="1"/>
        <pt x="1355" y="-468" on="0"/>
        <pt x="1053" y="-468" on="1"/>
        <pt x="804" y="-468" on="0"/>
        <pt x="405" y="-270" on="0"/>
        <pt x="171" y="138" on="0"/>
        <pt x="171" y="440" on="1"/>
        <pt x="171" y="764" on="0"/>
        <pt x="461" y="1266" on="0"/>
        <pt x="956" y="1543" on="0"/>
        <pt x="1254" y="1543" on="1"/>
        <pt x="1489" y="1543" on="0"/>
        <pt x="1851" y="1373" on="0"/>
        <pt x="2056" y="1041" on="0"/>
        <pt x="2056" y="805" on="1"/>
        <pt x="2056" y="549" on="0"/>
        <pt x="1885" y="182" on="0"/>
        <pt x="1610" y="-5" on="0"/>
        <pt x="1457" y="-5" on="1"/>
        <pt x="1367" y="-5" on="0"/>
        <pt x="1275" y="89" on="0"/>
        <pt x="1268" y="182" on="1"/>
      </contour>
      <contour>
        <pt x="1039" y="222" on="0"/>
        <pt x="1197" y="426" on="0"/>
        <pt x="1319" y="716" on="0"/>
        <pt x="1335" y="829" on="1"/>
        <pt x="1316" y="854" on="0"/>
        <pt x="1233" y="883" on="0"/>
        <pt x="1177" y="883" on="1"/>
        <pt x="1089" y="883" on="0"/>
        <pt x="944" y="759" on="0"/>
        <pt x="862" y="565" on="0"/>
        <pt x="860" y="466" on="1"/>
        <pt x="857" y="222" on="0"/>
        <pt x="974" y="222" on="1"/>
      </contour>
    </TTGlyph>
    <TTGlyph name="atilde" xMin="102" yMin="-16" xMax="1070" yMax="1698">
      <component glyphName="a" x="0" y="0" flags="0x0"/>
      <component glyphName="tilde" x="148" y="-1" flags="0x4"/>
    </TTGlyph>
    <TTGlyph name="b" xMin="168" yMin="-23" xMax="1245" yMax="1661">
      <contour>
        <pt x="916" y="1156" on="0"/>
        <pt x="1122" y="1035" on="0"/>
        <pt x="1245" y="790" on="0"/>
        <pt x="1245" y="612" on="1"/>
        <pt x="1245" y="425" on="0"/>
        <pt x="1095" y="136" on="0"/>
        <pt x="824" y="-23" on="0"/>
        <pt x="649" y="-23" on="1"/>
        <pt x="553" y="-23" on="0"/>
        <pt x="344" y="8" on="0"/>
        <pt x="186" y="50" on="0"/>
        <pt x="168" y="64" on="1"/>
        <pt x="168" y="1661" on="1"/>
        <pt x="480" y="1661" on="1"/>
        <pt x="480" y="1224" on="1"/>
        <pt x="472" y="1036" on="1"/>
        <pt x="526" y="1087" on="0"/>
        <pt x="678" y="1156" on="0"/>
        <pt x="791" y="1156" on="1"/>
      </contour>
      <contour>
        <pt x="918" y="776" on="0"/>
        <pt x="804" y="923" on="0"/>
        <pt x="695" y="923" on="1"/>
        <pt x="633" y="923" on="0"/>
        <pt x="518" y="883" on="0"/>
        <pt x="480" y="852" on="1"/>
        <pt x="480" y="232" on="1"/>
        <pt x="516" y="193" on="0"/>
        <pt x="656" y="193" on="1"/>
        <pt x="732" y="193" on="0"/>
        <pt x="850" y="288" on="0"/>
        <pt x="918" y="470" on="0"/>
        <pt x="918" y="595" on="1"/>
      </contour>
    </TTGlyph>
    <TTGlyph name="backslash" xMin="14" yMin="-363" xMax="830" yMax="1599">
      <contour>
        <pt x="830" y="-363" on="1"/>
        <pt x="575" y="-363" on="1"/>
        <pt x="14" y="1599" on="1"/>
        <pt x="269" y="1599" on="1"/>
      </contour>
    </TTGlyph>
    <TTGlyph name="bar" xMin="305" yMin="-187" xMax="560" yMax="1780">
      <contour>
        <pt x="560" y="1780" on="1"/>
        <pt x="560" y="-187" on="1"/>
        <pt x="305" y="-187" on="1"/>
        <pt x="305" y="1780" on="1"/>
      </contour>
    </TTGlyph>
    <TTGlyph name="braceleft" xMin="68" yMin="-211" xMax="856" yMax="1757">
      <contour>
        <pt x="527" y="855" on="0"/>
        <pt x="422" y="803" on="0"/>
        <pt x="349" y="776" on="1"/>
        <pt x="503" y="722" on="0"/>
        <pt x="555" y="664" on="1"/>
        <pt x="594" y="620" on="0"/>
        <pt x="594" y="562" on="1"/>
        <pt x="594" y="-20" on="1"/>
        <pt x="856" y="-20" on="1"/>
        <pt x="856" y="-176" on="1"/>
        <pt x="794" y="-193" on="0"/>
        <pt x="629" y="-211" on="0"/>
        <pt x="544" y="-211" on="1"/>
        <pt x="466" y="-211" on="0"/>
        <pt x="370" y="-157" on="0"/>
        <pt x="324" y="-39" on="0"/>
        <pt x="324" y="60" on="1"/>
        <pt x="324" y="547" on="1"/>
        <pt x="324" y="581" on="0"/>
        <pt x="242" y="639" on="0"/>
        <pt x="122" y="677" on="0"/>
        <pt x="68" y="682" on="1"/>
        <pt x="68" y="873" on="1"/>
        <pt x="125" y="879" on="0"/>
        <pt x="243" y="911" on="0"/>
        <pt x="324" y="965" on="0"/>
        <pt x="324" y="1000" on="1"/>
        <pt x="324" y="1486" on="1"/>
        <pt x="324" y="1585" on="0"/>
        <pt x="370" y="1703" on="0"/>
        <pt x="466" y="1757" on="0"/>
        <pt x="544" y="1757" on="1"/>
        <pt x="668" y="1757" on="0"/>
        <pt x="856" y="1733" on="1"/>
        <pt x="856" y="1562" on="1"/>
        <pt x="594" y="1562" on="1"/>
        <pt x="594" y="991" on="1"/>
        <pt x="594" y="931" on="0"/>
        <pt x="555" y="887" on="1"/>
      </contour>
    </TTGlyph>
    <TTGlyph name="braceright" xMin="86" yMin="-211" xMax="874" yMax="1757">
      <contour>
        <pt x="618" y="965" on="0"/>
        <pt x="699" y="911" on="0"/>
        <pt x="817" y="879" on="0"/>
        <pt x="874" y="873" on="1"/>
        <pt x="874" y="682" on="1"/>
        <pt x="820" y="677" on="0"/>
        <pt x="700" y="639" on="0"/>
        <pt x="618" y="581" on="0"/>
        <pt x="618" y="547" on="1"/>
        <pt x="618" y="60" on="1"/>
        <pt x="618" y="-39" on="0"/>
        <pt x="572" y="-157" on="0"/>
        <pt x="476" y="-211" on="0"/>
        <pt x="398" y="-211" on="1"/>
        <pt x="313" y="-211" on="0"/>
        <pt x="148" y="-193" on="0"/>
        <pt x="86" y="-176" on="1"/>
        <pt x="86" y="-20" on="1"/>
        <pt x="348" y="-20" on="1"/>
        <pt x="348" y="562" on="1"/>
        <pt x="348" y="620" on="0"/>
        <pt x="387" y="664" on="1"/>
        <pt x="439" y="722" on="0"/>
        <pt x="593" y="776" on="1"/>
        <pt x="520" y="803" on="0"/>
        <pt x="415" y="855" on="0"/>
        <pt x="387" y="887" on="1"/>
        <pt x="348" y="931" on="0"/>
        <pt x="348" y="991" on="1"/>
        <pt x="348" y="1562" on="1"/>
        <pt x="86" y="1562" on="1"/>
        <pt x="86" y="1733" on="1"/>
        <pt x="274" y="1757" on="0"/>
        <pt x="398" y="1757" on="1"/>
        <pt x="476" y="1757" on="0"/>
        <pt x="572" y="1703" on="0"/>
        <pt x="618" y="1585" on="0"/>
        <pt x="618" y="1486" on="1"/>
        <pt x="618" y="1000" on="1"/>
      </contour>
    </TTGlyph>
    <TTGlyph name="bracketleft" xMin="145" yMin="-191" xMax="696" yMax="1737">
      <contour>
        <pt x="145" y="1588" on="0"/>
        <pt x="177" y="1693" on="0"/>
        <pt x="257" y="1737" on="0"/>
        <pt x="335" y="1737" on="1"/>
        <pt x="416" y="1737" on="0"/>
        <pt x="526" y="1730" on="0"/>
        <pt x="603" y="1722" on="1"/>
        <pt x="696" y="1713" on="1"/>
        <pt x="696" y="1550" on="1"/>
        <pt x="428" y="1550" on="1"/>
        <pt x="428" y="-20" on="1"/>
        <pt x="696" y="-22" on="1"/>
        <pt x="696" y="-167" on="1"/>
        <pt x="652" y="-172" on="1"/>
        <pt x="555" y="-182" on="0"/>
        <pt x="433" y="-191" on="0"/>
        <pt x="335" y="-191" on="1"/>
        <pt x="256" y="-191" on="0"/>
        <pt x="176" y="-147" on="0"/>
        <pt x="145" y="-42" on="0"/>
        <pt x="145" y="60" on="1"/>
        <pt x="145" y="1486" on="1"/>
      </contour>
    </TTGlyph>
    <TTGlyph name="bracketright" xMin="93" yMin="-191" xMax="644" yMax="1737">
      <contour>
        <pt x="644" y="60" on="1"/>
        <pt x="644" y="-42" on="0"/>
        <pt x="613" y="-147" on="0"/>
        <pt x="533" y="-191" on="0"/>
        <pt x="454" y="-191" on="1"/>
        <pt x="356" y="-191" on="0"/>
        <pt x="234" y="-182" on="0"/>
        <pt x="137" y="-172" on="1"/>
        <pt x="93" y="-167" on="1"/>
        <pt x="93" y="-22" on="1"/>
        <pt x="361" y="-20" on="1"/>
        <pt x="361" y="1550" on="1"/>
        <pt x="93" y="1550" on="1"/>
        <pt x="93" y="1713" on="1"/>
        <pt x="186" y="1722" on="1"/>
        <pt x="263" y="1730" on="0"/>
        <pt x="373" y="1737" on="0"/>
        <pt x="454" y="1737" on="1"/>
        <pt x="532" y="1737" on="0"/>
        <pt x="612" y="1693" on="0"/>
        <pt x="644" y="1588" on="0"/>
        <pt x="644" y="1486" on="1"/>
      </contour>
    </TTGlyph>
    <TTGlyph name="breve" xMin="40" yMin="1298" xMax="776" yMax="1685">
      <contour>
        <pt x="240" y="1685" on="1"/>
        <pt x="244" y="1645" on="0"/>
        <pt x="264" y="1576" on="0"/>
        <pt x="338" y="1516" on="0"/>
        <pt x="409" y="1516" on="1"/>
        <pt x="478" y="1516" on="0"/>
        <pt x="552" y="1576" on="0"/>
        <pt x="575" y="1646" on="0"/>
        <pt x="579" y="1685" on="1"/>
        <pt x="772" y="1685" on="1"/>
        <pt x="776" y="1580" on="0"/>
        <pt x="687" y="1402" on="0"/>
        <pt x="518" y="1298" on="0"/>
        <pt x="408" y="1298" on="1"/>
        <pt x="293" y="1298" on="0"/>
        <pt x="125" y="1402" on="0"/>
        <pt x="40" y="1579" on="0"/>
        <pt x="44" y="1685" on="1"/>
      </contour>
    </TTGlyph>
    <TTGlyph name="breve.cap" xMin="40" yMin="1614" xMax="775" yMax="1960">
      <contour>
        <pt x="235" y="1960" on="1"/>
        <pt x="238" y="1925" on="0"/>
        <pt x="262" y="1864" on="0"/>
        <pt x="337" y="1817" on="0"/>
        <pt x="408" y="1817" on="1"/>
        <pt x="572" y="1817" on="0"/>
        <pt x="584" y="1960" on="1"/>
        <pt x="771" y="1960" on="1"/>
        <pt x="775" y="1858" on="0"/>
        <pt x="691" y="1702" on="0"/>
        <pt x="524" y="1614" on="0"/>
        <pt x="408" y="1614" on="1"/>
        <pt x="287" y="1614" on="0"/>
        <pt x="120" y="1701" on="0"/>
        <pt x="40" y="1857" on="0"/>
        <pt x="44" y="1960" on="1"/>
      </contour>
    </TTGlyph>
    <TTGlyph name="brokenbar" xMin="305" yMin="-186" xMax="560" yMax="1780">
      <contour>
        <pt x="560" y="1780" on="1"/>
        <pt x="560" y="964" on="1"/>
        <pt x="305" y="964" on="1"/>
        <pt x="305" y="1780" on="1"/>
      </contour>
      <contour>
        <pt x="560" y="620" on="1"/>
        <pt x="560" y="-186" on="1"/>
        <pt x="305" y="-186" on="1"/>
        <pt x="305" y="620" on="1"/>
      </contour>
    </TTGlyph>
    <TTGlyph name="bullet" xMin="187" yMin="467" xMax="718" yMax="995">
      <contour>
        <pt x="187" y="792" on="0"/>
        <pt x="263" y="919" on="0"/>
        <pt x="391" y="995" on="0"/>
        <pt x="464" y="995" on="1"/>
        <pt x="536" y="995" on="0"/>
        <pt x="652" y="930" on="0"/>
        <pt x="718" y="815" on="0"/>
        <pt x="718" y="744" on="1"/>
        <pt x="718" y="671" on="0"/>
        <pt x="643" y="543" on="0"/>
        <pt x="516" y="467" on="0"/>
        <pt x="443" y="467" on="1"/>
        <pt x="371" y="467" on="0"/>
        <pt x="254" y="534" on="0"/>
        <pt x="187" y="649" on="0"/>
        <pt x="187" y="719" on="1"/>
      </contour>
    </TTGlyph>
    <TTGlyph name="c" xMin="95" yMin="-16" xMax="977" yMax="1156">
      <contour>
        <pt x="765" y="1156" on="0"/>
        <pt x="929" y="1121" on="0"/>
        <pt x="960" y="1098" on="1"/>
        <pt x="921" y="857" on="1"/>
        <pt x="878" y="880" on="0"/>
        <pt x="773" y="901" on="0"/>
        <pt x="696" y="901" on="1"/>
        <pt x="624" y="901" on="0"/>
        <pt x="494" y="840" on="0"/>
        <pt x="408" y="703" on="0"/>
        <pt x="405" y="595" on="1"/>
        <pt x="402" y="476" on="0"/>
        <pt x="472" y="314" on="0"/>
        <pt x="601" y="235" on="0"/>
        <pt x="684" y="235" on="1"/>
        <pt x="759" y="235" on="0"/>
        <pt x="896" y="262" on="0"/>
        <pt x="932" y="282" on="1"/>
        <pt x="977" y="97" on="1"/>
        <pt x="924" y="46" on="0"/>
        <pt x="734" y="-16" on="0"/>
        <pt x="627" y="-16" on="1"/>
        <pt x="455" y="-16" on="0"/>
        <pt x="215" y="131" on="0"/>
        <pt x="95" y="390" on="0"/>
        <pt x="95" y="556" on="1"/>
        <pt x="95" y="728" on="0"/>
        <pt x="221" y="1000" on="0"/>
        <pt x="477" y="1156" on="0"/>
        <pt x="664" y="1156" on="1"/>
      </contour>
    </TTGlyph>
    <TTGlyph name="cacute" xMin="95" yMin="-16" xMax="1059" yMax="1808">
      <component glyphName="acute" x="449" y="0" flags="0x0"/>
      <component glyphName="c" x="0" y="0" flags="0x0"/>
    </TTGlyph>
    <TTGlyph name="caron" xMin="43" yMin="1237" xMax="835" yMax="1699">
      <contour>
        <pt x="441" y="1453" on="1"/>
        <pt x="674" y="1699" on="1"/>
        <pt x="835" y="1609" on="1"/>
        <pt x="552" y="1237" on="1"/>
        <pt x="329" y="1237" on="1"/>
        <pt x="43" y="1610" on="1"/>
        <pt x="199" y="1699" on="1"/>
      </contour>
    </TTGlyph>
    <TTGlyph name="caron.cap" xMin="49" yMin="1576" xMax="803" yMax="1960">
      <contour>
        <pt x="206" y="1960" on="1"/>
        <pt x="426" y="1779" on="1"/>
        <pt x="649" y="1960" on="1"/>
        <pt x="803" y="1869" on="1"/>
        <pt x="536" y="1576" on="1"/>
        <pt x="317" y="1576" on="1"/>
        <pt x="49" y="1868" on="1"/>
      </contour>
    </TTGlyph>
    <TTGlyph name="caronvertical" xMin="65" yMin="1010" xMax="363" yMax="1708">
      <contour>
        <pt x="102" y="1061" on="1"/>
        <pt x="112" y="1108" on="0"/>
        <pt x="125" y="1276" on="0"/>
        <pt x="124" y="1357" on="1"/>
        <pt x="124" y="1424" on="0"/>
        <pt x="89" y="1549" on="0"/>
        <pt x="65" y="1574" on="1"/>
        <pt x="77" y="1638" on="1"/>
        <pt x="292" y="1708" on="1"/>
        <pt x="363" y="1641" on="0"/>
        <pt x="363" y="1440" on="1"/>
        <pt x="363" y="1358" on="0"/>
        <pt x="326" y="1181" on="0"/>
        <pt x="270" y="1041" on="0"/>
        <pt x="243" y="1010" on="1"/>
        <pt x="110" y="1038" on="1"/>
      </contour>
    </TTGlyph>
    <TTGlyph name="ccaron" xMin="95" yMin="-16" xMax="1030" yMax="1713">
      <component glyphName="caron" x="195" y="14" flags="0x4"/>
      <component glyphName="c" x="0" y="0" flags="0x0"/>
    </TTGlyph>
    <TTGlyph name="ccedilla" xMin="95" yMin="-464" xMax="977" yMax="1156">
      <contour>
        <pt x="936" y="57" on="0"/>
        <pt x="798" y="1" on="0"/>
        <pt x="715" y="-10" on="1"/>
        <pt x="734" y="-49" on="0"/>
        <pt x="751" y="-163" on="0"/>
        <pt x="749" y="-221" on="1"/>
        <pt x="745" y="-343" on="0"/>
        <pt x="602" y="-464" on="0"/>
        <pt x="494" y="-464" on="1"/>
        <pt x="447" y="-464" on="0"/>
        <pt x="332" y="-447" on="0"/>
        <pt x="314" y="-436" on="1"/>
        <pt x="334" y="-271" on="1"/>
        <pt x="356" y="-285" on="0"/>
        <pt x="411" y="-285" on="1"/>
        <pt x="462" y="-285" on="0"/>
        <pt x="529" y="-209" on="0"/>
        <pt x="532" y="-135" on="1"/>
        <pt x="533" y="-123" on="0"/>
        <pt x="533" y="-100" on="1"/>
        <pt x="533" y="-44" on="0"/>
        <pt x="519" y="-8" on="1"/>
        <pt x="381" y="14" on="0"/>
        <pt x="190" y="170" on="0"/>
        <pt x="95" y="408" on="0"/>
        <pt x="95" y="556" on="1"/>
        <pt x="95" y="728" on="0"/>
        <pt x="221" y="1000" on="0"/>
        <pt x="477" y="1156" on="0"/>
        <pt x="664" y="1156" on="1"/>
        <pt x="765" y="1156" on="0"/>
        <pt x="929" y="1121" on="0"/>
        <pt x="960" y="1098" on="1"/>
        <pt x="921" y="857" on="1"/>
        <pt x="878" y="880" on="0"/>
        <pt x="773" y="901" on="0"/>
        <pt x="696" y="901" on="1"/>
        <pt x="624" y="901" on="0"/>
        <pt x="494" y="840" on="0"/>
        <pt x="408" y="703" on="0"/>
        <pt x="405" y="595" on="1"/>
        <pt x="402" y="476" on="0"/>
        <pt x="472" y="314" on="0"/>
        <pt x="601" y="235" on="0"/>
        <pt x="684" y="235" on="1"/>
        <pt x="759" y="235" on="0"/>
        <pt x="896" y="262" on="0"/>
        <pt x="932" y="282" on="1"/>
        <pt x="977" y="97" on="1"/>
      </contour>
    </TTGlyph>
    <TTGlyph name="ccircumflex" xMin="95" yMin="-16" xMax="1034" yMax="1699">
      <component glyphName="circumflex" x="199" y="0" flags="0x0"/>
      <component glyphName="c" x="0" y="0" flags="0x0"/>
    </TTGlyph>
    <TTGlyph name="cdotaccent" xMin="95" yMin="-16" xMax="977" yMax="1665">
      <component glyphName="c" x="0" y="0" flags="0x0"/>
      <component glyphName="dotaccent" x="388" y="0" flags="0x0"/>
    </TTGlyph>
    <TTGlyph name="cedilla" xMin="33" yMin="-464" xMax="471" yMax="34">
      <contour>
        <pt x="75" y="-285" on="0"/>
        <pt x="130" y="-285" on="1"/>
        <pt x="181" y="-285" on="0"/>
        <pt x="248" y="-209" on="0"/>
        <pt x="251" y="-135" on="1"/>
        <pt x="252" y="-123" on="0"/>
        <pt x="252" y="-101" on="1"/>
        <pt x="252" y="-57" on="0"/>
        <pt x="235" y="3" on="0"/>
        <pt x="220" y="30" on="1"/>
        <pt x="357" y="34" on="1"/>
        <pt x="406" y="30" on="1"/>
        <pt x="439" y="-1" on="0"/>
        <pt x="471" y="-143" on="0"/>
        <pt x="468" y="-221" on="1"/>
        <pt x="464" y="-343" on="0"/>
        <pt x="321" y="-464" on="0"/>
        <pt x="213" y="-464" on="1"/>
        <pt x="166" y="-464" on="0"/>
        <pt x="51" y="-447" on="0"/>
        <pt x="33" y="-436" on="1"/>
        <pt x="53" y="-271" on="1"/>
      </contour>
    </TTGlyph>
    <TTGlyph name="cent" xMin="144" yMin="-216" xMax="1026" yMax="1377">
      <contour>
        <pt x="981" y="54" on="0"/>
        <pt x="829" y="-5" on="0"/>
        <pt x="739" y="-13" on="1"/>
        <pt x="736" y="-216" on="1"/>
        <pt x="564" y="-216" on="1"/>
        <pt x="568" y="-8" on="1"/>
        <pt x="430" y="14" on="0"/>
        <pt x="239" y="170" on="0"/>
        <pt x="144" y="408" on="0"/>
        <pt x="144" y="556" on="1"/>
        <pt x="144" y="709" on="0"/>
        <pt x="244" y="959" on="0"/>
        <pt x="448" y="1124" on="0"/>
        <pt x="597" y="1147" on="1"/>
        <pt x="603" y="1377" on="1"/>
        <pt x="774" y="1377" on="1"/>
        <pt x="769" y="1154" on="1"/>
        <pt x="852" y="1150" on="0"/>
        <pt x="982" y="1117" on="0"/>
        <pt x="1009" y="1098" on="1"/>
        <pt x="970" y="857" on="1"/>
        <pt x="927" y="880" on="0"/>
        <pt x="822" y="901" on="0"/>
        <pt x="745" y="901" on="1"/>
        <pt x="673" y="901" on="0"/>
        <pt x="543" y="840" on="0"/>
        <pt x="457" y="703" on="0"/>
        <pt x="454" y="595" on="1"/>
        <pt x="451" y="476" on="0"/>
        <pt x="521" y="314" on="0"/>
        <pt x="650" y="235" on="0"/>
        <pt x="733" y="235" on="1"/>
        <pt x="808" y="235" on="0"/>
        <pt x="945" y="262" on="0"/>
        <pt x="981" y="282" on="1"/>
        <pt x="1026" y="97" on="1"/>
      </contour>
    </TTGlyph>
    <TTGlyph name="circumflex" xMin="43" yMin="1237" xMax="835" yMax="1699">
      <contour>
        <pt x="329" y="1699" on="1"/>
        <pt x="552" y="1699" on="1"/>
        <pt x="835" y="1327" on="1"/>
        <pt x="674" y="1237" on="1"/>
        <pt x="441" y="1483" on="1"/>
        <pt x="199" y="1237" on="1"/>
        <pt x="43" y="1326" on="1"/>
      </contour>
    </TTGlyph>
    <TTGlyph name="circumflex.cap" xMin="49" yMin="1560" xMax="819" yMax="1960">
      <contour>
        <pt x="323" y="1960" on="1"/>
        <pt x="543" y="1960" on="1"/>
        <pt x="819" y="1652" on="1"/>
        <pt x="654" y="1560" on="1"/>
        <pt x="433" y="1759" on="1"/>
        <pt x="211" y="1560" on="1"/>
        <pt x="49" y="1650" on="1"/>
      </contour>
    </TTGlyph>
    <TTGlyph name="colon" xMin="126" yMin="-22" xMax="515" yMax="1142">
      <component glyphName="period" x="0" y="0" flags="0x0"/>
      <component glyphName="period" x="0" y="759" flags="0x4"/>
    </TTGlyph>
    <TTGlyph name="colonmonetary" xMin="98" yMin="-354" xMax="1302" yMax="1815">
      <contour>
        <pt x="718" y="1815" on="1"/>
        <pt x="835" y="1815" on="1"/>
        <pt x="816" y="1533" on="1"/>
        <pt x="871" y="1538" on="0"/>
        <pt x="917" y="1538" on="1"/>
        <pt x="941" y="1538" on="0"/>
        <pt x="953" y="1537" on="1"/>
        <pt x="972" y="1815" on="1"/>
        <pt x="1089" y="1815" on="1"/>
        <pt x="1070" y="1529" on="1"/>
        <pt x="1125" y="1522" on="0"/>
        <pt x="1204" y="1504" on="0"/>
        <pt x="1259" y="1489" on="1"/>
        <pt x="1279" y="1482" on="0"/>
        <pt x="1302" y="1477" on="1"/>
        <pt x="1256" y="1165" on="1"/>
        <pt x="1178" y="1223" on="0"/>
        <pt x="1051" y="1240" on="1"/>
        <pt x="986" y="267" on="1"/>
        <pt x="1075" y="272" on="0"/>
        <pt x="1245" y="330" on="0"/>
        <pt x="1282" y="364" on="1"/>
        <pt x="1282" y="64" on="1"/>
        <pt x="1214" y="34" on="0"/>
        <pt x="1065" y="-9" on="0"/>
        <pt x="967" y="-14" on="1"/>
        <pt x="945" y="-354" on="1"/>
        <pt x="828" y="-354" on="1"/>
        <pt x="850" y="-14" on="1"/>
        <pt x="782" y="-11" on="0"/>
        <pt x="714" y="0" on="1"/>
        <pt x="691" y="-354" on="1"/>
        <pt x="574" y="-354" on="1"/>
        <pt x="599" y="26" on="1"/>
        <pt x="355" y="98" on="0"/>
        <pt x="98" y="476" on="0"/>
        <pt x="98" y="757" on="1"/>
        <pt x="98" y="967" on="0"/>
        <pt x="251" y="1283" on="0"/>
        <pt x="521" y="1479" on="0"/>
        <pt x="698" y="1516" on="1"/>
      </contour>
      <contour>
        <pt x="934" y="1246" on="1"/>
        <pt x="861" y="1245" on="0"/>
        <pt x="796" y="1228" on="1"/>
        <pt x="734" y="304" on="1"/>
        <pt x="796" y="280" on="0"/>
        <pt x="869" y="271" on="1"/>
      </contour>
      <contour>
        <pt x="675" y="1179" on="1"/>
        <pt x="579" y="1121" on="0"/>
        <pt x="473" y="917" on="0"/>
        <pt x="473" y="779" on="1"/>
        <pt x="473" y="646" on="0"/>
        <pt x="548" y="440" on="0"/>
        <pt x="622" y="374" on="1"/>
      </contour>
    </TTGlyph>
    <TTGlyph name="comma" xMin="163" yMin="-506" xMax="569" yMax="296">
      <contour>
        <pt x="203" y="-366" on="0"/>
        <pt x="251" y="-289" on="0"/>
        <pt x="280" y="-188" on="0"/>
        <pt x="280" y="-136" on="1"/>
        <pt x="280" y="-91" on="0"/>
        <pt x="243" y="6" on="0"/>
        <pt x="188" y="72" on="0"/>
        <pt x="163" y="73" on="1"/>
        <pt x="163" y="160" on="1"/>
        <pt x="385" y="296" on="1"/>
        <pt x="444" y="274" on="0"/>
        <pt x="527" y="169" on="0"/>
        <pt x="569" y="39" on="0"/>
        <pt x="569" y="-22" on="1"/>
        <pt x="569" y="-133" on="0"/>
        <pt x="492" y="-335" on="0"/>
        <pt x="361" y="-479" on="0"/>
        <pt x="282" y="-506" on="1"/>
        <pt x="176" y="-408" on="1"/>
        <pt x="176" y="-382" on="1"/>
      </contour>
    </TTGlyph>
    <TTGlyph name="copyright" xMin="176" yMin="82" xMax="1917" yMax="1840">
      <contour>
        <pt x="1285" y="1840" on="0"/>
        <pt x="1685" y="1605" on="0"/>
        <pt x="1917" y="1202" on="0"/>
        <pt x="1917" y="963" on="1"/>
        <pt x="1917" y="723" on="0"/>
        <pt x="1684" y="319" on="0"/>
        <pt x="1285" y="82" on="0"/>
        <pt x="1046" y="82" on="1"/>
        <pt x="807" y="82" on="0"/>
        <pt x="408" y="319" on="0"/>
        <pt x="176" y="723" on="0"/>
        <pt x="176" y="963" on="1"/>
        <pt x="176" y="1202" on="0"/>
        <pt x="408" y="1605" on="0"/>
        <pt x="807" y="1840" on="0"/>
        <pt x="1046" y="1840" on="1"/>
      </contour>
      <contour>
        <pt x="1251" y="211" on="0"/>
        <pt x="1584" y="413" on="0"/>
        <pt x="1774" y="758" on="0"/>
        <pt x="1774" y="963" on="1"/>
        <pt x="1774" y="1168" on="0"/>
        <pt x="1584" y="1512" on="0"/>
        <pt x="1251" y="1714" on="0"/>
        <pt x="1046" y="1714" on="1"/>
        <pt x="841" y="1714" on="0"/>
        <pt x="508" y="1512" on="0"/>
        <pt x="318" y="1168" on="0"/>
        <pt x="318" y="963" on="1"/>
        <pt x="318" y="758" on="0"/>
        <pt x="508" y="413" on="0"/>
        <pt x="841" y="211" on="0"/>
        <pt x="1046" y="211" on="1"/>
      </contour>
      <contour>
        <pt x="1179" y="1449" on="0"/>
        <pt x="1315" y="1421" on="0"/>
        <pt x="1349" y="1402" on="1"/>
        <pt x="1304" y="1196" on="1"/>
        <pt x="1271" y="1220" on="0"/>
        <pt x="1151" y="1254" on="0"/>
        <pt x="1092" y="1254" on="1"/>
        <pt x="1018" y="1254" on="0"/>
        <pt x="903" y="1191" on="0"/>
        <pt x="838" y="1072" on="0"/>
        <pt x="838" y="991" on="1"/>
        <pt x="838" y="827" on="0"/>
        <pt x="980" y="674" on="0"/>
        <pt x="1104" y="674" on="1"/>
        <pt x="1222" y="674" on="0"/>
        <pt x="1329" y="738" on="1"/>
        <pt x="1377" y="579" on="1"/>
        <pt x="1325" y="536" on="0"/>
        <pt x="1144" y="475" on="0"/>
        <pt x="1049" y="475" on="1"/>
        <pt x="916" y="475" on="0"/>
        <pt x="714" y="604" on="0"/>
        <pt x="604" y="824" on="0"/>
        <pt x="604" y="955" on="1"/>
        <pt x="604" y="1097" on="0"/>
        <pt x="720" y="1321" on="0"/>
        <pt x="943" y="1449" on="0"/>
        <pt x="1099" y="1449" on="1"/>
      </contour>
    </TTGlyph>
    <TTGlyph name="currency" xMin="200" yMin="170" xMax="1344" yMax="1381">
      <contour>
        <pt x="1214" y="702" on="0"/>
        <pt x="1173" y="571" on="0"/>
        <pt x="1136" y="515" on="1"/>
        <pt x="1331" y="316" on="1"/>
        <pt x="1191" y="171" on="1"/>
        <pt x="988" y="377" on="1"/>
        <pt x="884" y="317" on="0"/>
        <pt x="764" y="317" on="1"/>
        <pt x="644" y="317" on="0"/>
        <pt x="543" y="376" on="1"/>
        <pt x="341" y="170" on="1"/>
        <pt x="200" y="314" on="1"/>
        <pt x="395" y="513" on="1"/>
        <pt x="357" y="569" on="0"/>
        <pt x="316" y="701" on="0"/>
        <pt x="316" y="773" on="1"/>
        <pt x="316" y="913" on="0"/>
        <pt x="393" y="1030" on="1"/>
        <pt x="201" y="1227" on="1"/>
        <pt x="340" y="1374" on="1"/>
        <pt x="540" y="1168" on="1"/>
        <pt x="643" y="1229" on="0"/>
        <pt x="764" y="1229" on="1"/>
        <pt x="887" y="1229" on="0"/>
        <pt x="990" y="1168" on="1"/>
        <pt x="1203" y="1381" on="1"/>
        <pt x="1344" y="1234" on="1"/>
        <pt x="1138" y="1027" on="1"/>
        <pt x="1214" y="911" on="0"/>
        <pt x="1214" y="773" on="1"/>
      </contour>
      <contour>
        <pt x="827" y="537" on="0"/>
        <pt x="931" y="602" on="0"/>
        <pt x="992" y="711" on="0"/>
        <pt x="992" y="773" on="1"/>
        <pt x="992" y="835" on="0"/>
        <pt x="931" y="944" on="0"/>
        <pt x="827" y="1009" on="0"/>
        <pt x="766" y="1009" on="1"/>
        <pt x="705" y="1009" on="0"/>
        <pt x="600" y="944" on="0"/>
        <pt x="538" y="835" on="0"/>
        <pt x="538" y="773" on="1"/>
        <pt x="538" y="711" on="0"/>
        <pt x="600" y="602" on="0"/>
        <pt x="705" y="537" on="0"/>
        <pt x="766" y="537" on="1"/>
      </contour>
    </TTGlyph>
    <TTGlyph name="d" xMin="95" yMin="-16" xMax="1171" yMax="1662">
      <contour>
        <pt x="1171" y="1662" on="1"/>
        <pt x="1171" y="-16" on="1"/>
        <pt x="959" y="-16" on="1"/>
        <pt x="921" y="-16" on="0"/>
        <pt x="884" y="7" on="0"/>
        <pt x="884" y="42" on="1"/>
        <pt x="884" y="119" on="1"/>
        <pt x="829" y="63" on="0"/>
        <pt x="672" y="-16" on="0"/>
        <pt x="549" y="-16" on="1"/>
        <pt x="424" y="-16" on="0"/>
        <pt x="218" y="107" on="0"/>
        <pt x="95" y="355" on="0"/>
        <pt x="95" y="533" on="1"/>
        <pt x="95" y="720" on="0"/>
        <pt x="240" y="1002" on="0"/>
        <pt x="503" y="1156" on="0"/>
        <pt x="675" y="1156" on="1"/>
        <pt x="777" y="1156" on="0"/>
        <pt x="862" y="1124" on="1"/>
        <pt x="859" y="1224" on="1"/>
        <pt x="859" y="1662" on="1"/>
      </contour>
      <contour>
        <pt x="422" y="375" on="0"/>
        <pt x="537" y="227" on="0"/>
        <pt x="645" y="227" on="1"/>
        <pt x="706" y="227" on="0"/>
        <pt x="821" y="261" on="0"/>
        <pt x="859" y="287" on="1"/>
        <pt x="859" y="902" on="1"/>
        <pt x="831" y="921" on="0"/>
        <pt x="745" y="934" on="0"/>
        <pt x="684" y="934" on="1"/>
        <pt x="607" y="934" on="0"/>
        <pt x="489" y="848" on="0"/>
        <pt x="422" y="676" on="0"/>
        <pt x="422" y="551" on="1"/>
      </contour>
    </TTGlyph>
    <TTGlyph name="dagger" xMin="107" yMin="200" xMax="929" yMax="1658">
      <contour>
        <pt x="107" y="1076" on="1"/>
        <pt x="108" y="1288" on="1"/>
        <pt x="390" y="1286" on="1"/>
        <pt x="390" y="1658" on="1"/>
        <pt x="646" y="1658" on="1"/>
        <pt x="646" y="1286" on="1"/>
        <pt x="929" y="1288" on="1"/>
        <pt x="929" y="1076" on="1"/>
        <pt x="646" y="1077" on="1"/>
        <pt x="634" y="200" on="1"/>
        <pt x="406" y="200" on="1"/>
        <pt x="390" y="1077" on="1"/>
      </contour>
    </TTGlyph>
    <TTGlyph name="daggerdbl" xMin="107" yMin="-356" xMax="929" yMax="1658">
      <contour>
        <pt x="107" y="427" on="1"/>
        <pt x="107" y="639" on="1"/>
        <pt x="390" y="639" on="1"/>
        <pt x="390" y="1077" on="1"/>
        <pt x="107" y="1076" on="1"/>
        <pt x="108" y="1288" on="1"/>
        <pt x="390" y="1287" on="1"/>
        <pt x="390" y="1658" on="1"/>
        <pt x="645" y="1658" on="1"/>
        <pt x="645" y="1287" on="1"/>
        <pt x="929" y="1288" on="1"/>
        <pt x="929" y="1076" on="1"/>
        <pt x="645" y="1077" on="1"/>
        <pt x="645" y="639" on="1"/>
        <pt x="928" y="639" on="1"/>
        <pt x="928" y="427" on="1"/>
        <pt x="645" y="428" on="1"/>
        <pt x="624" y="-356" on="1"/>
        <pt x="405" y="-356" on="1"/>
        <pt x="390" y="428" on="1"/>
      </contour>
    </TTGlyph>
    <TTGlyph name="dcaron" xMin="95" yMin="-16" xMax="1650" yMax="1708">
      <component glyphName="d" x="0" y="0" flags="0x0"/>
      <component glyphName="caronvertical" x="1287" y="0" flags="0x0"/>
    </TTGlyph>
    <TTGlyph name="dcroat" xMin="95" yMin="-16" xMax="1299" yMax="1662">
      <contour>
        <pt x="1299" y="1293" on="1"/>
        <pt x="1171" y="1293" on="1"/>
        <pt x="1171" y="-16" on="1"/>
        <pt x="959" y="-16" on="1"/>
        <pt x="921" y="-16" on="0"/>
        <pt x="884" y="7" on="0"/>
        <pt x="884" y="42" on="1"/>
        <pt x="884" y="119" on="1"/>
        <pt x="829" y="63" on="0"/>
        <pt x="672" y="-16" on="0"/>
        <pt x="549" y="-16" on="1"/>
        <pt x="424" y="-16" on="0"/>
        <pt x="218" y="107" on="0"/>
        <pt x="95" y="355" on="0"/>
        <pt x="95" y="533" on="1"/>
        <pt x="95" y="720" on="0"/>
        <pt x="240" y="1002" on="0"/>
        <pt x="503" y="1156" on="0"/>
        <pt x="675" y="1156" on="1"/>
        <pt x="777" y="1156" on="0"/>
        <pt x="862" y="1124" on="1"/>
        <pt x="859" y="1224" on="1"/>
        <pt x="859" y="1293" on="1"/>
        <pt x="632" y="1293" on="1"/>
        <pt x="632" y="1473" on="1"/>
        <pt x="859" y="1473" on="1"/>
        <pt x="859" y="1662" on="1"/>
        <pt x="1171" y="1662" on="1"/>
        <pt x="1171" y="1473" on="1"/>
        <pt x="1299" y="1473" on="1"/>
      </contour>
      <contour>
        <pt x="422" y="375" on="0"/>
        <pt x="537" y="227" on="0"/>
        <pt x="645" y="227" on="1"/>
        <pt x="706" y="227" on="0"/>
        <pt x="821" y="261" on="0"/>
        <pt x="859" y="287" on="1"/>
        <pt x="859" y="902" on="1"/>
        <pt x="831" y="921" on="0"/>
        <pt x="745" y="934" on="0"/>
        <pt x="684" y="934" on="1"/>
        <pt x="607" y="934" on="0"/>
        <pt x="489" y="848" on="0"/>
        <pt x="422" y="676" on="0"/>
        <pt x="422" y="551" on="1"/>
      </contour>
    </TTGlyph>
    <TTGlyph name="degree" xMin="118" yMin="921" xMax="838" yMax="1634">
      <contour>
        <pt x="577" y="1634" on="0"/>
        <pt x="742" y="1540" on="0"/>
        <pt x="838" y="1376" on="0"/>
        <pt x="838" y="1278" on="1"/>
        <pt x="838" y="1176" on="0"/>
        <pt x="745" y="1013" on="0"/>
        <pt x="580" y="921" on="0"/>
        <pt x="478" y="921" on="1"/>
        <pt x="379" y="921" on="0"/>
        <pt x="214" y="1016" on="0"/>
        <pt x="118" y="1180" on="0"/>
        <pt x="118" y="1278" on="1"/>
        <pt x="118" y="1379" on="0"/>
        <pt x="212" y="1541" on="0"/>
        <pt x="376" y="1634" on="0"/>
        <pt x="478" y="1634" on="1"/>
      </contour>
      <contour>
        <pt x="526" y="1097" on="0"/>
        <pt x="606" y="1144" on="0"/>
        <pt x="651" y="1227" on="0"/>
        <pt x="651" y="1278" on="1"/>
        <pt x="651" y="1328" on="0"/>
        <pt x="605" y="1411" on="0"/>
        <pt x="525" y="1458" on="0"/>
        <pt x="478" y="1458" on="1"/>
        <pt x="430" y="1458" on="0"/>
        <pt x="351" y="1411" on="0"/>
        <pt x="306" y="1329" on="0"/>
        <pt x="306" y="1278" on="1"/>
        <pt x="306" y="1228" on="0"/>
        <pt x="352" y="1145" on="0"/>
        <pt x="431" y="1097" on="0"/>
        <pt x="478" y="1097" on="1"/>
      </contour>
    </TTGlyph>
    <TTGlyph name="dieresis" xMin="70" yMin="1310" xMax="904" yMax="1663">
      <contour>
        <pt x="70" y="1527" on="0"/>
        <pt x="120" y="1612" on="0"/>
        <pt x="205" y="1663" on="0"/>
        <pt x="255" y="1663" on="1"/>
        <pt x="335" y="1663" on="0"/>
        <pt x="419" y="1570" on="0"/>
        <pt x="419" y="1495" on="1"/>
        <pt x="419" y="1445" on="0"/>
        <pt x="371" y="1360" on="0"/>
        <pt x="287" y="1310" on="0"/>
        <pt x="236" y="1310" on="1"/>
        <pt x="161" y="1310" on="0"/>
        <pt x="70" y="1404" on="0"/>
        <pt x="70" y="1478" on="1"/>
      </contour>
      <contour>
        <pt x="555" y="1527" on="0"/>
        <pt x="605" y="1612" on="0"/>
        <pt x="690" y="1663" on="0"/>
        <pt x="740" y="1663" on="1"/>
        <pt x="820" y="1663" on="0"/>
        <pt x="904" y="1570" on="0"/>
        <pt x="904" y="1495" on="1"/>
        <pt x="904" y="1445" on="0"/>
        <pt x="856" y="1360" on="0"/>
        <pt x="772" y="1310" on="0"/>
        <pt x="721" y="1310" on="1"/>
        <pt x="646" y="1310" on="0"/>
        <pt x="555" y="1404" on="0"/>
        <pt x="555" y="1478" on="1"/>
      </contour>
    </TTGlyph>
    <TTGlyph name="dieresis.cap" xMin="55" yMin="1614" xMax="933" yMax="1960">
      <contour>
        <pt x="55" y="1828" on="0"/>
        <pt x="105" y="1912" on="0"/>
        <pt x="191" y="1960" on="0"/>
        <pt x="242" y="1960" on="1"/>
        <pt x="323" y="1960" on="0"/>
        <pt x="410" y="1871" on="0"/>
        <pt x="410" y="1796" on="1"/>
        <pt x="410" y="1745" on="0"/>
        <pt x="361" y="1662" on="0"/>
        <pt x="276" y="1614" on="0"/>
        <pt x="224" y="1614" on="1"/>
        <pt x="147" y="1614" on="0"/>
        <pt x="55" y="1704" on="0"/>
        <pt x="55" y="1778" on="1"/>
      </contour>
      <contour>
        <pt x="579" y="1828" on="0"/>
        <pt x="629" y="1912" on="0"/>
        <pt x="715" y="1960" on="0"/>
        <pt x="766" y="1960" on="1"/>
        <pt x="847" y="1960" on="0"/>
        <pt x="933" y="1871" on="0"/>
        <pt x="933" y="1796" on="1"/>
        <pt x="933" y="1745" on="0"/>
        <pt x="885" y="1662" on="0"/>
        <pt x="800" y="1614" on="0"/>
        <pt x="747" y="1614" on="1"/>
        <pt x="671" y="1614" on="0"/>
        <pt x="579" y="1704" on="0"/>
        <pt x="579" y="1778" on="1"/>
      </contour>
    </TTGlyph>
    <TTGlyph name="divide" xMin="203" yMin="137" xMax="1200" yMax="1419">
      <contour>
        <pt x="527" y="1268" on="0"/>
        <pt x="583" y="1362" on="0"/>
        <pt x="678" y="1419" on="0"/>
        <pt x="732" y="1419" on="1"/>
        <pt x="818" y="1419" on="0"/>
        <pt x="916" y="1314" on="0"/>
        <pt x="916" y="1232" on="1"/>
        <pt x="916" y="1176" on="0"/>
        <pt x="861" y="1081" on="0"/>
        <pt x="767" y="1025" on="0"/>
        <pt x="712" y="1025" on="1"/>
        <pt x="659" y="1025" on="0"/>
        <pt x="575" y="1073" on="0"/>
        <pt x="527" y="1159" on="0"/>
        <pt x="527" y="1213" on="1"/>
      </contour>
      <contour>
        <pt x="1200" y="889" on="1"/>
        <pt x="1200" y="655" on="1"/>
        <pt x="203" y="655" on="1"/>
        <pt x="203" y="889" on="1"/>
      </contour>
      <contour>
        <pt x="523" y="380" on="0"/>
        <pt x="580" y="474" on="0"/>
        <pt x="674" y="531" on="0"/>
        <pt x="729" y="531" on="1"/>
        <pt x="814" y="531" on="0"/>
        <pt x="912" y="426" on="0"/>
        <pt x="912" y="344" on="1"/>
        <pt x="912" y="288" on="0"/>
        <pt x="857" y="193" on="0"/>
        <pt x="763" y="137" on="0"/>
        <pt x="708" y="137" on="1"/>
        <pt x="655" y="137" on="0"/>
        <pt x="571" y="185" on="0"/>
        <pt x="523" y="271" on="0"/>
        <pt x="523" y="325" on="1"/>
      </contour>
    </TTGlyph>
    <TTGlyph name="dollar" xMin="223" yMin="-225" xMax="1216" yMax="1763">
      <contour>
        <pt x="1216" y="282" on="0"/>
        <pt x="1102" y="99" on="0"/>
        <pt x="894" y="-4" on="0"/>
        <pt x="754" y="-14" on="1"/>
        <pt x="749" y="-225" on="1"/>
        <pt x="565" y="-225" on="1"/>
        <pt x="571" y="-10" on="1"/>
        <pt x="462" y="1" on="0"/>
        <pt x="273" y="51" on="0"/>
        <pt x="236" y="74" on="1"/>
        <pt x="281" y="329" on="1"/>
        <pt x="354" y="289" on="0"/>
        <pt x="560" y="233" on="0"/>
        <pt x="673" y="233" on="1"/>
        <pt x="796" y="233" on="0"/>
        <pt x="896" y="308" on="0"/>
        <pt x="896" y="388" on="1"/>
        <pt x="896" y="442" on="0"/>
        <pt x="846" y="517" on="0"/>
        <pt x="727" y="593" on="0"/>
        <pt x="601" y="655" on="1"/>
        <pt x="433" y="738" on="0"/>
        <pt x="223" y="960" on="0"/>
        <pt x="223" y="1128" on="1"/>
        <pt x="223" y="1306" on="0"/>
        <pt x="436" y="1502" on="0"/>
        <pt x="616" y="1529" on="1"/>
        <pt x="623" y="1763" on="1"/>
        <pt x="806" y="1763" on="1"/>
        <pt x="800" y="1537" on="1"/>
        <pt x="915" y="1532" on="0"/>
        <pt x="1101" y="1479" on="0"/>
        <pt x="1147" y="1450" on="1"/>
        <pt x="1095" y="1203" on="1"/>
        <pt x="1027" y="1246" on="0"/>
        <pt x="866" y="1300" on="0"/>
        <pt x="763" y="1300" on="1"/>
        <pt x="642" y="1300" on="0"/>
        <pt x="535" y="1219" on="0"/>
        <pt x="535" y="1144" on="1"/>
        <pt x="535" y="1091" on="0"/>
        <pt x="588" y="1015" on="0"/>
        <pt x="692" y="946" on="0"/>
        <pt x="798" y="890" on="1"/>
        <pt x="942" y="814" on="0"/>
        <pt x="1113" y="693" on="0"/>
        <pt x="1216" y="525" on="0"/>
        <pt x="1216" y="408" on="1"/>
      </contour>
    </TTGlyph>
    <TTGlyph name="dong" xMin="135" yMin="0" xMax="1338" yMax="1694">
      <contour>
        <pt x="829" y="1521" on="1"/>
        <pt x="829" y="1694" on="1"/>
        <pt x="1156" y="1694" on="1"/>
        <pt x="1156" y="1521" on="1"/>
        <pt x="1338" y="1521" on="1"/>
        <pt x="1338" y="1353" on="1"/>
        <pt x="1156" y="1353" on="1"/>
        <pt x="1156" y="291" on="1"/>
        <pt x="888" y="291" on="1"/>
        <pt x="865" y="291" on="0"/>
        <pt x="865" y="331" on="1"/>
        <pt x="865" y="401" on="1"/>
        <pt x="816" y="355" on="0"/>
        <pt x="680" y="291" on="0"/>
        <pt x="562" y="291" on="1"/>
        <pt x="448" y="291" on="0"/>
        <pt x="261" y="390" on="0"/>
        <pt x="151" y="590" on="0"/>
        <pt x="151" y="736" on="1"/>
        <pt x="151" y="896" on="0"/>
        <pt x="277" y="1126" on="0"/>
        <pt x="511" y="1248" on="0"/>
        <pt x="670" y="1248" on="1"/>
        <pt x="762" y="1248" on="0"/>
        <pt x="832" y="1232" on="1"/>
        <pt x="829" y="1353" on="1"/>
        <pt x="501" y="1353" on="1"/>
        <pt x="501" y="1521" on="1"/>
      </contour>
      <contour>
        <pt x="829" y="993" on="1"/>
        <pt x="790" y="1029" on="0"/>
        <pt x="680" y="1029" on="1"/>
        <pt x="570" y="1029" on="0"/>
        <pt x="480" y="880" on="0"/>
        <pt x="480" y="742" on="1"/>
        <pt x="480" y="630" on="0"/>
        <pt x="570" y="520" on="0"/>
        <pt x="638" y="520" on="1"/>
        <pt x="692" y="520" on="0"/>
        <pt x="767" y="540" on="0"/>
        <pt x="800" y="559" on="0"/>
        <pt x="829" y="579" on="1"/>
      </contour>
      <contour>
        <pt x="1240" y="197" on="1"/>
        <pt x="1240" y="0" on="1"/>
        <pt x="135" y="0" on="1"/>
        <pt x="135" y="197" on="1"/>
      </contour>
    </TTGlyph>
    <TTGlyph name="dotaccent" xMin="55" yMin="1307" xMax="434" yMax="1665">
      <contour>
        <pt x="55" y="1528" on="0"/>
        <pt x="111" y="1614" on="0"/>
        <pt x="203" y="1665" on="0"/>
        <pt x="254" y="1665" on="1"/>
        <pt x="336" y="1665" on="0"/>
        <pt x="434" y="1570" on="0"/>
        <pt x="434" y="1495" on="1"/>
        <pt x="434" y="1445" on="0"/>
        <pt x="379" y="1358" on="0"/>
        <pt x="288" y="1307" on="0"/>
        <pt x="236" y="1307" on="1"/>
        <pt x="185" y="1307" on="0"/>
        <pt x="103" y="1351" on="0"/>
        <pt x="55" y="1429" on="0"/>
        <pt x="55" y="1478" on="1"/>
      </contour>
    </TTGlyph>
    <TTGlyph name="dotaccent.cap" xMin="64" yMin="1614" xMax="425" yMax="1959">
      <contour>
        <pt x="64" y="1828" on="0"/>
        <pt x="115" y="1911" on="0"/>
        <pt x="203" y="1959" on="0"/>
        <pt x="254" y="1959" on="1"/>
        <pt x="336" y="1959" on="0"/>
        <pt x="425" y="1870" on="0"/>
        <pt x="425" y="1795" on="1"/>
        <pt x="425" y="1744" on="0"/>
        <pt x="375" y="1662" on="0"/>
        <pt x="288" y="1614" on="0"/>
        <pt x="236" y="1614" on="1"/>
        <pt x="159" y="1614" on="0"/>
        <pt x="64" y="1703" on="0"/>
        <pt x="64" y="1778" on="1"/>
      </contour>
    </TTGlyph>
    <TTGlyph name="dotlessi" xMin="174" yMin="0" xMax="486" yMax="1140">
      <contour>
        <pt x="486" y="1140" on="1"/>
        <pt x="486" y="0" on="1"/>
        <pt x="174" y="0" on="1"/>
        <pt x="174" y="1140" on="1"/>
      </contour>
    </TTGlyph>
    <TTGlyph name="e" xMin="95" yMin="-16" xMax="1093" yMax="1156">
      <contour>
        <pt x="1093" y="565" on="0"/>
        <pt x="1082" y="495" on="1"/>
        <pt x="408" y="495" on="1"/>
        <pt x="417" y="354" on="0"/>
        <pt x="576" y="216" on="0"/>
        <pt x="712" y="216" on="1"/>
        <pt x="777" y="216" on="0"/>
        <pt x="962" y="251" on="0"/>
        <pt x="1005" y="275" on="1"/>
        <pt x="1056" y="98" on="1"/>
        <pt x="997" y="50" on="0"/>
        <pt x="761" y="-16" on="0"/>
        <pt x="633" y="-16" on="1"/>
        <pt x="461" y="-16" on="0"/>
        <pt x="219" y="124" on="0"/>
        <pt x="95" y="389" on="0"/>
        <pt x="95" y="574" on="1"/>
        <pt x="95" y="742" on="0"/>
        <pt x="225" y="1006" on="0"/>
        <pt x="474" y="1156" on="0"/>
        <pt x="646" y="1156" on="1"/>
        <pt x="770" y="1156" on="0"/>
        <pt x="970" y="1066" on="0"/>
        <pt x="1091" y="866" on="0"/>
        <pt x="1093" y="709" on="1"/>
      </contour>
      <contour>
        <pt x="804" y="683" on="0"/>
        <pt x="804" y="712" on="1"/>
        <pt x="804" y="821" on="0"/>
        <pt x="722" y="934" on="0"/>
        <pt x="630" y="934" on="1"/>
        <pt x="538" y="934" on="0"/>
        <pt x="429" y="813" on="0"/>
        <pt x="413" y="668" on="1"/>
        <pt x="803" y="668" on="1"/>
      </contour>
    </TTGlyph>
    <TTGlyph name="eacute" xMin="95" yMin="-16" xMax="1093" yMax="1808">
      <component glyphName="acute" x="446" y="0" flags="0x0"/>
      <component glyphName="e" x="0" y="0" flags="0x0"/>
    </TTGlyph>
    <TTGlyph name="ebreve" xMin="95" yMin="-16" xMax="1093" yMax="1685">
      <component glyphName="e" x="0" y="0" flags="0x0"/>
      <component glyphName="breve" x="227" y="0" flags="0x0"/>
    </TTGlyph>
    <TTGlyph name="ecaron" xMin="95" yMin="-16" xMax="1093" yMax="1713">
      <component glyphName="caron" x="192" y="14" flags="0x4"/>
      <component glyphName="e" x="0" y="0" flags="0x0"/>
    </TTGlyph>
    <TTGlyph name="ecircumflex" xMin="95" yMin="-16" xMax="1093" yMax="1699">
      <component glyphName="circumflex" x="196" y="0" flags="0x0"/>
      <component glyphName="e" x="0" y="0" flags="0x0"/>
    </TTGlyph>
    <TTGlyph name="edieresis" xMin="95" yMin="-16" xMax="1093" yMax="1663">
      <component glyphName="dieresis" x="147" y="0" flags="0x0"/>
      <component glyphName="e" x="0" y="0" flags="0x0"/>
    </TTGlyph>
    <TTGlyph name="edotaccent" xMin="95" yMin="-16" xMax="1093" yMax="1665">
      <component glyphName="e" x="0" y="0" flags="0x0"/>
      <component glyphName="dotaccent" x="385" y="0" flags="0x0"/>
    </TTGlyph>
    <TTGlyph name="egrave" xMin="95" yMin="-16" xMax="1093" yMax="1808">
      <component glyphName="e" x="0" y="0" flags="0x0"/>
      <component glyphName="grave" x="144" y="0" flags="0x0"/>
    </TTGlyph>
    <TTGlyph name="eight" xMin="129" yMin="-16" xMax="1235" yMax="1565">
      <contour>
        <pt x="1235" y="271" on="0"/>
        <pt x="1092" y="81" on="0"/>
        <pt x="846" y="-16" on="0"/>
        <pt x="692" y="-16" on="1"/>
        <pt x="527" y="-16" on="0"/>
        <pt x="273" y="74" on="0"/>
        <pt x="129" y="255" on="0"/>
        <pt x="129" y="385" on="1"/>
        <pt x="129" y="496" on="0"/>
        <pt x="267" y="702" on="0"/>
        <pt x="415" y="779" on="1"/>
        <pt x="305" y="854" on="0"/>
        <pt x="180" y="1043" on="0"/>
        <pt x="180" y="1174" on="1"/>
        <pt x="180" y="1290" on="0"/>
        <pt x="302" y="1467" on="0"/>
        <pt x="530" y="1565" on="0"/>
        <pt x="682" y="1565" on="1"/>
        <pt x="833" y="1565" on="0"/>
        <pt x="1055" y="1476" on="0"/>
        <pt x="1172" y="1317" on="0"/>
        <pt x="1172" y="1212" on="1"/>
        <pt x="1172" y="1140" on="0"/>
        <pt x="1113" y="990" on="0"/>
        <pt x="992" y="859" on="0"/>
        <pt x="904" y="816" on="1"/>
        <pt x="1004" y="759" on="0"/>
        <pt x="1147" y="646" on="0"/>
        <pt x="1235" y="497" on="0"/>
        <pt x="1235" y="405" on="1"/>
      </contour>
      <contour>
        <pt x="620" y="1355" on="0"/>
        <pt x="524" y="1315" on="0"/>
        <pt x="468" y="1241" on="0"/>
        <pt x="468" y="1193" on="1"/>
        <pt x="468" y="1113" on="0"/>
        <pt x="595" y="988" on="0"/>
        <pt x="715" y="920" on="1"/>
        <pt x="807" y="958" on="0"/>
        <pt x="898" y="1102" on="0"/>
        <pt x="895" y="1187" on="1"/>
        <pt x="895" y="1235" on="0"/>
        <pt x="843" y="1312" on="0"/>
        <pt x="745" y="1355" on="0"/>
        <pt x="678" y="1355" on="1"/>
      </contour>
      <contour>
        <pt x="755" y="204" on="0"/>
        <pt x="861" y="246" on="0"/>
        <pt x="924" y="324" on="0"/>
        <pt x="924" y="378" on="1"/>
        <pt x="924" y="438" on="0"/>
        <pt x="846" y="534" on="0"/>
        <pt x="728" y="607" on="0"/>
        <pt x="625" y="660" on="1"/>
        <pt x="603" y="671" on="1"/>
        <pt x="424" y="576" on="0"/>
        <pt x="424" y="403" on="1"/>
        <pt x="424" y="314" on="0"/>
        <pt x="557" y="204" on="0"/>
        <pt x="693" y="204" on="1"/>
      </contour>
    </TTGlyph>
    <TTGlyph name="ellipsis" xMin="126" yMin="-22" xMax="1777" yMax="383">
      <contour>
        <pt x="126" y="228" on="0"/>
        <pt x="182" y="325" on="0"/>
        <pt x="276" y="383" on="0"/>
        <pt x="330" y="383" on="1"/>
        <pt x="387" y="383" on="0"/>
        <pt x="471" y="332" on="0"/>
        <pt x="515" y="242" on="0"/>
        <pt x="515" y="187" on="1"/>
        <pt x="515" y="131" on="0"/>
        <pt x="461" y="35" on="0"/>
        <pt x="368" y="-22" on="0"/>
        <pt x="313" y="-22" on="1"/>
        <pt x="260" y="-22" on="0"/>
        <pt x="174" y="29" on="0"/>
        <pt x="126" y="118" on="0"/>
        <pt x="126" y="173" on="1"/>
      </contour>
      <contour>
        <pt x="757" y="228" on="0"/>
        <pt x="813" y="325" on="0"/>
        <pt x="907" y="383" on="0"/>
        <pt x="961" y="383" on="1"/>
        <pt x="1018" y="383" on="0"/>
        <pt x="1102" y="332" on="0"/>
        <pt x="1146" y="242" on="0"/>
        <pt x="1146" y="187" on="1"/>
        <pt x="1146" y="131" on="0"/>
        <pt x="1092" y="35" on="0"/>
        <pt x="999" y="-22" on="0"/>
        <pt x="944" y="-22" on="1"/>
        <pt x="891" y="-22" on="0"/>
        <pt x="805" y="29" on="0"/>
        <pt x="757" y="118" on="0"/>
        <pt x="757" y="173" on="1"/>
      </contour>
      <contour>
        <pt x="1388" y="228" on="0"/>
        <pt x="1444" y="325" on="0"/>
        <pt x="1538" y="383" on="0"/>
        <pt x="1592" y="383" on="1"/>
        <pt x="1649" y="383" on="0"/>
        <pt x="1733" y="332" on="0"/>
        <pt x="1777" y="242" on="0"/>
        <pt x="1777" y="187" on="1"/>
        <pt x="1777" y="131" on="0"/>
        <pt x="1723" y="35" on="0"/>
        <pt x="1630" y="-22" on="0"/>
        <pt x="1575" y="-22" on="1"/>
        <pt x="1522" y="-22" on="0"/>
        <pt x="1436" y="29" on="0"/>
        <pt x="1388" y="118" on="0"/>
        <pt x="1388" y="173" on="1"/>
      </contour>
    </TTGlyph>
    <TTGlyph name="emacron" xMin="95" yMin="-16" xMax="1093" yMax="1626">
      <component glyphName="e" x="0" y="0" flags="0x0"/>
      <component glyphName="macron" x="284" y="0" flags="0x0"/>
    </TTGlyph>
    <TTGlyph name="emdash" xMin="245" yMin="644" xMax="2168" yMax="889">
      <contour>
        <pt x="2168" y="889" on="1"/>
        <pt x="2168" y="644" on="1"/>
        <pt x="245" y="644" on="1"/>
        <pt x="245" y="889" on="1"/>
      </contour>
    </TTGlyph>
    <TTGlyph name="endash" xMin="245" yMin="644" xMax="1457" yMax="889">
      <contour>
        <pt x="1457" y="889" on="1"/>
        <pt x="1457" y="644" on="1"/>
        <pt x="245" y="644" on="1"/>
        <pt x="245" y="889" on="1"/>
      </contour>
    </TTGlyph>
    <TTGlyph name="eng" xMin="174" yMin="-507" xMax="1190" yMax="1163">
      <contour>
        <pt x="457" y="1138" on="1"/>
        <pt x="463" y="1018" on="1"/>
        <pt x="532" y="1070" on="0"/>
        <pt x="738" y="1156" on="0"/>
        <pt x="834" y="1159" on="1"/>
        <pt x="957" y="1163" on="0"/>
        <pt x="1113" y="1079" on="0"/>
        <pt x="1190" y="882" on="0"/>
        <pt x="1190" y="716" on="1"/>
        <pt x="1190" y="-31" on="1"/>
        <pt x="1190" y="-197" on="0"/>
        <pt x="1099" y="-410" on="0"/>
        <pt x="942" y="-507" on="0"/>
        <pt x="840" y="-507" on="1"/>
        <pt x="788" y="-507" on="0"/>
        <pt x="669" y="-499" on="0"/>
        <pt x="641" y="-493" on="1"/>
        <pt x="641" y="-297" on="1"/>
        <pt x="655" y="-302" on="0"/>
        <pt x="727" y="-308" on="0"/>
        <pt x="749" y="-308" on="1"/>
        <pt x="798" y="-308" on="0"/>
        <pt x="852" y="-270" on="0"/>
        <pt x="878" y="-158" on="0"/>
        <pt x="878" y="-45" on="1"/>
        <pt x="878" y="658" on="1"/>
        <pt x="878" y="754" on="0"/>
        <pt x="849" y="861" on="0"/>
        <pt x="777" y="907" on="0"/>
        <pt x="712" y="905" on="1"/>
        <pt x="664" y="904" on="0"/>
        <pt x="534" y="856" on="0"/>
        <pt x="486" y="814" on="1"/>
        <pt x="486" y="0" on="1"/>
        <pt x="174" y="0" on="1"/>
        <pt x="174" y="1138" on="1"/>
      </contour>
    </TTGlyph>
    <TTGlyph name="eogonek" xMin="95" yMin="-516" xMax="1093" yMax="1156">
      <contour>
        <pt x="1093" y="565" on="0"/>
        <pt x="1082" y="495" on="1"/>
        <pt x="408" y="495" on="1"/>
        <pt x="417" y="354" on="0"/>
        <pt x="576" y="216" on="0"/>
        <pt x="712" y="216" on="1"/>
        <pt x="777" y="216" on="0"/>
        <pt x="962" y="251" on="0"/>
        <pt x="1005" y="275" on="1"/>
        <pt x="1056" y="98" on="1"/>
        <pt x="1053" y="95" on="0"/>
        <pt x="1047" y="92" on="0"/>
        <pt x="1045" y="90" on="1"/>
        <pt x="1046" y="90" on="1"/>
        <pt x="954" y="22" on="0"/>
        <pt x="827" y="-131" on="0"/>
        <pt x="827" y="-223" on="1"/>
        <pt x="829" y="-269" on="0"/>
        <pt x="894" y="-311" on="0"/>
        <pt x="948" y="-311" on="1"/>
        <pt x="1003" y="-311" on="0"/>
        <pt x="1073" y="-291" on="1"/>
        <pt x="1073" y="-448" on="1"/>
        <pt x="1030" y="-480" on="0"/>
        <pt x="907" y="-516" on="0"/>
        <pt x="843" y="-516" on="1"/>
        <pt x="779" y="-516" on="0"/>
        <pt x="661" y="-468" on="0"/>
        <pt x="585" y="-377" on="0"/>
        <pt x="582" y="-316" on="1"/>
        <pt x="576" y="-220" on="0"/>
        <pt x="672" y="-61" on="0"/>
        <pt x="749" y="-9" on="1"/>
        <pt x="683" y="-16" on="0"/>
        <pt x="633" y="-16" on="1"/>
        <pt x="461" y="-16" on="0"/>
        <pt x="219" y="124" on="0"/>
        <pt x="95" y="389" on="0"/>
        <pt x="95" y="574" on="1"/>
        <pt x="95" y="742" on="0"/>
        <pt x="225" y="1006" on="0"/>
        <pt x="474" y="1156" on="0"/>
        <pt x="646" y="1156" on="1"/>
        <pt x="770" y="1156" on="0"/>
        <pt x="970" y="1066" on="0"/>
        <pt x="1091" y="866" on="0"/>
        <pt x="1093" y="709" on="1"/>
      </contour>
      <contour>
        <pt x="804" y="683" on="0"/>
        <pt x="804" y="712" on="1"/>
        <pt x="804" y="821" on="0"/>
        <pt x="722" y="934" on="0"/>
        <pt x="630" y="934" on="1"/>
        <pt x="538" y="934" on="0"/>
        <pt x="429" y="813" on="0"/>
        <pt x="413" y="668" on="1"/>
        <pt x="803" y="668" on="1"/>
      </contour>
    </TTGlyph>
    <TTGlyph name="equal" xMin="251" yMin="411" xMax="1172" yMax="1139">
      <contour>
        <pt x="1172" y="1139" on="1"/>
        <pt x="1172" y="923" on="1"/>
        <pt x="251" y="923" on="1"/>
        <pt x="251" y="1139" on="1"/>
      </contour>
      <contour>
        <pt x="1172" y="627" on="1"/>
        <pt x="1172" y="411" on="1"/>
        <pt x="251" y="411" on="1"/>
        <pt x="251" y="627" on="1"/>
      </contour>
    </TTGlyph>
    <TTGlyph name="estimated" xMin="109" yMin="-16" xMax="1274" yMax="1359">
      <contour>
        <pt x="435" y="612" on="1"/>
        <pt x="435" y="258" on="1"/>
        <pt x="542" y="147" on="0"/>
        <pt x="750" y="147" on="1"/>
        <pt x="863" y="147" on="0"/>
        <pt x="1064" y="218" on="0"/>
        <pt x="1128" y="266" on="1"/>
        <pt x="1198" y="115" on="1"/>
        <pt x="1153" y="83" on="0"/>
        <pt x="1006" y="23" on="0"/>
        <pt x="824" y="-16" on="0"/>
        <pt x="732" y="-16" on="1"/>
        <pt x="535" y="-16" on="0"/>
        <pt x="255" y="148" on="0"/>
        <pt x="109" y="456" on="0"/>
        <pt x="109" y="671" on="1"/>
        <pt x="109" y="871" on="0"/>
        <pt x="247" y="1177" on="0"/>
        <pt x="529" y="1353" on="0"/>
        <pt x="736" y="1356" on="1"/>
        <pt x="884" y="1359" on="0"/>
        <pt x="1125" y="1232" on="0"/>
        <pt x="1269" y="993" on="0"/>
        <pt x="1274" y="832" on="1"/>
        <pt x="1274" y="747" on="0"/>
        <pt x="1270" y="646" on="0"/>
        <pt x="1263" y="612" on="1"/>
      </contour>
      <contour>
        <pt x="635" y="1193" on="0"/>
        <pt x="489" y="1136" on="0"/>
        <pt x="435" y="1077" on="1"/>
        <pt x="435" y="768" on="1"/>
        <pt x="970" y="768" on="1"/>
        <pt x="970" y="1119" on="1"/>
        <pt x="886" y="1193" on="0"/>
        <pt x="722" y="1193" on="1"/>
      </contour>
    </TTGlyph>
    <TTGlyph name="eth" xMin="95" yMin="-27" xMax="1215" yMax="1852">
      <contour>
        <pt x="857" y="1508" on="0"/>
        <pt x="1089" y="1213" on="0"/>
        <pt x="1215" y="845" on="0"/>
        <pt x="1215" y="651" on="1"/>
        <pt x="1215" y="433" on="0"/>
        <pt x="1066" y="127" on="0"/>
        <pt x="809" y="-27" on="0"/>
        <pt x="650" y="-27" on="1"/>
        <pt x="483" y="-27" on="0"/>
        <pt x="231" y="118" on="0"/>
        <pt x="95" y="379" on="0"/>
        <pt x="95" y="550" on="1"/>
        <pt x="95" y="732" on="0"/>
        <pt x="219" y="1002" on="0"/>
        <pt x="457" y="1149" on="0"/>
        <pt x="624" y="1149" on="1"/>
        <pt x="732" y="1149" on="0"/>
        <pt x="816" y="1097" on="1"/>
        <pt x="785" y="1189" on="0"/>
        <pt x="654" y="1358" on="0"/>
        <pt x="568" y="1420" on="1"/>
        <pt x="451" y="1262" on="1"/>
        <pt x="302" y="1361" on="1"/>
        <pt x="424" y="1519" on="1"/>
        <pt x="323" y="1581" on="0"/>
        <pt x="220" y="1611" on="1"/>
        <pt x="273" y="1787" on="1"/>
        <pt x="363" y="1761" on="0"/>
        <pt x="492" y="1711" on="0"/>
        <pt x="549" y="1680" on="1"/>
        <pt x="584" y="1726" on="0"/>
        <pt x="662" y="1835" on="0"/>
        <pt x="674" y="1852" on="1"/>
        <pt x="826" y="1752" on="1"/>
        <pt x="815" y="1737" on="0"/>
        <pt x="739" y="1639" on="0"/>
        <pt x="703" y="1595" on="1"/>
      </contour>
      <contour>
        <pt x="726" y="202" on="0"/>
        <pt x="831" y="289" on="0"/>
        <pt x="892" y="457" on="0"/>
        <pt x="892" y="574" on="1"/>
        <pt x="892" y="740" on="0"/>
        <pt x="886" y="816" on="1"/>
        <pt x="859" y="862" on="0"/>
        <pt x="739" y="932" on="0"/>
        <pt x="660" y="932" on="1"/>
        <pt x="585" y="932" on="0"/>
        <pt x="477" y="841" on="0"/>
        <pt x="419" y="668" on="0"/>
        <pt x="419" y="547" on="1"/>
        <pt x="419" y="379" on="0"/>
        <pt x="546" y="202" on="0"/>
        <pt x="660" y="202" on="1"/>
      </contour>
    </TTGlyph>
    <TTGlyph name="exclam" xMin="126" yMin="-22" xMax="515" yMax="1780">
      <contour>
        <pt x="498" y="1780" on="1"/>
        <pt x="464" y="555" on="1"/>
        <pt x="197" y="555" on="1"/>
        <pt x="151" y="1780" on="1"/>
      </contour>
      <contour>
        <pt x="126" y="230" on="0"/>
        <pt x="182" y="326" on="0"/>
        <pt x="275" y="383" on="0"/>
        <pt x="329" y="383" on="1"/>
        <pt x="386" y="383" on="0"/>
        <pt x="471" y="332" on="0"/>
        <pt x="515" y="244" on="0"/>
        <pt x="515" y="189" on="1"/>
        <pt x="515" y="133" on="0"/>
        <pt x="461" y="36" on="0"/>
        <pt x="367" y="-22" on="0"/>
        <pt x="312" y="-22" on="1"/>
        <pt x="259" y="-22" on="0"/>
        <pt x="174" y="30" on="0"/>
        <pt x="126" y="120" on="0"/>
        <pt x="126" y="175" on="1"/>
      </contour>
    </TTGlyph>
    <TTGlyph name="exclamdbl" xMin="126" yMin="-22" xMax="1144" yMax="1780">
      <component glyphName="exclam" x="0" y="0" flags="0x0"/>
      <component glyphName="exclam" x="629" y="0" flags="0x0"/>
    </TTGlyph>
    <TTGlyph name="exclamdown" xMin="116" yMin="-436" xMax="505" yMax="1366">
      <contour>
        <pt x="505" y="1114" on="0"/>
        <pt x="449" y="1018" on="0"/>
        <pt x="356" y="961" on="0"/>
        <pt x="302" y="961" on="1"/>
        <pt x="245" y="961" on="0"/>
        <pt x="160" y="1012" on="0"/>
        <pt x="116" y="1100" on="0"/>
        <pt x="116" y="1155" on="1"/>
        <pt x="116" y="1211" on="0"/>
        <pt x="170" y="1308" on="0"/>
        <pt x="264" y="1366" on="0"/>
        <pt x="319" y="1366" on="1"/>
        <pt x="372" y="1366" on="0"/>
        <pt x="457" y="1314" on="0"/>
        <pt x="505" y="1224" on="0"/>
        <pt x="505" y="1169" on="1"/>
      </contour>
      <contour>
        <pt x="133" y="-436" on="1"/>
        <pt x="167" y="789" on="1"/>
        <pt x="434" y="789" on="1"/>
        <pt x="480" y="-436" on="1"/>
      </contour>
    </TTGlyph>
    <TTGlyph name="f" xMin="82" yMin="0" xMax="865" yMax="1683">
      <contour>
        <pt x="82" y="924" on="1"/>
        <pt x="82" y="1106" on="1"/>
        <pt x="237" y="1140" on="1"/>
        <pt x="237" y="1249" on="1"/>
        <pt x="237" y="1406" on="0"/>
        <pt x="361" y="1600" on="0"/>
        <pt x="554" y="1683" on="0"/>
        <pt x="663" y="1683" on="1"/>
        <pt x="722" y="1683" on="0"/>
        <pt x="843" y="1668" on="0"/>
        <pt x="865" y="1661" on="1"/>
        <pt x="865" y="1439" on="1"/>
        <pt x="815" y="1463" on="0"/>
        <pt x="709" y="1463" on="1"/>
        <pt x="636" y="1463" on="0"/>
        <pt x="549" y="1357" on="0"/>
        <pt x="549" y="1256" on="1"/>
        <pt x="549" y="1140" on="1"/>
        <pt x="815" y="1140" on="1"/>
        <pt x="815" y="924" on="1"/>
        <pt x="549" y="924" on="1"/>
        <pt x="549" y="0" on="1"/>
        <pt x="237" y="0" on="1"/>
        <pt x="237" y="924" on="1"/>
      </contour>
    </TTGlyph>
    <TTGlyph name="f_f" xMin="82" yMin="0" xMax="1723" yMax="1683">
      <component glyphName="f" x="0" y="0" flags="0x0"/>
      <component glyphName="f" x="858" y="0" flags="0x0"/>
    </TTGlyph>
    <TTGlyph name="f_f_i" xMin="82" yMin="0" xMax="2231" yMax="1683">
      <component glyphName="f" x="0" y="0" flags="0x0"/>
      <component glyphName="f" x="858" y="0" flags="0x0"/>
      <component glyphName="dotlessi" x="1716" y="0" flags="0x0"/>
      <component glyphName="dotaccent" x="1797" y="-1" flags="0x4"/>
    </TTGlyph>
    <TTGlyph name="f_f_l" xMin="82" yMin="0" xMax="2208" yMax="1683">
      <component glyphName="f" x="0" y="0" flags="0x0"/>
      <component glyphName="f" x="858" y="0" flags="0x0"/>
      <component glyphName="l" x="1716" y="0" flags="0x0"/>
    </TTGlyph>
    <TTGlyph name="ffi_dflt" xMin="136" yMin="0" xMax="2383" yMax="1683">
      <component glyphName="dotlessi" x="0" y="0" flags="0x0"/>
      <component glyphName="dotaccent" x="81" y="-1" flags="0x4"/>
      <component glyphName="f" x="660" y="0" flags="0x0"/>
      <component glyphName="f" x="1518" y="0" flags="0x0"/>
    </TTGlyph>
    <TTGlyph name="fi" xMin="82" yMin="0" xMax="1373" yMax="1683">
      <component glyphName="f" x="0" y="0" flags="0x0"/>
      <component glyphName="dotlessi" x="858" y="0" flags="0x0"/>
      <component glyphName="dotaccent" x="939" y="-1" flags="0x4"/>
    </TTGlyph>
    <TTGlyph name="fi_trk" xMin="136" yMin="0" xMax="1525" yMax="1683">
      <component glyphName="dotlessi" x="0" y="0" flags="0x0"/>
      <component glyphName="dotaccent" x="81" y="-1" flags="0x4"/>
      <component glyphName="f" x="660" y="0" flags="0x0"/>
    </TTGlyph>
    <TTGlyph name="five" xMin="192" yMin="-354" xMax="1151" yMax="1252">
      <contour>
        <pt x="193" y="-123" on="1"/>
        <pt x="247" y="-125" on="0"/>
        <pt x="272" y="-125" on="1"/>
        <pt x="435" y="-125" on="0"/>
        <pt x="690" y="-35" on="0"/>
        <pt x="832" y="128" on="0"/>
        <pt x="832" y="234" on="1"/>
        <pt x="832" y="345" on="0"/>
        <pt x="700" y="450" on="0"/>
        <pt x="546" y="451" on="1"/>
        <pt x="488" y="451" on="0"/>
        <pt x="346" y="417" on="0"/>
        <pt x="249" y="385" on="1"/>
        <pt x="199" y="415" on="1"/>
        <pt x="265" y="1252" on="1"/>
        <pt x="1112" y="1252" on="1"/>
        <pt x="1084" y="985" on="1"/>
        <pt x="491" y="985" on="1"/>
        <pt x="458" y="650" on="1"/>
        <pt x="538" y="668" on="0"/>
        <pt x="655" y="685" on="0"/>
        <pt x="710" y="685" on="1"/>
        <pt x="848" y="685" on="0"/>
        <pt x="1047" y="577" on="0"/>
        <pt x="1151" y="378" on="0"/>
        <pt x="1151" y="245" on="1"/>
        <pt x="1151" y="78" on="0"/>
        <pt x="948" y="-194" on="0"/>
        <pt x="574" y="-353" on="0"/>
        <pt x="327" y="-354" on="1"/>
        <pt x="237" y="-354" on="0"/>
        <pt x="192" y="-341" on="1"/>
      </contour>
    </TTGlyph>
    <TTGlyph name="fl" xMin="82" yMin="0" xMax="1350" yMax="1683">
      <component glyphName="f" x="0" y="0" flags="0x0"/>
      <component glyphName="l" x="858" y="0" flags="0x0"/>
    </TTGlyph>
    <TTGlyph name="florin" xMin="208" yMin="-356" xMax="1097" yMax="1684">
      <contour>
        <pt x="208" y="924" on="1"/>
        <pt x="222" y="1102" on="1"/>
        <pt x="401" y="1140" on="1"/>
        <pt x="410" y="1223" on="1"/>
        <pt x="427" y="1388" on="0"/>
        <pt x="573" y="1594" on="0"/>
        <pt x="787" y="1684" on="0"/>
        <pt x="913" y="1684" on="1"/>
        <pt x="976" y="1684" on="0"/>
        <pt x="1080" y="1671" on="0"/>
        <pt x="1097" y="1663" on="1"/>
        <pt x="1079" y="1434" on="1"/>
        <pt x="1062" y="1445" on="0"/>
        <pt x="981" y="1457" on="0"/>
        <pt x="922" y="1457" on="1"/>
        <pt x="841" y="1457" on="0"/>
        <pt x="737" y="1347" on="0"/>
        <pt x="725" y="1229" on="1"/>
        <pt x="715" y="1140" on="1"/>
        <pt x="989" y="1140" on="1"/>
        <pt x="972" y="924" on="1"/>
        <pt x="697" y="924" on="1"/>
        <pt x="587" y="-356" on="1"/>
        <pt x="273" y="-356" on="1"/>
        <pt x="384" y="924" on="1"/>
      </contour>
    </TTGlyph>
    <TTGlyph name="four" xMin="100" yMin="-376" xMax="1361" yMax="1334">
      <contour>
        <pt x="1361" y="0" on="1"/>
        <pt x="1128" y="0" on="1"/>
        <pt x="1128" y="-376" on="1"/>
        <pt x="828" y="-376" on="1"/>
        <pt x="828" y="0" on="1"/>
        <pt x="176" y="0" on="1"/>
        <pt x="100" y="133" on="1"/>
        <pt x="660" y="1334" on="1"/>
        <pt x="733" y="1334" on="1"/>
        <pt x="977" y="1211" on="1"/>
        <pt x="516" y="361" on="1"/>
        <pt x="440" y="234" on="1"/>
        <pt x="828" y="234" on="1"/>
        <pt x="866" y="644" on="1"/>
        <pt x="1128" y="644" on="1"/>
        <pt x="1128" y="234" on="1"/>
        <pt x="1361" y="234" on="1"/>
      </contour>
    </TTGlyph>
    <TTGlyph name="four.numr" xMin="89" yMin="586" xMax="1106" yMax="1841">
      <contour>
        <pt x="1106" y="858" on="1"/>
        <pt x="942" y="858" on="1"/>
        <pt x="942" y="586" on="1"/>
        <pt x="686" y="586" on="1"/>
        <pt x="687" y="858" on="1"/>
        <pt x="141" y="858" on="1"/>
        <pt x="89" y="952" on="1"/>
        <pt x="587" y="1841" on="1"/>
        <pt x="655" y="1841" on="1"/>
        <pt x="842" y="1749" on="1"/>
        <pt x="402" y="1050" on="1"/>
        <pt x="687" y="1050" on="1"/>
        <pt x="712" y="1310" on="1"/>
        <pt x="942" y="1310" on="1"/>
        <pt x="942" y="1050" on="1"/>
        <pt x="1106" y="1050" on="1"/>
      </contour>
    </TTGlyph>
    <TTGlyph name="fraction" xMin="127" yMin="0" xMax="909" yMax="1530">
      <contour>
        <pt x="666" y="1530" on="1"/>
        <pt x="909" y="1530" on="1"/>
        <pt x="367" y="0" on="1"/>
        <pt x="127" y="0" on="1"/>
      </contour>
    </TTGlyph>
    <TTGlyph name="franc" xMin="55" yMin="0" xMax="1164" yMax="1522">
      <contour>
        <pt x="225" y="438" on="1"/>
        <pt x="225" y="1522" on="1"/>
        <pt x="1164" y="1522" on="1"/>
        <pt x="1164" y="1253" on="1"/>
        <pt x="585" y="1253" on="1"/>
        <pt x="585" y="862" on="1"/>
        <pt x="1035" y="862" on="1"/>
        <pt x="1035" y="596" on="1"/>
        <pt x="585" y="596" on="1"/>
        <pt x="585" y="438" on="1"/>
        <pt x="855" y="438" on="1"/>
        <pt x="855" y="217" on="1"/>
        <pt x="585" y="217" on="1"/>
        <pt x="585" y="0" on="1"/>
        <pt x="225" y="0" on="1"/>
        <pt x="225" y="217" on="1"/>
        <pt x="55" y="217" on="1"/>
        <pt x="55" y="438" on="1"/>
      </contour>
    </TTGlyph>
    <TTGlyph name="g" xMin="91" yMin="-516" xMax="1288" yMax="1156">
      <contour>
        <pt x="1288" y="914" on="1"/>
        <pt x="1099" y="914" on="1"/>
        <pt x="1119" y="856" on="0"/>
        <pt x="1119" y="784" on="1"/>
        <pt x="1119" y="601" on="0"/>
        <pt x="854" y="409" on="0"/>
        <pt x="612" y="409" on="1"/>
        <pt x="556" y="409" on="0"/>
        <pt x="513" y="416" on="1"/>
        <pt x="492" y="399" on="0"/>
        <pt x="470" y="350" on="0"/>
        <pt x="470" y="323" on="1"/>
        <pt x="470" y="275" on="0"/>
        <pt x="530" y="243" on="0"/>
        <pt x="605" y="243" on="1"/>
        <pt x="795" y="243" on="1"/>
        <pt x="1047" y="243" on="0"/>
        <pt x="1234" y="48" on="0"/>
        <pt x="1234" y="-102" on="1"/>
        <pt x="1234" y="-230" on="0"/>
        <pt x="1071" y="-418" on="0"/>
        <pt x="801" y="-516" on="0"/>
        <pt x="645" y="-516" on="1"/>
        <pt x="380" y="-516" on="0"/>
        <pt x="91" y="-345" on="0"/>
        <pt x="91" y="-183" on="1"/>
        <pt x="91" y="-104" on="0"/>
        <pt x="188" y="19" on="0"/>
        <pt x="267" y="54" on="1"/>
        <pt x="219" y="79" on="0"/>
        <pt x="174" y="171" on="0"/>
        <pt x="174" y="224" on="1"/>
        <pt x="174" y="292" on="0"/>
        <pt x="258" y="418" on="0"/>
        <pt x="356" y="458" on="1"/>
        <pt x="247" y="505" on="0"/>
        <pt x="122" y="672" on="0"/>
        <pt x="122" y="775" on="1"/>
        <pt x="122" y="971" on="0"/>
        <pt x="390" y="1156" on="0"/>
        <pt x="632" y="1156" on="1"/>
        <pt x="853" y="1156" on="0"/>
        <pt x="977" y="1073" on="1"/>
        <pt x="1010" y="1102" on="0"/>
        <pt x="1102" y="1140" on="0"/>
        <pt x="1161" y="1140" on="1"/>
        <pt x="1288" y="1140" on="1"/>
      </contour>
      <contour>
        <pt x="715" y="600" on="0"/>
        <pt x="824" y="676" on="0"/>
        <pt x="824" y="775" on="1"/>
        <pt x="824" y="868" on="0"/>
        <pt x="727" y="963" on="0"/>
        <pt x="631" y="963" on="1"/>
        <pt x="534" y="963" on="0"/>
        <pt x="423" y="880" on="0"/>
        <pt x="423" y="779" on="1"/>
        <pt x="423" y="695" on="0"/>
        <pt x="523" y="600" on="0"/>
        <pt x="617" y="600" on="1"/>
      </contour>
      <contour>
        <pt x="505" y="0" on="1"/>
        <pt x="483" y="0" on="0"/>
        <pt x="443" y="2" on="1"/>
        <pt x="401" y="-36" on="0"/>
        <pt x="401" y="-114" on="1"/>
        <pt x="401" y="-208" on="0"/>
        <pt x="518" y="-332" on="0"/>
        <pt x="645" y="-332" on="1"/>
        <pt x="777" y="-332" on="0"/>
        <pt x="926" y="-251" on="0"/>
        <pt x="926" y="-164" on="1"/>
        <pt x="926" y="-105" on="0"/>
        <pt x="890" y="-36" on="0"/>
        <pt x="778" y="0" on="0"/>
        <pt x="668" y="0" on="1"/>
      </contour>
    </TTGlyph>
    <TTGlyph name="gbreve" xMin="91" yMin="-516" xMax="1288" yMax="1685">
      <component glyphName="g" x="0" y="0" flags="0x0"/>
      <component glyphName="breve" x="226" y="0" flags="0x0"/>
    </TTGlyph>
    <TTGlyph name="gcaron" xMin="91" yMin="-516" xMax="1288" yMax="1713">
      <component glyphName="g" x="0" y="0" flags="0x0"/>
      <component glyphName="caron" x="191" y="14" flags="0x4"/>
    </TTGlyph>
    <TTGlyph name="gcircumflex" xMin="91" yMin="-516" xMax="1288" yMax="1699">
      <component glyphName="circumflex" x="195" y="0" flags="0x0"/>
      <component glyphName="g" x="0" y="0" flags="0x0"/>
    </TTGlyph>
    <TTGlyph name="gcommaaccent" xMin="91" yMin="-516" xMax="1288" yMax="1856">
      <contour>
        <pt x="602" y="1294" on="0"/>
        <pt x="508" y="1362" on="0"/>
        <pt x="450" y="1477" on="0"/>
        <pt x="450" y="1549" on="1"/>
        <pt x="450" y="1626" on="0"/>
        <pt x="511" y="1758" on="0"/>
        <pt x="601" y="1844" on="0"/>
        <pt x="642" y="1856" on="1"/>
        <pt x="760" y="1805" on="1"/>
        <pt x="760" y="1782" on="1"/>
        <pt x="733" y="1750" on="0"/>
        <pt x="707" y="1685" on="0"/>
        <pt x="707" y="1629" on="1"/>
        <pt x="707" y="1579" on="0"/>
        <pt x="756" y="1485" on="0"/>
        <pt x="792" y="1478" on="1"/>
        <pt x="792" y="1409" on="1"/>
        <pt x="653" y="1288" on="1"/>
      </contour>
      <contour>
        <pt x="1288" y="914" on="1"/>
        <pt x="1099" y="914" on="1"/>
        <pt x="1119" y="856" on="0"/>
        <pt x="1119" y="784" on="1"/>
        <pt x="1119" y="601" on="0"/>
        <pt x="854" y="409" on="0"/>
        <pt x="612" y="409" on="1"/>
        <pt x="556" y="409" on="0"/>
        <pt x="513" y="416" on="1"/>
        <pt x="492" y="399" on="0"/>
        <pt x="470" y="350" on="0"/>
        <pt x="470" y="323" on="1"/>
        <pt x="470" y="275" on="0"/>
        <pt x="530" y="243" on="0"/>
        <pt x="605" y="243" on="1"/>
        <pt x="795" y="243" on="1"/>
        <pt x="1047" y="243" on="0"/>
        <pt x="1234" y="48" on="0"/>
        <pt x="1234" y="-102" on="1"/>
        <pt x="1234" y="-230" on="0"/>
        <pt x="1071" y="-418" on="0"/>
        <pt x="801" y="-516" on="0"/>
        <pt x="645" y="-516" on="1"/>
        <pt x="380" y="-516" on="0"/>
        <pt x="91" y="-345" on="0"/>
        <pt x="91" y="-183" on="1"/>
        <pt x="91" y="-104" on="0"/>
        <pt x="188" y="19" on="0"/>
        <pt x="267" y="54" on="1"/>
        <pt x="219" y="79" on="0"/>
        <pt x="174" y="171" on="0"/>
        <pt x="174" y="224" on="1"/>
        <pt x="174" y="292" on="0"/>
        <pt x="258" y="418" on="0"/>
        <pt x="356" y="458" on="1"/>
        <pt x="247" y="505" on="0"/>
        <pt x="122" y="672" on="0"/>
        <pt x="122" y="775" on="1"/>
        <pt x="122" y="971" on="0"/>
        <pt x="390" y="1156" on="0"/>
        <pt x="632" y="1156" on="1"/>
        <pt x="853" y="1156" on="0"/>
        <pt x="977" y="1073" on="1"/>
        <pt x="1010" y="1102" on="0"/>
        <pt x="1102" y="1140" on="0"/>
        <pt x="1161" y="1140" on="1"/>
        <pt x="1288" y="1140" on="1"/>
      </contour>
      <contour>
        <pt x="715" y="600" on="0"/>
        <pt x="824" y="676" on="0"/>
        <pt x="824" y="775" on="1"/>
        <pt x="824" y="868" on="0"/>
        <pt x="727" y="963" on="0"/>
        <pt x="631" y="963" on="1"/>
        <pt x="534" y="963" on="0"/>
        <pt x="423" y="880" on="0"/>
        <pt x="423" y="779" on="1"/>
        <pt x="423" y="695" on="0"/>
        <pt x="523" y="600" on="0"/>
        <pt x="617" y="600" on="1"/>
      </contour>
      <contour>
        <pt x="505" y="0" on="1"/>
        <pt x="483" y="0" on="0"/>
        <pt x="443" y="2" on="1"/>
        <pt x="401" y="-36" on="0"/>
        <pt x="401" y="-114" on="1"/>
        <pt x="401" y="-208" on="0"/>
        <pt x="518" y="-332" on="0"/>
        <pt x="645" y="-332" on="1"/>
        <pt x="777" y="-332" on="0"/>
        <pt x="926" y="-251" on="0"/>
        <pt x="926" y="-164" on="1"/>
        <pt x="926" y="-105" on="0"/>
        <pt x="890" y="-36" on="0"/>
        <pt x="778" y="0" on="0"/>
        <pt x="668" y="0" on="1"/>
      </contour>
    </TTGlyph>
    <TTGlyph name="gdotaccent" xMin="91" yMin="-516" xMax="1288" yMax="1665">
      <component glyphName="g" x="0" y="0" flags="0x0"/>
      <component glyphName="dotaccent" x="384" y="0" flags="0x0"/>
    </TTGlyph>
    <TTGlyph name="germandbls" xMin="54" yMin="-16" xMax="1342" yMax="1579">
      <contour>
        <pt x="998" y="859" on="0"/>
        <pt x="1029" y="806" on="0"/>
        <pt x="1077" y="761" on="0"/>
        <pt x="1121" y="724" on="1"/>
        <pt x="1189" y="668" on="0"/>
        <pt x="1278" y="575" on="0"/>
        <pt x="1342" y="433" on="0"/>
        <pt x="1342" y="339" on="1"/>
        <pt x="1342" y="149" on="0"/>
        <pt x="1100" y="-16" on="0"/>
        <pt x="916" y="-16" on="1"/>
        <pt x="836" y="-16" on="0"/>
        <pt x="706" y="3" on="0"/>
        <pt x="680" y="17" on="1"/>
        <pt x="680" y="240" on="1"/>
        <pt x="705" y="224" on="0"/>
        <pt x="803" y="197" on="0"/>
        <pt x="861" y="197" on="1"/>
        <pt x="924" y="197" on="0"/>
        <pt x="1025" y="257" on="0"/>
        <pt x="1025" y="324" on="1"/>
        <pt x="1025" y="368" on="0"/>
        <pt x="990" y="442" on="0"/>
        <pt x="938" y="500" on="0"/>
        <pt x="892" y="542" on="1"/>
        <pt x="839" y="591" on="0"/>
        <pt x="774" y="665" on="0"/>
        <pt x="729" y="770" on="0"/>
        <pt x="729" y="837" on="1"/>
        <pt x="729" y="882" on="0"/>
        <pt x="757" y="955" on="0"/>
        <pt x="797" y="1008" on="0"/>
        <pt x="830" y="1044" on="1"/>
        <pt x="876" y="1094" on="0"/>
        <pt x="921" y="1169" on="0"/>
        <pt x="921" y="1222" on="1"/>
        <pt x="921" y="1295" on="0"/>
        <pt x="837" y="1372" on="0"/>
        <pt x="759" y="1372" on="1"/>
        <pt x="638" y="1372" on="0"/>
        <pt x="510" y="1179" on="0"/>
        <pt x="510" y="951" on="1"/>
        <pt x="510" y="0" on="1"/>
        <pt x="193" y="0" on="1"/>
        <pt x="193" y="924" on="1"/>
        <pt x="54" y="924" on="1"/>
        <pt x="54" y="1119" on="1"/>
        <pt x="210" y="1148" on="1"/>
        <pt x="256" y="1367" on="0"/>
        <pt x="575" y="1579" on="0"/>
        <pt x="804" y="1579" on="1"/>
        <pt x="938" y="1579" on="0"/>
        <pt x="1137" y="1502" on="0"/>
        <pt x="1245" y="1361" on="0"/>
        <pt x="1245" y="1268" on="1"/>
        <pt x="1245" y="1206" on="0"/>
        <pt x="1201" y="1113" on="0"/>
        <pt x="1140" y="1052" on="0"/>
        <pt x="1092" y="1014" on="1"/>
        <pt x="1044" y="977" on="0"/>
        <pt x="998" y="923" on="0"/>
        <pt x="998" y="889" on="1"/>
      </contour>
    </TTGlyph>
    <TTGlyph name="grave" xMin="55" yMin="1252" xMax="611" yMax="1808">
      <contour>
        <pt x="416" y="1273" on="0"/>
        <pt x="244" y="1405" on="0"/>
        <pt x="86" y="1567" on="0"/>
        <pt x="55" y="1634" on="1"/>
        <pt x="270" y="1808" on="1"/>
        <pt x="331" y="1704" on="0"/>
        <pt x="521" y="1472" on="0"/>
        <pt x="611" y="1389" on="1"/>
        <pt x="462" y="1252" on="1"/>
      </contour>
    </TTGlyph>
    <TTGlyph name="grave.cap" xMin="57" yMin="1543" xMax="569" yMax="1980">
      <contour>
        <pt x="379" y="1558" on="0"/>
        <pt x="236" y="1662" on="0"/>
        <pt x="96" y="1796" on="0"/>
        <pt x="57" y="1849" on="1"/>
        <pt x="274" y="1980" on="1"/>
        <pt x="285" y="1948" on="0"/>
        <pt x="451" y="1782" on="0"/>
        <pt x="569" y="1668" on="1"/>
        <pt x="423" y="1543" on="1"/>
      </contour>
    </TTGlyph>
    <TTGlyph name="greater" xMin="218" yMin="229" xMax="1170" yMax="1331">
      <contour>
        <pt x="1170" y="852" on="1"/>
        <pt x="1170" y="698" on="1"/>
        <pt x="218" y="229" on="1"/>
        <pt x="218" y="511" on="1"/>
        <pt x="815" y="774" on="1"/>
        <pt x="218" y="1057" on="1"/>
        <pt x="218" y="1331" on="1"/>
      </contour>
    </TTGlyph>
    <TTGlyph name="greaterequal" xMin="224" yMin="-1" xMax="1193" yMax="1271">
      <contour>
        <pt x="1193" y="851" on="1"/>
        <pt x="1193" y="696" on="1"/>
        <pt x="224" y="278" on="1"/>
        <pt x="224" y="541" on="1"/>
        <pt x="854" y="774" on="1"/>
        <pt x="224" y="1009" on="1"/>
        <pt x="224" y="1271" on="1"/>
      </contour>
      <contour>
        <pt x="224" y="204" on="1"/>
        <pt x="1193" y="204" on="1"/>
        <pt x="1193" y="-1" on="1"/>
        <pt x="224" y="-1" on="1"/>
      </contour>
    </TTGlyph>
    <TTGlyph name="guillemotleft" xMin="235" yMin="76" xMax="1749" yMax="1157">
      <component glyphName="guilsinglleft" x="0" y="0" flags="0x0"/>
      <component glyphName="guilsinglleft" x="783" y="0" flags="0x0"/>
    </TTGlyph>
    <TTGlyph name="guillemotright" xMin="239" yMin="76" xMax="1753" yMax="1157">
      <contour>
        <pt x="314" y="1157" on="1"/>
        <pt x="970" y="735" on="1"/>
        <pt x="970" y="492" on="1"/>
        <pt x="314" y="76" on="1"/>
        <pt x="239" y="290" on="1"/>
        <pt x="670" y="615" on="1"/>
        <pt x="239" y="941" on="1"/>
      </contour>
      <contour>
        <pt x="1753" y="735" on="1"/>
        <pt x="1753" y="492" on="1"/>
        <pt x="1097" y="76" on="1"/>
        <pt x="1022" y="290" on="1"/>
        <pt x="1453" y="615" on="1"/>
        <pt x="1022" y="941" on="1"/>
        <pt x="1097" y="1157" on="1"/>
      </contour>
    </TTGlyph>
    <TTGlyph name="guilsinglleft" xMin="235" yMin="76" xMax="966" yMax="1157">
      <contour>
        <pt x="535" y="615" on="1"/>
        <pt x="966" y="290" on="1"/>
        <pt x="891" y="76" on="1"/>
        <pt x="235" y="492" on="1"/>
        <pt x="235" y="735" on="1"/>
        <pt x="891" y="1157" on="1"/>
        <pt x="966" y="941" on="1"/>
      </contour>
    </TTGlyph>
    <TTGlyph name="guilsinglright" xMin="238" yMin="76" xMax="969" yMax="1157">
      <contour>
        <pt x="969" y="735" on="1"/>
        <pt x="969" y="492" on="1"/>
        <pt x="313" y="76" on="1"/>
        <pt x="238" y="290" on="1"/>
        <pt x="669" y="615" on="1"/>
        <pt x="238" y="941" on="1"/>
        <pt x="313" y="1157" on="1"/>
      </contour>
    </TTGlyph>
    <TTGlyph name="h" xMin="168" yMin="0" xMax="1189" yMax="1662">
      <contour>
        <pt x="939" y="1163" on="0"/>
        <pt x="1106" y="1075" on="0"/>
        <pt x="1189" y="875" on="0"/>
        <pt x="1189" y="710" on="1"/>
        <pt x="1189" y="0" on="1"/>
        <pt x="877" y="0" on="1"/>
        <pt x="877" y="648" on="1"/>
        <pt x="877" y="740" on="0"/>
        <pt x="846" y="847" on="0"/>
        <pt x="777" y="895" on="0"/>
        <pt x="716" y="895" on="1"/>
        <pt x="665" y="895" on="0"/>
        <pt x="530" y="853" on="0"/>
        <pt x="480" y="809" on="1"/>
        <pt x="480" y="0" on="1"/>
        <pt x="168" y="0" on="1"/>
        <pt x="168" y="1662" on="1"/>
        <pt x="480" y="1662" on="1"/>
        <pt x="480" y="1224" on="1"/>
        <pt x="463" y="1022" on="1"/>
        <pt x="527" y="1075" on="0"/>
        <pt x="722" y="1156" on="0"/>
        <pt x="811" y="1159" on="1"/>
      </contour>
    </TTGlyph>
    <TTGlyph name="hbar" xMin="36" yMin="0" xMax="1189" yMax="1662">
      <contour>
        <pt x="939" y="1163" on="0"/>
        <pt x="1106" y="1075" on="0"/>
        <pt x="1189" y="875" on="0"/>
        <pt x="1189" y="710" on="1"/>
        <pt x="1189" y="0" on="1"/>
        <pt x="877" y="0" on="1"/>
        <pt x="877" y="648" on="1"/>
        <pt x="877" y="740" on="0"/>
        <pt x="846" y="847" on="0"/>
        <pt x="777" y="895" on="0"/>
        <pt x="716" y="895" on="1"/>
        <pt x="665" y="895" on="0"/>
        <pt x="530" y="853" on="0"/>
        <pt x="480" y="809" on="1"/>
        <pt x="480" y="0" on="1"/>
        <pt x="168" y="0" on="1"/>
        <pt x="168" y="1293" on="1"/>
        <pt x="36" y="1293" on="1"/>
        <pt x="36" y="1473" on="1"/>
        <pt x="168" y="1473" on="1"/>
        <pt x="168" y="1662" on="1"/>
        <pt x="480" y="1662" on="1"/>
        <pt x="480" y="1473" on="1"/>
        <pt x="703" y="1473" on="1"/>
        <pt x="703" y="1293" on="1"/>
        <pt x="480" y="1293" on="1"/>
        <pt x="480" y="1224" on="1"/>
        <pt x="463" y="1022" on="1"/>
        <pt x="527" y="1075" on="0"/>
        <pt x="722" y="1156" on="0"/>
        <pt x="811" y="1159" on="1"/>
      </contour>
    </TTGlyph>
    <TTGlyph name="hcircumflex" xMin="168" yMin="0" xMax="1189" yMax="1960">
      <contour>
        <pt x="939" y="1163" on="0"/>
        <pt x="1106" y="1075" on="0"/>
        <pt x="1189" y="875" on="0"/>
        <pt x="1189" y="710" on="1"/>
        <pt x="1189" y="0" on="1"/>
        <pt x="877" y="0" on="1"/>
        <pt x="877" y="648" on="1"/>
        <pt x="877" y="740" on="0"/>
        <pt x="846" y="847" on="0"/>
        <pt x="777" y="895" on="0"/>
        <pt x="716" y="895" on="1"/>
        <pt x="665" y="895" on="0"/>
        <pt x="530" y="853" on="0"/>
        <pt x="480" y="809" on="1"/>
        <pt x="480" y="0" on="1"/>
        <pt x="168" y="0" on="1"/>
        <pt x="168" y="1662" on="1"/>
        <pt x="416" y="1662" on="1"/>
        <pt x="679" y="1960" on="1"/>
        <pt x="899" y="1960" on="1"/>
        <pt x="1175" y="1652" on="1"/>
        <pt x="1010" y="1560" on="1"/>
        <pt x="789" y="1759" on="1"/>
        <pt x="567" y="1560" on="1"/>
        <pt x="480" y="1608" on="1"/>
        <pt x="480" y="1224" on="1"/>
        <pt x="463" y="1022" on="1"/>
        <pt x="527" y="1075" on="0"/>
        <pt x="722" y="1156" on="0"/>
        <pt x="811" y="1159" on="1"/>
      </contour>
    </TTGlyph>
    <TTGlyph name="hungarumlaut" xMin="57" yMin="1321" xMax="1044" yMax="1821">
      <contour>
        <pt x="327" y="1821" on="1"/>
        <pt x="522" y="1684" on="1"/>
        <pt x="490" y="1632" on="0"/>
        <pt x="362" y="1479" on="0"/>
        <pt x="228" y="1347" on="0"/>
        <pt x="184" y="1321" on="1"/>
        <pt x="57" y="1414" on="1"/>
      </contour>
      <contour>
        <pt x="848" y="1817" on="1"/>
        <pt x="1044" y="1681" on="1"/>
        <pt x="1010" y="1628" on="0"/>
        <pt x="879" y="1473" on="0"/>
        <pt x="743" y="1342" on="0"/>
        <pt x="698" y="1321" on="1"/>
        <pt x="576" y="1414" on="1"/>
      </contour>
    </TTGlyph>
    <TTGlyph name="hungarumlaut.cap" xMin="47" yMin="1553" xMax="1010" yMax="1960">
      <contour>
        <pt x="62" y="1682" on="0"/>
        <pt x="166" y="1810" on="0"/>
        <pt x="259" y="1937" on="0"/>
        <pt x="267" y="1960" on="1"/>
        <pt x="497" y="1848" on="1"/>
        <pt x="431" y="1752" on="0"/>
        <pt x="265" y="1578" on="0"/>
        <pt x="209" y="1553" on="1"/>
        <pt x="47" y="1668" on="1"/>
      </contour>
      <contour>
        <pt x="576" y="1682" on="0"/>
        <pt x="682" y="1809" on="0"/>
        <pt x="776" y="1934" on="0"/>
        <pt x="784" y="1957" on="1"/>
        <pt x="1010" y="1844" on="1"/>
        <pt x="948" y="1752" on="0"/>
        <pt x="780" y="1578" on="0"/>
        <pt x="721" y="1553" on="1"/>
        <pt x="560" y="1668" on="1"/>
      </contour>
    </TTGlyph>
    <TTGlyph name="hyphen" xMin="255" yMin="644" xMax="1105" yMax="889">
      <contour>
        <pt x="1105" y="889" on="1"/>
        <pt x="1105" y="644" on="1"/>
        <pt x="255" y="644" on="1"/>
        <pt x="255" y="889" on="1"/>
      </contour>
    </TTGlyph>
    <TTGlyph name="i" xMin="136" yMin="0" xMax="515" yMax="1664">
      <component glyphName="dotlessi" x="0" y="0" flags="0x0"/>
      <component glyphName="dotaccent" x="81" y="-1" flags="0x4"/>
    </TTGlyph>
    <TTGlyph name="i.cy" xMin="136" yMin="0" xMax="515" yMax="1664">
      <component glyphName="dotlessi" x="0" y="0" flags="0x0"/>
      <component glyphName="dotaccent" x="81" y="-1" flags="0x4"/>
    </TTGlyph>
    <TTGlyph name="i.dot" xMin="136" yMin="0" xMax="515" yMax="1664">
      <component glyphName="dotlessi" x="0" y="0" flags="0x0"/>
      <component glyphName="dotaccent" x="81" y="-1" flags="0x4"/>
    </TTGlyph>
    <TTGlyph name="i.uc" xMin="186" yMin="0" xMax="547" yMax="1958">
      <component glyphName="I" x="0" y="0" flags="0x0"/>
      <component glyphName="dotaccent.cap" x="122" y="-1" flags="0x4"/>
    </TTGlyph>
    <TTGlyph name="iacute" xMin="174" yMin="0" xMax="752" yMax="1807">
      <component glyphName="acute" x="142" y="-1" flags="0x4"/>
      <component glyphName="dotlessi" x="0" y="0" flags="0x0"/>
    </TTGlyph>
    <TTGlyph name="ibreve" xMin="-37" yMin="0" xMax="699" yMax="1684">
      <component glyphName="dotlessi" x="0" y="0" flags="0x0"/>
      <component glyphName="breve" x="-77" y="-1" flags="0x4"/>
    </TTGlyph>
    <TTGlyph name="icircumflex" xMin="-65" yMin="0" xMax="727" yMax="1698">
      <component glyphName="circumflex" x="-108" y="-1" flags="0x4"/>
      <component glyphName="dotlessi" x="0" y="0" flags="0x0"/>
    </TTGlyph>
    <TTGlyph name="idieresis" xMin="-75" yMin="0" xMax="735" yMax="1662">
      <contour>
        <pt x="-75" y="1526" on="0"/>
        <pt x="-25" y="1611" on="0"/>
        <pt x="60" y="1662" on="0"/>
        <pt x="110" y="1662" on="1"/>
        <pt x="190" y="1662" on="0"/>
        <pt x="274" y="1569" on="0"/>
        <pt x="274" y="1494" on="1"/>
        <pt x="274" y="1444" on="0"/>
        <pt x="226" y="1359" on="0"/>
        <pt x="142" y="1309" on="0"/>
        <pt x="91" y="1309" on="1"/>
        <pt x="16" y="1309" on="0"/>
        <pt x="-75" y="1403" on="0"/>
        <pt x="-75" y="1477" on="1"/>
      </contour>
      <contour>
        <pt x="386" y="1526" on="0"/>
        <pt x="436" y="1611" on="0"/>
        <pt x="521" y="1662" on="0"/>
        <pt x="571" y="1662" on="1"/>
        <pt x="651" y="1662" on="0"/>
        <pt x="735" y="1569" on="0"/>
        <pt x="735" y="1494" on="1"/>
        <pt x="735" y="1444" on="0"/>
        <pt x="687" y="1359" on="0"/>
        <pt x="603" y="1309" on="0"/>
        <pt x="552" y="1309" on="1"/>
        <pt x="477" y="1309" on="0"/>
        <pt x="386" y="1403" on="0"/>
        <pt x="386" y="1477" on="1"/>
      </contour>
      <contour>
        <pt x="486" y="1140" on="1"/>
        <pt x="486" y="0" on="1"/>
        <pt x="174" y="0" on="1"/>
        <pt x="174" y="1140" on="1"/>
      </contour>
    </TTGlyph>
    <TTGlyph name="igrave" xMin="-105" yMin="0" xMax="486" yMax="1807">
      <component glyphName="dotlessi" x="0" y="0" flags="0x0"/>
      <component glyphName="grave" x="-160" y="-1" flags="0x4"/>
    </TTGlyph>
    <TTGlyph name="ij" xMin="136" yMin="-507" xMax="1174" yMax="1665">
      <component glyphName="dotlessi" x="0" y="0" flags="0x0"/>
      <component glyphName="dotaccent" x="81" y="-1" flags="0x4"/>
      <component glyphName="uni0237" x="660" y="0" flags="0x0"/>
      <component glyphName="dotaccent" x="740" y="0" flags="0x0"/>
    </TTGlyph>
    <TTGlyph name="ij_acutecomb" xMin="174" yMin="-507" xMax="1361" yMax="1808">
      <contour>
        <pt x="896" y="1473" on="0"/>
        <pt x="1074" y="1689" on="0"/>
        <pt x="1147" y="1808" on="1"/>
        <pt x="1361" y="1634" on="1"/>
        <pt x="1334" y="1571" on="0"/>
        <pt x="1175" y="1407" on="0"/>
        <pt x="998" y="1271" on="0"/>
        <pt x="955" y="1252" on="1"/>
        <pt x="806" y="1389" on="1"/>
      </contour>
      <contour>
        <pt x="287" y="1472" on="0"/>
        <pt x="465" y="1688" on="0"/>
        <pt x="538" y="1807" on="1"/>
        <pt x="752" y="1633" on="1"/>
        <pt x="725" y="1570" on="0"/>
        <pt x="566" y="1406" on="0"/>
        <pt x="389" y="1270" on="0"/>
        <pt x="346" y="1251" on="1"/>
        <pt x="197" y="1388" on="1"/>
      </contour>
      <contour>
        <pt x="486" y="1140" on="1"/>
        <pt x="486" y="0" on="1"/>
        <pt x="174" y="0" on="1"/>
        <pt x="174" y="1140" on="1"/>
      </contour>
      <contour>
        <pt x="570" y="-289" on="0"/>
        <pt x="648" y="-304" on="0"/>
        <pt x="673" y="-304" on="1"/>
        <pt x="734" y="-304" on="0"/>
        <pt x="803" y="-247" on="0"/>
        <pt x="834" y="-115" on="0"/>
        <pt x="834" y="1" on="1"/>
        <pt x="834" y="1140" on="1"/>
        <pt x="1146" y="1140" on="1"/>
        <pt x="1146" y="82" on="1"/>
        <pt x="1146" y="-226" on="0"/>
        <pt x="933" y="-507" on="0"/>
        <pt x="731" y="-507" on="1"/>
        <pt x="700" y="-507" on="0"/>
        <pt x="574" y="-490" on="0"/>
        <pt x="556" y="-483" on="1"/>
        <pt x="556" y="-282" on="1"/>
      </contour>
    </TTGlyph>
    <TTGlyph name="imacron" xMin="35" yMin="0" xMax="626" yMax="1625">
      <component glyphName="dotlessi" x="0" y="0" flags="0x0"/>
      <component glyphName="macron" x="-20" y="-1" flags="0x4"/>
    </TTGlyph>
    <TTGlyph name="infinity" xMin="84" yMin="178" xMax="1922" yMax="1053">
      <contour>
        <pt x="1599" y="1051" on="0"/>
        <pt x="1817" y="929" on="0"/>
        <pt x="1922" y="729" on="0"/>
        <pt x="1922" y="614" on="1"/>
        <pt x="1922" y="493" on="0"/>
        <pt x="1806" y="295" on="0"/>
        <pt x="1589" y="178" on="0"/>
        <pt x="1443" y="178" on="1"/>
        <pt x="1278" y="178" on="0"/>
        <pt x="1064" y="297" on="0"/>
        <pt x="986" y="402" on="1"/>
        <pt x="902" y="304" on="0"/>
        <pt x="693" y="183" on="0"/>
        <pt x="568" y="182" on="1"/>
        <pt x="414" y="180" on="0"/>
        <pt x="195" y="300" on="0"/>
        <pt x="84" y="500" on="0"/>
        <pt x="84" y="617" on="1"/>
        <pt x="84" y="735" on="0"/>
        <pt x="202" y="935" on="0"/>
        <pt x="419" y="1053" on="0"/>
        <pt x="560" y="1053" on="1"/>
        <pt x="727" y="1053" on="0"/>
        <pt x="944" y="932" on="0"/>
        <pt x="1024" y="825" on="1"/>
        <pt x="1108" y="925" on="0"/>
        <pt x="1317" y="1048" on="0"/>
        <pt x="1440" y="1049" on="1"/>
      </contour>
      <contour>
        <pt x="669" y="396" on="0"/>
        <pt x="801" y="485" on="0"/>
        <pt x="867" y="573" on="1"/>
        <pt x="798" y="686" on="0"/>
        <pt x="636" y="836" on="0"/>
        <pt x="547" y="836" on="1"/>
        <pt x="492" y="836" on="0"/>
        <pt x="404" y="782" on="0"/>
        <pt x="354" y="683" on="0"/>
        <pt x="354" y="618" on="1"/>
        <pt x="354" y="556" on="0"/>
        <pt x="407" y="456" on="0"/>
        <pt x="517" y="396" on="0"/>
        <pt x="600" y="396" on="1"/>
      </contour>
      <contour>
        <pt x="1513" y="390" on="0"/>
        <pt x="1601" y="446" on="0"/>
        <pt x="1649" y="549" on="0"/>
        <pt x="1649" y="615" on="1"/>
        <pt x="1649" y="709" on="0"/>
        <pt x="1527" y="829" on="0"/>
        <pt x="1408" y="829" on="1"/>
        <pt x="1339" y="829" on="0"/>
        <pt x="1209" y="742" on="0"/>
        <pt x="1144" y="654" on="1"/>
        <pt x="1213" y="538" on="0"/>
        <pt x="1366" y="390" on="0"/>
        <pt x="1455" y="390" on="1"/>
      </contour>
    </TTGlyph>
    <TTGlyph name="integral" xMin="105" yMin="-518" xMax="983" yMax="1685">
      <contour>
        <pt x="196" y="-193" on="1"/>
        <pt x="211" y="-215" on="0"/>
        <pt x="286" y="-269" on="0"/>
        <pt x="378" y="-306" on="0"/>
        <pt x="417" y="-306" on="1"/>
        <pt x="520" y="-306" on="0"/>
        <pt x="608" y="-181" on="0"/>
        <pt x="608" y="-59" on="1"/>
        <pt x="608" y="38" on="0"/>
        <pt x="553" y="245" on="0"/>
        <pt x="471" y="439" on="0"/>
        <pt x="405" y="578" on="1"/>
        <pt x="339" y="720" on="0"/>
        <pt x="263" y="900" on="0"/>
        <pt x="207" y="1099" on="0"/>
        <pt x="205" y="1192" on="1"/>
        <pt x="201" y="1332" on="0"/>
        <pt x="296" y="1554" on="0"/>
        <pt x="507" y="1685" on="0"/>
        <pt x="670" y="1685" on="1"/>
        <pt x="796" y="1685" on="0"/>
        <pt x="955" y="1607" on="0"/>
        <pt x="983" y="1548" on="1"/>
        <pt x="859" y="1385" on="1"/>
        <pt x="850" y="1404" on="0"/>
        <pt x="801" y="1445" on="0"/>
        <pt x="727" y="1473" on="0"/>
        <pt x="683" y="1473" on="1"/>
        <pt x="472" y="1473" on="0"/>
        <pt x="480" y="1202" on="1"/>
        <pt x="482" y="1109" on="0"/>
        <pt x="538" y="909" on="0"/>
        <pt x="616" y="724" on="0"/>
        <pt x="681" y="587" on="1"/>
        <pt x="747" y="448" on="0"/>
        <pt x="828" y="258" on="0"/>
        <pt x="882" y="55" on="0"/>
        <pt x="882" y="-40" on="1"/>
        <pt x="882" y="-161" on="0"/>
        <pt x="788" y="-379" on="0"/>
        <pt x="583" y="-518" on="0"/>
        <pt x="425" y="-518" on="1"/>
        <pt x="372" y="-518" on="0"/>
        <pt x="234" y="-482" on="0"/>
        <pt x="122" y="-421" on="0"/>
        <pt x="105" y="-386" on="1"/>
      </contour>
    </TTGlyph>
    <TTGlyph name="iogonek" xMin="4" yMin="-516" xMax="527" yMax="1665">
      <contour>
        <pt x="278" y="1307" on="0"/>
        <pt x="196" y="1351" on="0"/>
        <pt x="148" y="1429" on="0"/>
        <pt x="148" y="1478" on="1"/>
        <pt x="148" y="1528" on="0"/>
        <pt x="204" y="1614" on="0"/>
        <pt x="296" y="1665" on="0"/>
        <pt x="347" y="1665" on="1"/>
        <pt x="429" y="1665" on="0"/>
        <pt x="527" y="1570" on="0"/>
        <pt x="527" y="1495" on="1"/>
        <pt x="527" y="1445" on="0"/>
        <pt x="472" y="1358" on="0"/>
        <pt x="381" y="1307" on="0"/>
        <pt x="329" y="1307" on="1"/>
      </contour>
      <contour>
        <pt x="255" y="-311" on="0"/>
        <pt x="376" y="-311" on="1"/>
        <pt x="431" y="-311" on="0"/>
        <pt x="501" y="-291" on="1"/>
        <pt x="501" y="-448" on="1"/>
        <pt x="458" y="-480" on="0"/>
        <pt x="335" y="-516" on="0"/>
        <pt x="271" y="-516" on="1"/>
        <pt x="207" y="-516" on="0"/>
        <pt x="89" y="-468" on="0"/>
        <pt x="13" y="-377" on="0"/>
        <pt x="10" y="-316" on="1"/>
        <pt x="4" y="-214" on="0"/>
        <pt x="132" y="-52" on="0"/>
        <pt x="226" y="0" on="1"/>
        <pt x="174" y="0" on="1"/>
        <pt x="174" y="1140" on="1"/>
        <pt x="486" y="1140" on="1"/>
        <pt x="486" y="0" on="1"/>
        <pt x="434" y="0" on="1"/>
        <pt x="346" y="-57" on="0"/>
        <pt x="255" y="-152" on="0"/>
        <pt x="255" y="-212" on="1"/>
      </contour>
    </TTGlyph>
    <TTGlyph name="itilde" xMin="-116" yMin="0" xMax="760" yMax="1698">
      <component glyphName="dotlessi" x="0" y="0" flags="0x0"/>
      <component glyphName="tilde" x="-148" y="-1" flags="0x4"/>
    </TTGlyph>
    <TTGlyph name="j" xMin="-104" yMin="-507" xMax="514" yMax="1665">
      <component glyphName="uni0237" x="0" y="0" flags="0x0"/>
      <component glyphName="dotaccent" x="80" y="0" flags="0x0"/>
    </TTGlyph>
    <TTGlyph name="jcircumflex" xMin="-104" yMin="-507" xMax="726" yMax="1699">
      <component glyphName="uni0237" x="0" y="0" flags="0x0"/>
      <component glyphName="circumflex" x="-109" y="0" flags="0x0"/>
    </TTGlyph>
    <TTGlyph name="k" xMin="168" yMin="0" xMax="1248" yMax="1661">
      <contour>
        <pt x="598" y="475" on="1"/>
        <pt x="476" y="342" on="1"/>
        <pt x="480" y="213" on="1"/>
        <pt x="480" y="0" on="1"/>
        <pt x="168" y="0" on="1"/>
        <pt x="168" y="1661" on="1"/>
        <pt x="480" y="1661" on="1"/>
        <pt x="480" y="977" on="1"/>
        <pt x="470" y="690" on="1"/>
        <pt x="855" y="1140" on="1"/>
        <pt x="1208" y="1140" on="1"/>
        <pt x="801" y="697" on="1"/>
        <pt x="1248" y="0" on="1"/>
        <pt x="893" y="0" on="1"/>
      </contour>
    </TTGlyph>
    <TTGlyph name="kcommaaccent" xMin="168" yMin="-560" xMax="1248" yMax="1661">
      <component glyphName="uni0326" x="889" y="0" flags="0x0"/>
      <component glyphName="k" x="0" y="0" flags="0x0"/>
    </TTGlyph>
    <TTGlyph name="kgreenlandic" xMin="174" yMin="0" xMax="1257" yMax="1140">
      <contour>
        <pt x="615" y="437" on="1"/>
        <pt x="484" y="284" on="1"/>
        <pt x="486" y="160" on="1"/>
        <pt x="486" y="0" on="1"/>
        <pt x="174" y="0" on="1"/>
        <pt x="174" y="1140" on="1"/>
        <pt x="486" y="1140" on="1"/>
        <pt x="486" y="779" on="1"/>
        <pt x="479" y="624" on="1"/>
        <pt x="875" y="1140" on="1"/>
        <pt x="1224" y="1140" on="1"/>
        <pt x="814" y="666" on="1"/>
        <pt x="1257" y="0" on="1"/>
        <pt x="902" y="0" on="1"/>
      </contour>
    </TTGlyph>
    <TTGlyph name="l" xMin="180" yMin="0" xMax="492" yMax="1662">
      <contour>
        <pt x="492" y="1662" on="1"/>
        <pt x="492" y="0" on="1"/>
        <pt x="180" y="0" on="1"/>
        <pt x="180" y="1662" on="1"/>
      </contour>
    </TTGlyph>
    <TTGlyph name="lacute" xMin="180" yMin="0" xMax="694" yMax="1980">
      <contour>
        <pt x="253" y="1734" on="0"/>
        <pt x="466" y="1948" on="0"/>
        <pt x="477" y="1980" on="1"/>
        <pt x="694" y="1849" on="1"/>
        <pt x="650" y="1792" on="0"/>
        <pt x="514" y="1661" on="0"/>
        <pt x="375" y="1559" on="0"/>
        <pt x="328" y="1543" on="1"/>
        <pt x="182" y="1668" on="1"/>
      </contour>
      <contour>
        <pt x="492" y="1527" on="1"/>
        <pt x="492" y="0" on="1"/>
        <pt x="180" y="0" on="1"/>
        <pt x="180" y="1527" on="1"/>
      </contour>
    </TTGlyph>
    <TTGlyph name="lcaron" xMin="180" yMin="0" xMax="952" yMax="1708">
      <component glyphName="l" x="0" y="0" flags="0x0"/>
      <component glyphName="caronvertical" x="589" y="0" flags="0x0"/>
    </TTGlyph>
    <TTGlyph name="lcommaaccent" xMin="180" yMin="-560" xMax="503" yMax="1662">
      <component glyphName="uni0326" x="570" y="0" flags="0x0"/>
      <component glyphName="l" x="0" y="0" flags="0x0"/>
    </TTGlyph>
    <TTGlyph name="ldot" xMin="180" yMin="0" xMax="1055" yMax="1662">
      <component glyphName="l" x="0" y="0" flags="0x0"/>
      <component glyphName="period" x="540" y="682" flags="0x4"/>
    </TTGlyph>
    <TTGlyph name="less" xMin="197" yMin="229" xMax="1149" yMax="1331">
      <contour>
        <pt x="1149" y="1057" on="1"/>
        <pt x="552" y="774" on="1"/>
        <pt x="1149" y="511" on="1"/>
        <pt x="1149" y="229" on="1"/>
        <pt x="197" y="698" on="1"/>
        <pt x="197" y="852" on="1"/>
        <pt x="1149" y="1331" on="1"/>
      </contour>
    </TTGlyph>
    <TTGlyph name="lessequal" xMin="175" yMin="-1" xMax="1144" yMax="1271">
      <contour>
        <pt x="1144" y="1009" on="1"/>
        <pt x="514" y="774" on="1"/>
        <pt x="1144" y="541" on="1"/>
        <pt x="1144" y="278" on="1"/>
        <pt x="175" y="696" on="1"/>
        <pt x="175" y="851" on="1"/>
        <pt x="1144" y="1271" on="1"/>
      </contour>
      <contour>
        <pt x="175" y="204" on="1"/>
        <pt x="1144" y="204" on="1"/>
        <pt x="1144" y="-1" on="1"/>
        <pt x="175" y="-1" on="1"/>
      </contour>
    </TTGlyph>
    <TTGlyph name="lira" xMin="113" yMin="-16" xMax="1530" yMax="1538">
      <contour>
        <pt x="408" y="994" on="1"/>
        <pt x="408" y="1037" on="1"/>
        <pt x="408" y="1185" on="0"/>
        <pt x="545" y="1412" on="0"/>
        <pt x="802" y="1538" on="0"/>
        <pt x="978" y="1538" on="1"/>
        <pt x="1214" y="1538" on="0"/>
        <pt x="1358" y="1432" on="1"/>
        <pt x="1214" y="1175" on="1"/>
        <pt x="1178" y="1209" on="0"/>
        <pt x="1052" y="1260" on="0"/>
        <pt x="977" y="1260" on="1"/>
        <pt x="903" y="1260" on="0"/>
        <pt x="810" y="1216" on="0"/>
        <pt x="760" y="1100" on="0"/>
        <pt x="760" y="994" on="1"/>
        <pt x="1075" y="994" on="1"/>
        <pt x="1075" y="844" on="1"/>
        <pt x="760" y="844" on="1"/>
        <pt x="760" y="726" on="1"/>
        <pt x="1053" y="726" on="1"/>
        <pt x="1053" y="576" on="1"/>
        <pt x="759" y="576" on="1"/>
        <pt x="756" y="462" on="0"/>
        <pt x="722" y="310" on="0"/>
        <pt x="680" y="272" on="1"/>
        <pt x="700" y="267" on="0"/>
        <pt x="753" y="252" on="0"/>
        <pt x="767" y="248" on="1"/>
        <pt x="827" y="229" on="0"/>
        <pt x="918" y="210" on="0"/>
        <pt x="974" y="210" on="1"/>
        <pt x="1085" y="210" on="0"/>
        <pt x="1195" y="297" on="0"/>
        <pt x="1195" y="368" on="1"/>
        <pt x="1195" y="398" on="0"/>
        <pt x="1170" y="456" on="0"/>
        <pt x="1134" y="498" on="0"/>
        <pt x="1120" y="504" on="1"/>
        <pt x="1378" y="620" on="1"/>
        <pt x="1405" y="604" on="0"/>
        <pt x="1476" y="529" on="0"/>
        <pt x="1530" y="413" on="0"/>
        <pt x="1530" y="342" on="1"/>
        <pt x="1530" y="175" on="0"/>
        <pt x="1295" y="-16" on="0"/>
        <pt x="1058" y="-16" on="1"/>
        <pt x="935" y="-16" on="0"/>
        <pt x="740" y="22" on="0"/>
        <pt x="628" y="54" on="1"/>
        <pt x="572" y="71" on="0"/>
        <pt x="505" y="86" on="0"/>
        <pt x="479" y="86" on="1"/>
        <pt x="444" y="53" on="0"/>
        <pt x="319" y="-6" on="0"/>
        <pt x="265" y="-6" on="1"/>
        <pt x="206" y="-6" on="0"/>
        <pt x="113" y="52" on="0"/>
        <pt x="113" y="112" on="1"/>
        <pt x="113" y="166" on="0"/>
        <pt x="188" y="249" on="0"/>
        <pt x="309" y="296" on="0"/>
        <pt x="377" y="301" on="1"/>
        <pt x="408" y="334" on="0"/>
        <pt x="408" y="527" on="1"/>
        <pt x="408" y="576" on="1"/>
        <pt x="209" y="576" on="1"/>
        <pt x="209" y="726" on="1"/>
        <pt x="408" y="726" on="1"/>
        <pt x="408" y="844" on="1"/>
        <pt x="231" y="844" on="1"/>
        <pt x="231" y="994" on="1"/>
      </contour>
    </TTGlyph>
    <TTGlyph name="logicalnot" xMin="245" yMin="323" xMax="1235" yMax="852">
      <contour>
        <pt x="1235" y="852" on="1"/>
        <pt x="1235" y="323" on="1"/>
        <pt x="991" y="323" on="1"/>
        <pt x="991" y="639" on="1"/>
        <pt x="245" y="639" on="1"/>
        <pt x="245" y="852" on="1"/>
      </contour>
    </TTGlyph>
    <TTGlyph name="lozenge" xMin="70" yMin="0" xMax="1245" yMax="1536">
      <contour>
        <pt x="660" y="1536" on="1"/>
        <pt x="1245" y="775" on="1"/>
        <pt x="1245" y="762" on="1"/>
        <pt x="660" y="0" on="1"/>
        <pt x="655" y="0" on="1"/>
        <pt x="70" y="762" on="1"/>
        <pt x="70" y="775" on="1"/>
        <pt x="656" y="1536" on="1"/>
      </contour>
      <contour>
        <pt x="357" y="766" on="1"/>
        <pt x="656" y="363" on="1"/>
        <pt x="659" y="363" on="1"/>
        <pt x="958" y="769" on="1"/>
        <pt x="958" y="772" on="1"/>
        <pt x="659" y="1156" on="1"/>
        <pt x="656" y="1156" on="1"/>
        <pt x="357" y="772" on="1"/>
      </contour>
    </TTGlyph>
    <TTGlyph name="lslash" xMin="18" yMin="0" xMax="672" yMax="1662">
      <contour>
        <pt x="672" y="951" on="1"/>
        <pt x="492" y="885" on="1"/>
        <pt x="492" y="0" on="1"/>
        <pt x="180" y="0" on="1"/>
        <pt x="180" y="770" on="1"/>
        <pt x="18" y="710" on="1"/>
        <pt x="18" y="905" on="1"/>
        <pt x="180" y="967" on="1"/>
        <pt x="180" y="1662" on="1"/>
        <pt x="492" y="1662" on="1"/>
        <pt x="492" y="1088" on="1"/>
        <pt x="672" y="1157" on="1"/>
      </contour>
    </TTGlyph>
    <TTGlyph name="m" xMin="174" yMin="0" xMax="1885" yMax="1164">
      <contour>
        <pt x="1640" y="1160" on="0"/>
        <pt x="1801" y="1074" on="0"/>
        <pt x="1885" y="879" on="0"/>
        <pt x="1885" y="717" on="1"/>
        <pt x="1885" y="0" on="1"/>
        <pt x="1573" y="0" on="1"/>
        <pt x="1573" y="649" on="1"/>
        <pt x="1573" y="744" on="0"/>
        <pt x="1547" y="849" on="0"/>
        <pt x="1480" y="896" on="0"/>
        <pt x="1416" y="896" on="1"/>
        <pt x="1358" y="896" on="0"/>
        <pt x="1229" y="848" on="0"/>
        <pt x="1184" y="812" on="1"/>
        <pt x="1188" y="768" on="0"/>
        <pt x="1188" y="707" on="1"/>
        <pt x="1188" y="0" on="1"/>
        <pt x="876" y="0" on="1"/>
        <pt x="876" y="648" on="1"/>
        <pt x="876" y="742" on="0"/>
        <pt x="849" y="848" on="0"/>
        <pt x="782" y="896" on="0"/>
        <pt x="720" y="896" on="1"/>
        <pt x="671" y="896" on="0"/>
        <pt x="535" y="852" on="0"/>
        <pt x="486" y="809" on="1"/>
        <pt x="486" y="0" on="1"/>
        <pt x="174" y="0" on="1"/>
        <pt x="174" y="1140" on="1"/>
        <pt x="457" y="1140" on="1"/>
        <pt x="463" y="1018" on="1"/>
        <pt x="532" y="1070" on="0"/>
        <pt x="738" y="1157" on="0"/>
        <pt x="834" y="1160" on="1"/>
        <pt x="940" y="1164" on="0"/>
        <pt x="1086" y="1097" on="0"/>
        <pt x="1128" y="1022" on="1"/>
        <pt x="1195" y="1074" on="0"/>
        <pt x="1409" y="1160" on="0"/>
        <pt x="1520" y="1160" on="1"/>
      </contour>
    </TTGlyph>
    <TTGlyph name="macron" xMin="55" yMin="1420" xMax="646" yMax="1626">
      <contour>
        <pt x="646" y="1626" on="1"/>
        <pt x="646" y="1420" on="1"/>
        <pt x="55" y="1420" on="1"/>
        <pt x="55" y="1626" on="1"/>
      </contour>
    </TTGlyph>
    <TTGlyph name="macron.cap" xMin="55" yMin="1687" xMax="646" yMax="1893">
      <contour>
        <pt x="646" y="1893" on="1"/>
        <pt x="646" y="1687" on="1"/>
        <pt x="55" y="1687" on="1"/>
        <pt x="55" y="1893" on="1"/>
      </contour>
    </TTGlyph>
</ttFont>
